<?xml version="1.0" encoding="utf-8"?>
<!-- Generator: Adobe Illustrator 21.0.2, SVG Export Plug-In . SVG Version: 6.00 Build 0)  -->
<svg version="1.1" id="Layer_1" xmlns="http://www.w3.org/2000/svg" xmlns:xlink="http://www.w3.org/1999/xlink" x="0px" y="0px"
	 viewBox="0 0 800 800" style="enable-background:new 0 0 800 800;" xml:space="preserve">
<style type="text/css">
	.st0{fill:#FFFFFF;}
</style>
<path class="st0" d="M400,139c144,0,260,116,260,260c0,115-75,213-178,247c-9,3-17-2-17-13v-71c0-35-18-48-18-48
	c57-6,119-28,119-128c0-44-27-70-27-70s14-29-2-69c0,0-22-7-72,27c-42-12-88-12-130,0c-50-34-72-27-72-27c-16,40-2,69-2,69
	s-27,26-27,70c0,100,62,122,119,128c0,0-14,10-17,35c-15,7-53,18-76-22c0,0-13-25-39-27c0,0-26,0-2,16c0,0,17,8,29,38
	c0,0,16,51,88,35v44c0,11-9,16-18,13c-103-34-178-132-178-247C140,255,256,139,400,139z"/>
</svg>
