<?xml version="1.0" encoding="utf-8"?>
<!-- Generator: Adobe Illustrator 21.0.2, SVG Export Plug-In . SVG Version: 6.00 Build 0)  -->
<svg version="1.1" id="Layer_1" xmlns="http://www.w3.org/2000/svg" xmlns:xlink="http://www.w3.org/1999/xlink" x="0px" y="0px"
	 viewBox="0 0 800 800" style="enable-background:new 0 0 800 800;" xml:space="preserve">
<style type="text/css">
	.st0{fill:#FFFFFF;}
</style>
<path class="st0" d="M268,629h-97V319h97V629z M425,629h-97V319h93v42h1c13-24,44-50,91-50c98,0,116,64,116,148v170h-96V478
	c0-36-2-82-51-82c-50,0-57,39-57,79V629z M220,164c31,0,55,25,55,56s-24,56-55,56s-56-25-56-56S189,164,220,164z"/>
</svg>
