<?xml version="1.0" encoding="utf-8"?>
<!-- Generator: Adobe Illustrator 21.0.2, SVG Export Plug-In . SVG Version: 6.00 Build 0)  -->
<svg version="1.1" id="Layer_1" xmlns="http://www.w3.org/2000/svg" xmlns:xlink="http://www.w3.org/1999/xlink" x="0px" y="0px"
	 viewBox="0 0 800 800" style="enable-background:new 0 0 800 800;" xml:space="preserve">
<style type="text/css">
	.st0{opacity:0.4;fill:#FFFFFF;}
	.st1{opacity:0.6;fill:#FFFFFF;}
	.st2{fill:#FFFFFF;}
</style>
<g>
	<path class="st0" d="M650,267v328c0,14-12,20-28,12l-139-70L650,267z"/>
	<path class="st1" d="M374,360l101-164c4-7,14-10,22-6l153,77L483,537L374,360z"/>
	<path class="st2" d="M483,537l-170-85l4-185L483,537z"/>
	<path class="st2" d="M317,595c0,14-10,20-23,14l-130-65c-8-4-14-13-14-22V204c0-11,7-17,18-12l149,75V595z"/>
</g>
</svg>
