<?xml version="1.0" encoding="utf-8"?>
<!-- Generator: Adobe Illustrator 21.0.2, SVG Export Plug-In . SVG Version: 6.00 Build 0)  -->
<svg version="1.1" xmlns="http://www.w3.org/2000/svg" xmlns:xlink="http://www.w3.org/1999/xlink" x="0px" y="0px"
	 viewBox="0 0 1000 1000" style="enable-background:new 0 0 1000 1000;" xml:space="preserve">
<style type="text/css">
	.st0{display:none;}
	.st1{display:inline;}
	.st2{fill:#FFFFFF;}
	.st3{opacity:0.5;fill:#FFFFFF;}
</style>
<g id="Layer_1" class="st0">
	<rect x="187" y="294.5" class="st1" width="553.5" height="385"/>
</g>
<g id="Layer_2">
	<g>
		<path class="st2" d="M432.5,242.4c0,0,0-0.1,0-0.1c0-38.4,31.2-69.6,69.6-69.6c38.4,0,69.6,31.2,69.6,69.6c0,0,0,0.1,0,0.1
			c27.9-21.1,46-54.6,46-92.3c0-63.8-51.7-115.6-115.6-115.6S386.5,86.3,386.5,150.1C386.5,187.8,404.6,221.3,432.5,242.4z"/>
		<path class="st3" d="M502.1,172.6c-38.4,0-69.6,31.2-69.6,69.6c0,0,0,0.1,0,0.1c0.1,38.4,31.2,69.5,69.6,69.5
			c38.4,0,69.5-31.1,69.6-69.5c0,0,0-0.1,0-0.1C571.7,203.8,540.6,172.6,502.1,172.6z"/>
		<path class="st2" d="M571.7,757.6c0,0,0,0.1,0,0.1c0,38.4-31.2,69.6-69.6,69.6c-38.4,0-69.6-31.2-69.6-69.6c0,0,0-0.1,0-0.1
			c-27.9,21.1-46,54.6-46,92.3c0,63.8,51.7,115.6,115.6,115.6s115.6-51.7,115.6-115.6C617.7,812.2,599.7,778.7,571.7,757.6z"/>
		<path class="st3" d="M571.7,757.6c-0.1-38.4-31.2-69.5-69.6-69.5c-38.4,0-69.5,31.1-69.6,69.5c0,0,0,0.1,0,0.1
			c0,38.4,31.2,69.6,69.6,69.6c38.4,0,69.6-31.2,69.6-69.6C571.7,757.7,571.7,757.7,571.7,757.6z"/>
		<path class="st2" d="M852,384.4c-37.7,0-71.2,18.1-92.3,46c0,0,0.1,0,0.1,0c38.4,0,69.6,31.2,69.6,69.6
			c0,38.4-31.2,69.6-69.6,69.6c0,0-0.1,0-0.1,0c21.1,27.9,54.6,46,92.3,46c63.8,0,115.6-51.7,115.6-115.6
			C967.6,436.2,915.9,384.4,852,384.4z"/>
		<path class="st3" d="M759.9,430.4c0,0-0.1,0-0.1,0c-38.4,0.1-69.5,31.2-69.5,69.6c0,38.4,31.1,69.5,69.5,69.6c0,0,0.1,0,0.1,0
			c38.4,0,69.6-31.2,69.6-69.6C829.5,461.6,798.3,430.4,759.9,430.4z"/>
		<path class="st2" d="M244.5,569.6c0,0-0.1,0-0.1,0c-38.4,0-69.6-31.2-69.6-69.6c0-38.4,31.2-69.6,69.6-69.6c0,0,0.1,0,0.1,0
			c-21.1-27.9-54.6-46-92.3-46c-63.8,0-115.6,51.7-115.6,115.6c0,63.8,51.7,115.6,115.6,115.6C189.9,615.6,223.4,597.5,244.5,569.6z
			"/>
		<path class="st3" d="M244.5,430.4c0,0-0.1,0-0.1,0c-38.4,0-69.6,31.2-69.6,69.6c0,38.4,31.2,69.6,69.6,69.6c0,0,0.1,0,0.1,0
			c38.4-0.1,69.5-31.2,69.5-69.6C314,461.6,282.9,430.5,244.5,430.4z"/>
		<path class="st3" d="M635.1,268.6c-27.1,27.2-27.1,71.2,0.1,98.4c27.2,27.2,71.2,27.2,98.4,0.1c-24-3.3-47.2-14.2-65.7-32.7
			C649.3,315.8,638.4,292.6,635.1,268.6z"/>
		<path class="st3" d="M369.2,731.4c27.1-27.2,27.1-71.2-0.1-98.4c-27.2-27.2-71.2-27.2-98.4-0.1c24,3.3,47.2,14.2,65.7,32.7
			C354.9,684.2,365.8,707.4,369.2,731.4z"/>
		<path class="st3" d="M733.5,633c-27.2-27.1-71.2-27.1-98.4,0.1s-27.2,71.2-0.1,98.4c3.3-24,14.2-47.2,32.7-65.7
			S709.5,636.3,733.5,633z"/>
		<path class="st3" d="M270.7,367c27.2,27.1,71.2,27.1,98.4-0.1c27.2-27.2,27.2-71.2,0.1-98.4c-3.3,24-14.2,47.2-32.7,65.7
			C318,352.8,294.8,363.7,270.7,367z"/>
		<path class="st2" d="M635.2,268.5c27.2-27.2,71.3-27.2,98.4,0c27.2,27.2,27.2,71.3,0,98.4c0,0-0.1,0.1-0.1,0.1
			c34.7,4.8,71.1-6.1,97.8-32.7c45.1-45.1,45.1-118.3,0-163.5c-45.1-45.1-118.3-45.1-163.5,0C641.2,197.5,630.3,233.9,635.2,268.5
			C635.1,268.6,635.1,268.5,635.2,268.5z"/>
		<path class="st2" d="M733.6,268.5c-27.2-27.2-71.3-27.2-98.4,0c0,0-0.1,0.1-0.1,0.1c3.3,24,14.2,47.2,32.7,65.7
			c18.5,18.5,41.7,29.4,65.7,32.7c0,0,0.1-0.1,0.1-0.1C760.8,339.8,760.8,295.7,733.6,268.5z"/>
		<path class="st2" d="M369.1,731.5c-27.2,27.2-71.3,27.2-98.4,0c-27.2-27.2-27.2-71.3,0-98.4c0,0,0.1-0.1,0.1-0.1
			c-34.7-4.8-71.1,6.1-97.8,32.7c-45.1,45.1-45.1,118.3,0,163.5c45.1,45.1,118.3,45.1,163.5,0C363.1,802.5,374,766.1,369.1,731.5
			C369.1,731.4,369.1,731.5,369.1,731.5z"/>
		<path class="st2" d="M270.6,731.5c27.2,27.2,71.3,27.2,98.4,0c0,0,0.1-0.1,0.1-0.1c-3.3-24-14.2-47.2-32.7-65.7
			c-18.5-18.5-41.7-29.4-65.7-32.7c0,0-0.1,0.1-0.1,0.1C243.5,660.2,243.5,704.3,270.6,731.5z"/>
		<path class="st2" d="M733.5,633C733.6,633,733.6,633,733.5,633c27.3,27.3,27.3,71.3,0.1,98.5c-27.2,27.2-71.3,27.2-98.4,0
			c0,0-0.1-0.1-0.1-0.1c-4.8,34.7,6.1,71.1,32.7,97.8c45.1,45.1,118.3,45.1,163.5,0c45.1-45.1,45.1-118.3,0-163.5
			C804.6,639,768.2,628.1,733.5,633z"/>
		<path class="st2" d="M733.6,731.5c27.2-27.2,27.2-71.3,0-98.4c0,0-0.1-0.1-0.1-0.1c-24,3.3-47.2,14.2-65.7,32.7
			s-29.4,41.7-32.7,65.7c0,0,0.1,0.1,0.1,0.1C662.4,758.7,706.4,758.7,733.6,731.5z"/>
		<path class="st2" d="M270.7,367C270.7,367,270.7,367,270.7,367c-27.3-27.3-27.3-71.3-0.1-98.5c27.2-27.2,71.3-27.2,98.4,0
			c0,0,0.1,0.1,0.1,0.1c4.8-34.7-6.1-71.1-32.7-97.8c-45.1-45.1-118.3-45.1-163.5,0c-45.1,45.1-45.1,118.3,0,163.5
			C199.6,361,236.1,371.9,270.7,367z"/>
		<path class="st2" d="M270.6,268.5c-27.2,27.2-27.2,71.3,0,98.4c0,0,0.1,0.1,0.1,0.1c24-3.3,47.2-14.2,65.7-32.7
			c18.5-18.5,29.4-41.7,32.7-65.7c0,0-0.1-0.1-0.1-0.1C341.9,241.3,297.8,241.3,270.6,268.5z"/>
	</g>
</g>
</svg>
