<svg xmlns="http://www.w3.org/2000/svg" viewBox="0 0 1000 1000"><style>.st2,.st3{fill:#fff}.st3{opacity:.5}</style><g id="Layer_2"><path class="st2" d="M432.5 242.4v-.1c0-38.4 31.2-69.6 69.6-69.6 38.4 0 69.6 31.2 69.6 69.6v.1c27.9-21.1 46-54.6 46-92.3 0-63.8-51.7-115.6-115.6-115.6S386.5 86.3 386.5 150.1c0 37.7 18.1 71.2 46 92.3z"/><path class="st3" d="M502.1 172.6c-38.4 0-69.6 31.2-69.6 69.6v.1c.1 38.4 31.2 69.5 69.6 69.5 38.4 0 69.5-31.1 69.6-69.5v-.1c0-38.4-31.1-69.6-69.6-69.6z"/><path class="st2" d="M571.7 757.6v.1c0 38.4-31.2 69.6-69.6 69.6-38.4 0-69.6-31.2-69.6-69.6v-.1c-27.9 21.1-46 54.6-46 92.3 0 63.8 51.7 115.6 115.6 115.6s115.6-51.7 115.6-115.6c0-37.7-18-71.2-46-92.3z"/><path class="st3" d="M571.7 757.6c-.1-38.4-31.2-69.5-69.6-69.5-38.4 0-69.5 31.1-69.6 69.5v.1c0 38.4 31.2 69.6 69.6 69.6 38.4 0 69.6-31.2 69.6-69.6v-.1z"/><path class="st2" d="M852 384.4c-37.7 0-71.2 18.1-92.3 46h.1c38.4 0 69.6 31.2 69.6 69.6 0 38.4-31.2 69.6-69.6 69.6h-.1c21.1 27.9 54.6 46 92.3 46 63.8 0 115.6-51.7 115.6-115.6 0-63.8-51.7-115.6-115.6-115.6z"/><path class="st3" d="M759.9 430.4h-.1c-38.4.1-69.5 31.2-69.5 69.6 0 38.4 31.1 69.5 69.5 69.6h.1c38.4 0 69.6-31.2 69.6-69.6 0-38.4-31.2-69.6-69.6-69.6z"/><path class="st2" d="M244.5 569.6h-.1c-38.4 0-69.6-31.2-69.6-69.6 0-38.4 31.2-69.6 69.6-69.6h.1c-21.1-27.9-54.6-46-92.3-46-63.8 0-115.6 51.7-115.6 115.6 0 63.8 51.7 115.6 115.6 115.6 37.7 0 71.2-18.1 92.3-46z"/><path class="st3" d="M244.5 430.4h-.1c-38.4 0-69.6 31.2-69.6 69.6 0 38.4 31.2 69.6 69.6 69.6h.1c38.4-.1 69.5-31.2 69.5-69.6 0-38.4-31.1-69.5-69.5-69.6zm390.6-161.8c-27.1 27.2-27.1 71.2.1 98.4 27.2 27.2 71.2 27.2 98.4.1-24-3.3-47.2-14.2-65.7-32.7-18.6-18.6-29.5-41.8-32.8-65.8zM369.2 731.4c27.1-27.2 27.1-71.2-.1-98.4-27.2-27.2-71.2-27.2-98.4-.1 24 3.3 47.2 14.2 65.7 32.7 18.5 18.6 29.4 41.8 32.8 65.8zM733.5 633c-27.2-27.1-71.2-27.1-98.4.1s-27.2 71.2-.1 98.4c3.3-24 14.2-47.2 32.7-65.7s41.8-29.5 65.8-32.8zM270.7 367c27.2 27.1 71.2 27.1 98.4-.1 27.2-27.2 27.2-71.2.1-98.4-3.3 24-14.2 47.2-32.7 65.7-18.5 18.6-41.7 29.5-65.8 32.8z"/><path class="st2" d="M635.2 268.5c27.2-27.2 71.3-27.2 98.4 0 27.2 27.2 27.2 71.3 0 98.4l-.1.1c34.7 4.8 71.1-6.1 97.8-32.7 45.1-45.1 45.1-118.3 0-163.5-45.1-45.1-118.3-45.1-163.5 0-26.6 26.7-37.5 63.1-32.6 97.7-.1.1-.1 0 0 0z"/><path class="st2" d="M733.6 268.5c-27.2-27.2-71.3-27.2-98.4 0l-.1.1c3.3 24 14.2 47.2 32.7 65.7 18.5 18.5 41.7 29.4 65.7 32.7l.1-.1c27.2-27.1 27.2-71.2 0-98.4zm-364.5 463c-27.2 27.2-71.3 27.2-98.4 0-27.2-27.2-27.2-71.3 0-98.4l.1-.1c-34.7-4.8-71.1 6.1-97.8 32.7-45.1 45.1-45.1 118.3 0 163.5 45.1 45.1 118.3 45.1 163.5 0 26.6-26.7 37.5-63.1 32.6-97.7 0-.1 0 0 0 0z"/><path class="st2" d="M270.6 731.5c27.2 27.2 71.3 27.2 98.4 0l.1-.1c-3.3-24-14.2-47.2-32.7-65.7-18.5-18.5-41.7-29.4-65.7-32.7l-.1.1c-27.1 27.1-27.1 71.2 0 98.4zM733.5 633c.1 0 .1 0 0 0 27.3 27.3 27.3 71.3.1 98.5-27.2 27.2-71.3 27.2-98.4 0l-.1-.1c-4.8 34.7 6.1 71.1 32.7 97.8 45.1 45.1 118.3 45.1 163.5 0 45.1-45.1 45.1-118.3 0-163.5-26.7-26.7-63.1-37.6-97.8-32.7z"/><path class="st2" d="M733.6 731.5c27.2-27.2 27.2-71.3 0-98.4l-.1-.1c-24 3.3-47.2 14.2-65.7 32.7s-29.4 41.7-32.7 65.7l.1.1c27.2 27.2 71.2 27.2 98.4 0zM270.7 367c-27.3-27.3-27.3-71.3-.1-98.5 27.2-27.2 71.3-27.2 98.4 0l.1.1c4.8-34.7-6.1-71.1-32.7-97.8-45.1-45.1-118.3-45.1-163.5 0-45.1 45.1-45.1 118.3 0 163.5 26.7 26.7 63.2 37.6 97.8 32.7z"/><path class="st2" d="M270.6 268.5c-27.2 27.2-27.2 71.3 0 98.4l.1.1c24-3.3 47.2-14.2 65.7-32.7 18.5-18.5 29.4-41.7 32.7-65.7l-.1-.1c-27.1-27.2-71.2-27.2-98.4 0z"/></g></svg>