<?xml version="1.0" encoding="utf-8"?>
<!-- Generator: Adobe Illustrator 21.0.2, SVG Export Plug-In . SVG Version: 6.00 Build 0)  -->
<svg version="1.1" id="Layer_1" xmlns="http://www.w3.org/2000/svg" xmlns:xlink="http://www.w3.org/1999/xlink" x="0px" y="0px"
	 viewBox="0 0 800 800" style="enable-background:new 0 0 800 800;" xml:space="preserve">
<style type="text/css">
	.st0{fill:#FFFFFF;}
</style>
<path class="st0" d="M679,239c0,0-21,34-55,57c7,156-107,329-314,329c-103,0-169-50-169-50s81,17,163-45c-83-5-103-77-103-77
	s23,6,50-2c-93-23-89-110-89-110s23,14,50,14c-84-65-34-148-34-148s76,107,228,116c-22-121,117-177,188-101c37-6,71-27,71-27
	s-12,41-49,61C646,254,679,239,679,239z"/>
</svg>
