<?xml version="1.0" encoding="utf-8"?>
<!-- Generator: Adobe Illustrator 21.0.2, SVG Export Plug-In . SVG Version: 6.00 Build 0)  -->
<svg version="1.1" id="Camada_1" xmlns="http://www.w3.org/2000/svg" xmlns:xlink="http://www.w3.org/1999/xlink" x="0px" y="0px"
	 viewBox="0 0 543 372" style="enable-background:new 0 0 543 372;" xml:space="preserve">
<style type="text/css">
	.st0{fill:#2B4888;}
	.st1{fill:#454545;}
</style>
<g>
	<g>
		<path class="st0" d="M285.8,96.2c-2.9,0-5.3,2.3-5.3,5.3c0,2.9,2.3,5.3,5.3,5.3s5.3-2.3,5.3-5.3C291.1,98.5,288.8,96.2,285.8,96.2
			z M287.1,103.3c-0.3,0.2-0.8,0.3-1.2,0.3s-0.8-0.2-1.2-0.3c-0.6-0.3-0.9-1.1-0.9-1.7c0-0.6,0.3-1.4,0.9-1.7
			c0.3-0.2,0.8-0.3,1.2-0.3s0.8,0.2,1.2,0.3c0.6,0.3,0.9,1.1,0.9,1.7C288,102.2,287.5,102.9,287.1,103.3z"/>
		<circle class="st0" cx="274.1" cy="125.3" r="5.3"/>
		<circle class="st0" cx="332.5" cy="137.1" r="5.3"/>
		<path class="st0" d="M332.5,108.1c-2.9,0-5.3,2.3-5.3,5.3c0,2.9,2.3,5.3,5.3,5.3c2.9,0,5.3-2.3,5.3-5.3
			C337.7,110.4,335.4,108.1,332.5,108.1z M333.7,115.1c-0.3,0.2-0.8,0.3-1.2,0.3c-0.5,0-0.8-0.2-1.2-0.3c-0.6-0.3-0.9-1.1-0.9-1.7
			c0-0.6,0.3-1.4,0.9-1.7c0.3-0.2,0.8-0.3,1.2-0.3c0.5,0,0.8,0.2,1.2,0.3c0.6,0.3,0.9,1.1,0.9,1.7
			C334.6,114,334.3,114.8,333.7,115.1z"/>
		<path class="st0" d="M297.6,119.8c-2.9,0-5.3,2.3-5.3,5.3c0,2.9,2.3,5.3,5.3,5.3c2.9,0,5.3-2.3,5.3-5.3
			C302.8,122.3,300.5,119.8,297.6,119.8z M297.6,126.2c-0.6,0-0.9-0.5-0.9-0.9c0-0.6,0.5-0.9,0.9-0.9c0.6,0,0.9,0.5,0.9,0.9
			S298,126.2,297.6,126.2z"/>
		<path class="st0" d="M285.8,60.5c-2.9,0-5.3,2.3-5.3,5.3c0,2.9,2.3,5.3,5.3,5.3s5.3-2.3,5.3-5.3C291.1,62.9,288.8,60.5,285.8,60.5
			z M285.8,66.9c-0.6,0-0.9-0.5-0.9-0.9c0-0.6,0.5-0.9,0.9-0.9c0.5,0,0.9,0.5,0.9,0.9C286.8,66.4,286.3,66.9,285.8,66.9z"/>
		<circle class="st0" cx="274.1" cy="148.9" r="5.3"/>
		<path class="st0" d="M285.8,155.5c-2.9,0-5.3,2.3-5.3,5.3c0,2.9,2.3,5.3,5.3,5.3s5.3-2.3,5.3-5.3
			C291.1,157.8,288.8,155.5,285.8,155.5z M285.8,161.9c-0.6,0-0.9-0.5-0.9-0.9c0-0.6,0.5-0.9,0.9-0.9c0.5,0,0.9,0.5,0.9,0.9
			C286.8,161.4,286.3,161.9,285.8,161.9z"/>
		<path class="st0" d="M355.8,131.7c-2.9,0-5.3,2.3-5.3,5.3c0,2.9,2.3,5.3,5.3,5.3c2.9,0,5.3-2.3,5.3-5.3
			C361.2,134.2,358.7,131.7,355.8,131.7z M355.8,138.1c-0.6,0-0.9-0.5-0.9-0.9s0.5-0.9,0.9-0.9c0.6,0,0.9,0.5,0.9,0.9
			S356.4,138.1,355.8,138.1z"/>
		<path class="st0" d="M344.2,143.6c-2.9,0-5.3,2.3-5.3,5.3s2.3,5.3,5.3,5.3c2.9,0,5.3-2.3,5.3-5.3S347.1,143.6,344.2,143.6z
			 M344.2,150c-0.6,0-0.9-0.5-0.9-0.9c0-0.6,0.5-0.9,0.9-0.9s0.9,0.5,0.9,0.9C345.1,149.5,344.7,150,344.2,150z"/>
		<path class="st0" d="M274.1,179.3c-2.9,0-5.3,2.3-5.3,5.3s2.3,5.3,5.3,5.3s5.3-2.3,5.3-5.3C279.5,181.6,277,179.3,274.1,179.3z
			 M274.1,185.5c-0.6,0-0.9-0.5-0.9-0.9c0-0.6,0.5-0.9,0.9-0.9c0.5,0,0.9,0.5,0.9,0.9C275.2,185,274.7,185.5,274.1,185.5z"/>
		<circle class="st0" cx="297.6" cy="160.8" r="5.3"/>
		<path class="st0" d="M309.2,143.6c-2.9,0-5.3,2.3-5.3,5.3s2.3,5.3,5.3,5.3s5.3-2.3,5.3-5.3S312.1,143.6,309.2,143.6z M309.2,151
			c-1.2,0-2.2-0.9-2.2-2.2c0-1.2,0.9-2.2,2.2-2.2s2.2,0.9,2.2,2.2C311.3,150.1,310.4,151,309.2,151z"/>
		<path class="st0" d="M262.5,108.1c-2.9,0-5.3,2.3-5.3,5.3c0,2.9,2.3,5.3,5.3,5.3s5.3-2.3,5.3-5.3
			C267.8,110.4,265.4,108.1,262.5,108.1z M262.5,114.3c-0.6,0-0.9-0.5-0.9-0.9c0-0.6,0.5-0.9,0.9-0.9c0.5,0,0.9,0.5,0.9,0.9
			C263.4,113.8,263,114.3,262.5,114.3z"/>
		<circle class="st0" cx="250.8" cy="125.3" r="5.3"/>
		<circle class="st0" cx="250.8" cy="101.5" r="5.3"/>
		<circle class="st0" cx="274.3" cy="77.5" r="5.3"/>
		<circle class="st0" cx="239.2" cy="113.4" r="5.3"/>
		<path class="st0" d="M250.8,35.5c2.9,0,5.3-2.3,5.3-5.3s-2.3-5.3-5.3-5.3s-5.3,2.3-5.3,5.3S247.8,35.5,250.8,35.5z M250.8,29.3
			c0.6,0,0.9,0.5,0.9,0.9c0,0.6-0.5,0.9-0.9,0.9c-0.6,0-0.9-0.5-0.9-0.9C249.9,29.8,250.2,29.3,250.8,29.3z"/>
		<path class="st0" d="M215.9,96.2c-2.9,0-5.3,2.3-5.3,5.3c0,2.9,2.3,5.3,5.3,5.3c2.9,0,5.3-2.3,5.3-5.3
			C221.1,98.5,218.8,96.2,215.9,96.2z M215.9,102.6c-0.6,0-0.9-0.5-0.9-0.9c0-0.6,0.5-0.9,0.9-0.9c0.5,0,0.9,0.5,0.9,0.9
			C216.8,102.1,216.3,102.6,215.9,102.6z"/>
		<path class="st0" d="M192.4,96.2c-2.9,0-5.3,2.3-5.3,5.3c0,2.9,2.3,5.3,5.3,5.3c2.9,0,5.3-2.3,5.3-5.3
			C197.8,98.5,195.3,96.2,192.4,96.2z M192.4,103.6c-1.2,0-2.2-0.9-2.2-2.2c0-1.2,1.1-2.2,2.2-2.2c1.2,0,2.2,0.9,2.2,2.2
			C194.6,102.7,193.6,103.6,192.4,103.6z"/>
		<path class="st0" d="M204.1,108.1c-2.9,0-5.3,2.3-5.3,5.3c0,2.9,2.3,5.3,5.3,5.3s5.3-2.3,5.3-5.3
			C209.4,110.4,207.1,108.1,204.1,108.1z M204.1,115.5c-1.2,0-2.2-0.9-2.2-2.2s0.9-2.2,2.2-2.2s2.2,0.9,2.2,2.2
			S205.4,115.5,204.1,115.5z"/>
		<path class="st0" d="M227.5,108.1c-2.9,0-5.3,2.3-5.3,5.3c0,2.9,2.3,5.3,5.3,5.3s5.3-2.3,5.3-5.3
			C232.9,110.4,230.4,108.1,227.5,108.1z M227.5,115.5c-1.2,0-2.2-0.9-2.2-2.2s0.9-2.2,2.2-2.2c1.2,0,2.2,0.9,2.2,2.2
			S228.7,115.5,227.5,115.5z"/>
		<path class="st0" d="M320.9,96.2c-2.9,0-5.3,2.3-5.3,5.3c0,2.9,2.3,5.3,5.3,5.3c2.9,0,5.3-2.3,5.3-5.3
			C326.1,98.5,323.8,96.2,320.9,96.2z M320.9,102.6c-0.6,0-0.9-0.5-0.9-0.9c0-0.6,0.5-0.9,0.9-0.9s0.9,0.5,0.9,0.9
			C321.8,102.1,321.4,102.6,320.9,102.6z"/>
		<path class="st0" d="M215.9,119.8c-2.9,0-5.3,2.3-5.3,5.3c0,2.9,2.3,5.3,5.3,5.3c2.9,0,5.3-2.3,5.3-5.3
			C221.1,122.3,218.8,119.8,215.9,119.8z M215.9,126.2c-0.6,0-0.9-0.5-0.9-0.9c0-0.6,0.5-0.9,0.9-0.9c0.5,0,0.9,0.5,0.9,0.9
			S216.3,126.2,215.9,126.2z"/>
		<path class="st0" d="M250.8,131.7c-2.9,0-5.3,2.3-5.3,5.3c0,2.9,2.3,5.3,5.3,5.3s5.3-2.3,5.3-5.3
			C256.2,134.2,253.7,131.7,250.8,131.7z M250.8,139.2c-1.2,0-2.2-0.9-2.2-2.2c0-1.2,0.9-2.2,2.2-2.2c1.2,0,2.2,0.9,2.2,2.2
			C252.9,138.2,252,139.2,250.8,139.2z"/>
		<path class="st0" d="M227.5,131.7c-2.9,0-5.3,2.3-5.3,5.3c0,2.9,2.3,5.3,5.3,5.3s5.3-2.3,5.3-5.3
			C232.9,134.2,230.4,131.7,227.5,131.7z M227.5,138.1c-0.6,0-0.9-0.5-0.9-0.9s0.5-0.9,0.9-0.9c0.6,0,0.9,0.5,0.9,0.9
			S228.1,138.1,227.5,138.1z"/>
		<circle class="st0" cx="250.8" cy="160.8" r="5.3"/>
		<path class="st0" d="M262.5,167.4c-2.9,0-5.3,2.3-5.3,5.3s2.3,5.3,5.3,5.3s5.3-2.3,5.3-5.3S265.4,167.4,262.5,167.4z M262.5,174.8
			c-1.2,0-2.2-0.9-2.2-2.2s0.9-2.2,2.2-2.2c1.2,0,2.2,0.9,2.2,2.2S263.6,174.8,262.5,174.8z"/>
		<circle class="st0" cx="262.5" cy="184.6" r="5.3"/>
		<path class="st0" d="M250.8,191c-2.9,0-5.3,2.3-5.3,5.3s2.3,5.3,5.3,5.3s5.3-2.3,5.3-5.3C256.2,193.5,253.7,191,250.8,191z
			 M250.8,197.4c-0.6,0-0.9-0.5-0.9-0.9c0-0.6,0.5-0.9,0.9-0.9s0.9,0.5,0.9,0.9C251.9,196.9,251.4,197.4,250.8,197.4z"/>
		<path class="st0" d="M320.4,167.3c-2.9,0-5.3,2.3-5.3,5.3s2.3,5.3,5.3,5.3c2.9,0,5.3-2.3,5.3-5.3
			C325.8,169.7,323.4,167.3,320.4,167.3z M320.9,174.8c-1.2,0-2.2-0.9-2.2-2.2s0.9-2.2,2.2-2.2c1.2,0,2.2,0.9,2.2,2.2
			S322,174.8,320.9,174.8z"/>
		<path class="st0" d="M274.1,202.9c-2.9,0-5.3,2.3-5.3,5.3s2.3,5.3,5.3,5.3s5.3-2.3,5.3-5.3C279.5,205.4,277,202.9,274.1,202.9z
			 M274.1,210.3c-1.2,0-2.2-0.9-2.2-2.2c0-1.2,0.9-2.2,2.2-2.2s2.2,0.9,2.2,2.2C276.3,209.4,275.3,210.3,274.1,210.3z"/>
		<path class="st0" d="M297.6,167.4c-2.9,0-5.3,2.3-5.3,5.3s2.3,5.3,5.3,5.3c2.9,0,5.3-2.3,5.3-5.3
			C302.8,169.7,300.5,167.4,297.6,167.4z M297.6,174.8c-1.2,0-2.2-0.9-2.2-2.2s0.9-2.2,2.2-2.2c1.2,0,2.2,0.9,2.2,2.2
			S298.7,174.8,297.6,174.8z"/>
		<path class="st0" d="M297.6,191c-2.9,0-5.3,2.3-5.3,5.3s2.3,5.3,5.3,5.3c2.9,0,5.3-2.3,5.3-5.3C302.8,193.5,300.5,191,297.6,191z
			 M297.6,198.5c-1.2,0-2.2-0.9-2.2-2.2c0-1.2,0.9-2.2,2.2-2.2c1.2,0,2.2,0.9,2.2,2.2C299.6,197.5,298.7,198.5,297.6,198.5z"/>
		<circle class="st0" cx="285.8" cy="208.2" r="5.3"/>
		<path class="st0" d="M250.8,238.5c-2.9,0-5.3,2.3-5.3,5.3s2.3,5.3,5.3,5.3s5.3-2.3,5.3-5.3S253.7,238.5,250.8,238.5z M250.8,244.8
			c-0.6,0-0.9-0.5-0.9-0.9c0-0.6,0.5-0.9,0.9-0.9s0.9,0.5,0.9,0.9C251.9,244.3,251.4,244.8,250.8,244.8z"/>
		<path class="st0" d="M239.2,167.4c-2.9,0-5.3,2.3-5.3,5.3s2.3,5.3,5.3,5.3s5.3-2.3,5.3-5.3S242.1,167.4,239.2,167.4z M239.2,173.6
			c-0.6,0-0.9-0.5-0.9-0.9c0-0.6,0.5-0.9,0.9-0.9s0.9,0.5,0.9,0.9C240.1,173.3,239.7,173.6,239.2,173.6z"/>
		<path class="st0" d="M250.8,60.5c-2.9,0-5.3,2.3-5.3,5.3c0,2.9,2.3,5.3,5.3,5.3s5.3-2.3,5.3-5.3C256,62.9,253.7,60.5,250.8,60.5z
			 M250.8,68c-1.2,0-2.2-0.9-2.2-2.2c0-1.2,0.9-2.2,2.2-2.2c1.2,0,2.2,0.9,2.2,2.2C252.9,67,252,68,250.8,68z"/>
		<path class="st0" d="M180.8,96.2c-2.9,0-5.3,2.3-5.3,5.3c0,2.9,2.3,5.3,5.3,5.3c2.9,0,5.3-2.3,5.3-5.3
			C186.1,98.5,183.8,96.2,180.8,96.2z M180.8,102.6c-0.6,0-0.9-0.5-0.9-0.9c0-0.6,0.5-0.9,0.9-0.9c0.5,0,0.9,0.5,0.9,0.9
			C181.7,102.1,181.3,102.6,180.8,102.6z"/>
		<path class="st0" d="M227.5,95c2.9,0,5.3-2.3,5.3-5.3c0-2.9-2.3-5.3-5.3-5.3s-5.3,2.2-5.3,5.1C222.2,92.5,224.5,95,227.5,95z
			 M227.5,87.6c1.2,0,2.2,0.9,2.2,2.2c0,1.2-0.9,2.2-2.2,2.2c-1.2,0-2.2-0.9-2.2-2.2C225.5,88.5,226.4,87.6,227.5,87.6z"/>
		<path class="st0" d="M215.9,71.2c2.9,0,5.3-2.3,5.3-5.3c0-2.9-2.3-5.3-5.3-5.3c-2.9,0-5.3,2.3-5.3,5.3
			C210.6,68.9,212.9,71.2,215.9,71.2z M215.9,63.8c1.2,0,2.2,0.9,2.2,2.2c0,1.2-0.9,2.2-2.2,2.2s-2.2-0.9-2.2-2.2
			C213.7,64.7,214.6,63.8,215.9,63.8z"/>
		<circle class="st0" cx="262.5" cy="65.9" r="2.2"/>
		<path class="st0" d="M262.5,44.3c1.2,0,2.2-0.9,2.2-2.2s-0.9-2.2-2.2-2.2c-1.2,0-2.2,0.9-2.2,2.2S261.3,44.3,262.5,44.3z
			 M262.5,41.2c0.6,0,0.9,0.5,0.9,0.9c0,0.6-0.5,0.9-0.9,0.9c-0.5,0-0.9-0.5-0.9-0.9C261.4,41.7,261.9,41.2,262.5,41.2z"/>
		<path class="st0" d="M297.6,91.7c1.2,0,2.2-0.9,2.2-2.2c0-1.2-0.9-2.2-2.2-2.2c-1.2,0-2.2,0.9-2.2,2.2
			C295.4,90.8,296.3,91.7,297.6,91.7z M297.6,88.7c0.6,0,0.9,0.5,0.9,0.9c0,0.6-0.5,0.9-0.9,0.9c-0.6,0-0.9-0.5-0.9-0.9
			C296.5,89.1,297,88.7,297.6,88.7z"/>
		<circle class="st0" cx="297.6" cy="101.5" r="2.2"/>
		<circle class="st0" cx="309.2" cy="101.5" r="2.2"/>
		<circle class="st0" cx="320.9" cy="113.4" r="2.2"/>
		<circle class="st0" cx="320.9" cy="125.3" r="2.2"/>
		<path class="st0" d="M344.2,127.4c1.2,0,2.2-0.9,2.2-2.2s-0.9-2.2-2.2-2.2s-2.2,0.9-2.2,2.2C342.1,126.3,343,127.4,344.2,127.4z
			 M344.2,124.2c0.6,0,0.9,0.5,0.9,0.9c0,0.6-0.5,0.9-0.9,0.9s-0.9-0.5-0.9-0.9C343.1,124.6,343.6,124.2,344.2,124.2z"/>
		<path class="st0" d="M320.9,162.9c1.2,0,2.2-0.9,2.2-2.2s-0.9-2.2-2.2-2.2s-2.2,0.9-2.2,2.2S319.7,162.9,320.9,162.9z
			 M320.9,159.8c0.6,0,0.9,0.5,0.9,0.9c0,0.6-0.5,0.9-0.9,0.9s-0.9-0.5-0.9-0.9C319.8,160.3,320.3,159.8,320.9,159.8z"/>
		<path class="st0" d="M355.9,146.7c-1.2,0-2.2,0.9-2.2,2.2c0,1.2,0.9,2.2,2.2,2.2s2.2-0.9,2.2-2.2S357,146.7,355.9,146.7z
			 M355.8,150c-0.6,0-0.9-0.5-0.9-0.9c0-0.6,0.5-0.9,0.9-0.9c0.6,0,0.9,0.5,0.9,0.9C356.9,149.5,356.4,150,355.8,150z"/>
		<path class="st0" d="M332.5,158.6c-1.2,0-2.2,0.9-2.2,2.2c0,1.2,0.9,2.2,2.2,2.2s2.2-0.9,2.2-2.2
			C334.6,159.5,333.7,158.6,332.5,158.6z M332.5,161.9c-0.6,0-0.9-0.5-0.9-0.9c0-0.6,0.5-0.9,0.9-0.9c0.5,0,0.9,0.5,0.9,0.9
			C333.6,161.4,333.1,161.9,332.5,161.9z"/>
		<circle class="st0" cx="309.2" cy="172.7" r="2.2"/>
		<path class="st0" d="M309.2,182.4c-1.2,0-2.2,0.9-2.2,2.2s0.9,2.2,2.2,2.2s2.2-0.9,2.2-2.2S310.4,182.4,309.2,182.4z M309.2,185.5
			c-0.6,0-0.9-0.5-0.9-0.9c0-0.6,0.5-0.9,0.9-0.9c0.6,0,0.9,0.5,0.9,0.9C310.2,185,309.8,185.5,309.2,185.5z"/>
		<path class="st0" d="M309.2,194.3c-1.2,0-2.2,0.9-2.2,2.2c0,1.2,0.9,2.2,2.2,2.2s2.2-0.9,2.2-2.2
			C311.3,195.2,310.4,194.3,309.2,194.3z M309.2,197.4c-0.6,0-0.9-0.5-0.9-0.9c0-0.6,0.5-0.9,0.9-0.9c0.6,0,0.9,0.5,0.9,0.9
			C310.2,196.9,309.8,197.4,309.2,197.4z"/>
		<path class="st0" d="M285.8,198.5c1.2,0,2.2-0.9,2.2-2.2c0-1.2-0.9-2.2-2.2-2.2s-2.2,0.9-2.2,2.2
			C283.7,197.5,284.6,198.5,285.8,198.5z M285.8,195.4c0.6,0,0.9,0.5,0.9,0.9c0,0.6-0.5,0.9-0.9,0.9c-0.5,0-0.9-0.5-0.9-0.9
			S285.2,195.4,285.8,195.4z"/>
		<circle class="st0" cx="285.8" cy="184.6" r="2.2"/>
		<path class="st0" d="M297.6,206.2c-1.2,0-2.2,0.9-2.2,2.2c0,1.2,0.9,2.2,2.2,2.2c1.2,0,2.2-0.9,2.2-2.2
			C299.6,207.1,298.7,206.2,297.6,206.2z M297.6,209.3c-0.6,0-0.9-0.5-0.9-0.9c0-0.6,0.5-0.9,0.9-0.9c0.6,0,0.9,0.5,0.9,0.9
			C298.5,208.8,298,209.3,297.6,209.3z"/>
		<circle class="st0" cx="320.9" cy="172.7" r="2.2"/>
		<path class="st0" d="M320.9,182.4c-1.2,0-2.2,0.9-2.2,2.2s0.9,2.2,2.2,2.2c1.2,0,2.2-0.9,2.2-2.2S322,182.4,320.9,182.4z
			 M320.9,185.5c-0.6,0-0.9-0.5-0.9-0.9c0-0.6,0.5-0.9,0.9-0.9s0.9,0.5,0.9,0.9S321.4,185.5,320.9,185.5z"/>
		<path class="st0" d="M333.7,111.7c0.6,0.3,0.9,1.1,0.9,1.7c0,0.6-0.3,1.4-0.9,1.7c0.6-0.3,0.9-1.1,0.9-1.7
			C334.6,112.7,334.3,112,333.7,111.7z"/>
		<path class="st0" d="M330.3,113.4c0-0.8,0.3-1.4,0.9-1.7C330.8,112,330.3,112.6,330.3,113.4c0,0.8,0.3,1.4,0.9,1.7
			C330.8,114.8,330.3,114.1,330.3,113.4z"/>
		<path class="st0" d="M274.1,56.2c1.2,0,2.2-0.9,2.2-2.2c0-1.2-0.9-2.2-2.2-2.2s-2.2,0.9-2.2,2.2C272.1,55.1,273,56.2,274.1,56.2z
			 M274.1,53c0.6,0,0.9,0.5,0.9,0.9c0,0.6-0.5,0.9-0.9,0.9c-0.5,0-0.9-0.3-0.9-0.8C273.2,53.4,273.6,53,274.1,53z"/>
		<circle class="st0" cx="285.8" cy="77.7" r="2.2"/>
		<circle class="st0" cx="227.5" cy="65.9" r="2.2"/>
		<path class="st0" d="M227.5,56.2c1.2,0,2.2-0.9,2.2-2.2c0-1.2-0.9-2.2-2.2-2.2c-1.2,0-2.2,0.9-2.2,2.2
			C225.3,55.1,226.4,56.2,227.5,56.2z M227.5,53c0.6,0,0.9,0.5,0.9,0.9c0,0.6-0.5,0.9-0.9,0.9c-0.6,0-0.9-0.5-0.9-0.9
			S227,53,227.5,53z"/>
		<circle class="st0" cx="215.9" cy="65.9" r="2.2"/>
		<circle class="st0" cx="215.9" cy="89.6" r="2.2"/>
		<path class="st0" d="M248.6,54.1c0,1.2,0.9,2.2,2.2,2.2c1.2,0,2.2-0.9,2.2-2.2c0-1.2-0.9-2.2-2.2-2.2
			C249.5,51.9,248.6,52.8,248.6,54.1z M250.8,53c0.6,0,0.9,0.5,0.9,0.9c0,0.6-0.5,0.9-0.9,0.9s-0.9-0.5-0.9-0.9S250.3,53,250.8,53z"
			/>
		<circle class="st0" cx="239.2" cy="65.9" r="2.2"/>
		<circle class="st0" cx="204.1" cy="77.7" r="2.2"/>
		<circle class="st0" cx="250.8" cy="148.9" r="2.2"/>
		<path class="st0" d="M227.5,146.9c-1.2,0-2.2,0.9-2.2,2.2c0,1.2,0.9,2.2,2.2,2.2c1.2,0,2.2-0.9,2.2-2.2
			C229.6,147.8,228.7,146.9,227.5,146.9z M227.5,150c-0.6,0-0.9-0.5-0.9-0.9c0-0.6,0.5-0.9,0.9-0.9c0.6,0,0.9,0.5,0.9,0.9
			C228.5,149.5,228.1,150,227.5,150z"/>
		<circle class="st0" cx="262.5" cy="160.8" r="2.2"/>
		<circle class="st0" cx="262.5" cy="196.4" r="2.2"/>
		<circle class="st0" cx="262.5" cy="208.2" r="2.2"/>
		<circle class="st0" cx="274.1" cy="220.1" r="2.2"/>
		<circle class="st0" cx="262.5" cy="232" r="2.2"/>
		<circle class="st0" cx="250.8" cy="220.1" r="2.2"/>
		<circle class="st0" cx="274.1" cy="172.7" r="2.2"/>
		<circle class="st0" cx="250.8" cy="184.6" r="2.2"/>
		<circle class="st0" cx="239.2" cy="137.1" r="2.2"/>
		<circle class="st0" cx="180.8" cy="89.6" r="2.2"/>
		<circle class="st0" cx="180.8" cy="113.4" r="2.2"/>
		<path class="st0" d="M192.4,79.8c1.2,0,2.2-0.9,2.2-2.2c0-1.2-0.9-2.2-2.2-2.2s-2.2,0.9-2.2,2.2C190.4,78.9,191.3,79.8,192.4,79.8
			z M192.4,76.8c0.6,0,0.9,0.5,0.9,0.9c0,0.6-0.5,0.9-0.9,0.9c-0.6,0-0.9-0.5-0.9-0.9S191.9,76.8,192.4,76.8z"/>
		<circle class="st0" cx="239.2" cy="77.7" r="2.2"/>
		<path class="st0" d="M227.5,79.8c1.2,0,2.2-0.9,2.2-2.2c0-1.2-0.9-2.2-2.2-2.2c-1.2,0-2.2,0.9-2.2,2.2
			C225.3,78.9,226.4,79.8,227.5,79.8z M227.5,76.8c0.6,0,0.9,0.5,0.9,0.9c0,0.6-0.5,0.9-0.9,0.9c-0.6,0-0.9-0.5-0.9-0.9
			S227,76.8,227.5,76.8z"/>
		<circle class="st0" cx="169.1" cy="101.5" r="0.9"/>
		<path class="st0" d="M192.4,78.8c-0.6,0-0.9-0.5-0.9-0.9c0-0.6,0.5-0.9,0.9-0.9c-0.6,0-0.9,0.5-0.9,0.9
			C191.5,78.3,191.9,78.8,192.4,78.8z"/>
		<circle class="st0" cx="192.4" cy="125.3" r="0.9"/>
		<circle class="st0" cx="192.4" cy="113.4" r="0.9"/>
		<circle class="st0" cx="215.9" cy="54.1" r="0.9"/>
		<circle class="st0" cx="204.1" cy="101.5" r="0.9"/>
		<circle class="st0" cx="192.4" cy="89.6" r="0.9"/>
		<circle class="st0" cx="227.5" cy="54.1" r="0.9"/>
		<circle class="st0" cx="227.5" cy="42.2" r="0.9"/>
		<circle class="st0" cx="262.5" cy="137.1" r="0.9"/>
		<circle class="st0" cx="239.2" cy="125.3" r="0.9"/>
		<circle class="st0" cx="262.5" cy="101.5" r="0.9"/>
		<circle class="st0" cx="204.1" cy="125.3" r="0.9"/>
		<circle class="st0" cx="215.9" cy="137.1" r="0.9"/>
		<circle class="st0" cx="239.2" cy="54.1" r="0.9"/>
		<circle class="st0" cx="239.2" cy="42.2" r="5.3"/>
		<circle class="st0" cx="239.2" cy="30.3" r="0.9"/>
		<circle class="st0" cx="239.2" cy="160.8" r="0.9"/>
		<circle class="st0" cx="239.2" cy="148.9" r="0.9"/>
		<circle class="st0" cx="250.8" cy="54.1" r="0.9"/>
		<circle class="st0" cx="250.8" cy="42.2" r="0.9"/>
		<circle class="st0" cx="250.8" cy="18.4" r="0.9"/>
		<circle class="st0" cx="250.8" cy="208.2" r="0.9"/>
		<circle class="st0" cx="285.8" cy="148.9" r="0.9"/>
		<circle class="st0" cx="274.1" cy="160.8" r="0.9"/>
		<circle class="st0" cx="250.8" cy="172.7" r="0.9"/>
		<circle class="st0" cx="250.8" cy="232" r="0.9"/>
		<circle class="st0" cx="262.5" cy="54.1" r="0.9"/>
		<circle class="st0" cx="262.5" cy="42.2" r="0.9"/>
		<circle class="st0" cx="262.5" cy="30.3" r="0.9"/>
		<circle class="st0" cx="262.5" cy="220.1" r="0.9"/>
		<circle class="st0" cx="274.1" cy="65.9" r="0.9"/>
		<circle class="st0" cx="274.1" cy="54.1" r="0.9"/>
		<circle class="st0" cx="274.1" cy="42.2" r="0.9"/>
		<circle class="st0" cx="274.1" cy="232" r="0.9"/>
		<circle class="st0" cx="285.8" cy="54.1" r="0.9"/>
		<circle class="st0" cx="285.8" cy="220.1" r="0.9"/>
		<circle class="st0" cx="297.6" cy="77.7" r="0.9"/>
		<circle class="st0" cx="297.6" cy="65.9" r="0.9"/>
		<circle class="st0" cx="297.6" cy="208.2" r="0.9"/>
		<circle class="st0" cx="309.2" cy="89.6" r="0.9"/>
		<circle class="st0" cx="239.2" cy="89.6" r="0.9"/>
		<circle class="st0" cx="250.8" cy="77.7" r="0.9"/>
		
			<ellipse transform="matrix(9.019674e-02 -0.9959 0.9959 9.019674e-02 118.9018 285.5633)" class="st0" cx="215.7" cy="77.7" rx="0.9" ry="0.9"/>
		<circle class="st0" cx="227.5" cy="101.5" r="0.9"/>
		<circle class="st0" cx="309.2" cy="196.4" r="0.9"/>
		<circle class="st0" cx="285.8" cy="196.4" r="0.9"/>
		<circle class="st0" cx="274.1" cy="196.4" r="0.9"/>
		<circle class="st0" cx="320.9" cy="101.5" r="0.9"/>
		<circle class="st0" cx="320.9" cy="89.6" r="0.9"/>
		<circle class="st0" cx="320.9" cy="184.6" r="0.9"/>
		<circle class="st0" cx="309.2" cy="113.4" r="0.9"/>
		<circle class="st0" cx="332.5" cy="101.5" r="0.9"/>
		<circle class="st0" cx="332.5" cy="172.7" r="0.9"/>
		<circle class="st0" cx="332.5" cy="160.8" r="0.9"/>
		<circle class="st0" cx="309.2" cy="160.8" r="0.9"/>
		<circle class="st0" cx="285.8" cy="172.7" r="0.9"/>
		<circle class="st0" cx="297.6" cy="184.6" r="0.9"/>
		<circle class="st0" cx="297.6" cy="137.1" r="0.9"/>
		<circle class="st0" cx="285.8" cy="137.1" r="0.9"/>
		<circle class="st0" cx="332.5" cy="148.9" r="0.9"/>
		<circle class="st0" cx="320.9" cy="137" r="0.9"/>
		<circle class="st0" cx="332.5" cy="125.3" r="0.9"/>
		<circle class="st0" cx="344.2" cy="113.4" r="0.9"/>
		<circle class="st0" cx="344.2" cy="160.8" r="0.9"/>
		<circle class="st0" cx="355.8" cy="148.9" r="0.9"/>
		<circle class="st0" cx="344.2" cy="137.1" r="0.9"/>
		<circle class="st0" cx="344.2" cy="125.3" r="0.9"/>
		<path class="st0" d="M274.1,91.7c1.2,0,2.2-0.9,2.2-2.2c0-1.2-0.9-2.2-2.2-2.2s-2.2,0.9-2.2,2.2C272.1,90.8,273,91.7,274.1,91.7z
			 M274.1,88.7c0.6,0,0.9,0.5,0.9,0.9c0,0.6-0.5,0.9-0.9,0.9c-0.5,0-0.9-0.3-0.9-0.9C273.2,89.1,273.6,88.7,274.1,88.7z"/>
		<circle class="st0" cx="355.8" cy="137.1" r="0.9"/>
		<circle class="st0" cx="367.5" cy="137.1" r="0.9"/>
		<circle class="st0" cx="355.8" cy="125.3" r="0.9"/>
		<circle class="st0" cx="204.1" cy="65.9" r="2.2"/>
		<circle class="st0" cx="262.5" cy="77.7" r="2.2"/>
		<circle class="st0" cx="285.8" cy="89.6" r="2.2"/>
		<circle class="st0" cx="309.2" cy="77.7" r="2.2"/>
		<circle class="st0" cx="250.8" cy="89.6" r="2.2"/>
		<circle class="st0" cx="262.5" cy="89.6" r="2.2"/>
		<circle class="st0" cx="274.1" cy="101.5" r="2.2"/>
		<path class="st0" d="M283.7,101.5c0-0.8,0.3-1.4,0.9-1.7C284.1,100.1,283.7,100.7,283.7,101.5c0,0.8,0.3,1.4,0.9,1.7
			C284.1,102.9,283.7,102.2,283.7,101.5z"/>
		<path class="st0" d="M287.1,99.8c0.6,0.3,0.9,1.1,0.9,1.7c0,0.6-0.3,1.4-0.9,1.7c0.6-0.3,0.9-1.1,0.9-1.7
			C288,100.9,287.5,100.1,287.1,99.8z"/>
		<circle class="st0" cx="297.6" cy="113.4" r="2.2"/>
		<circle class="st0" cx="274.1" cy="113.4" r="2.2"/>
		<path class="st0" d="M285.8,115.5c1.2,0,2.2-0.9,2.2-2.2s-0.9-2.2-2.2-2.2s-2.2,0.9-2.2,2.2S284.6,115.5,285.8,115.5z
			 M285.8,112.4c0.6,0,0.9,0.5,0.9,0.9c0,0.6-0.5,0.9-0.9,0.9c-0.5,0-0.9-0.5-0.9-0.9C284.9,112.7,285.2,112.4,285.8,112.4z"/>
		<circle class="st0" cx="309.2" cy="125.3" r="2.2"/>
		<path class="st0" d="M309.2,139.2c1.2,0,2.2-0.9,2.2-2.2c0-1.2-0.9-2.2-2.2-2.2s-2.2,0.9-2.2,2.2
			C307,138.2,308.1,139.2,309.2,139.2z M309.2,136.1c0.6,0,0.9,0.5,0.9,0.9s-0.5,0.9-0.9,0.9c-0.6,0-0.9-0.5-0.9-0.9
			S308.7,136.1,309.2,136.1z"/>
		<circle class="st0" cx="320.9" cy="148.9" r="2.2"/>
		<circle class="st0" cx="309.2" cy="148.9" r="2.2"/>
		<circle class="st0" cx="297.6" cy="148.9" r="2.2"/>
		<circle class="st0" cx="285.8" cy="125.3" r="2.2"/>
		<circle class="st0" cx="274.1" cy="137.1" r="2.2"/>
		<circle class="st0" cx="262.5" cy="148.9" r="2.2"/>
		<circle class="st0" cx="262.4" cy="125.3" r="2.2"/>
		<circle class="st0" cx="227.5" cy="125.3" r="2.2"/>
		<circle class="st0" cx="215.9" cy="113.4" r="2.2"/>
		<circle class="st0" cx="250.8" cy="113.4" r="2.2"/>
		<circle class="st0" cx="239.2" cy="101.5" r="2.2"/>
		<path class="st0" d="M204.1,84.3c-2.9,0-5.3,2.3-5.3,5.3c0,2.9,2.3,5.3,5.3,5.3s5.3-2.3,5.3-5.3C209.4,86.6,207.1,84.3,204.1,84.3
			z M204.1,91.7c-1.2,0-2.2-0.9-2.2-2.2c0-1.2,0.9-2.2,2.2-2.2s2.2,0.9,2.2,2.2C206.3,90.8,205.4,91.7,204.1,91.7z"/>
	</g>
</g>
<path class="st1" d="M18.9,308.2h24.6v2H32.2v31.5h-2v-31.6H18.9V308.2z"/>
<path class="st1" d="M47.4,308.2h2v15.7H72v-15.7h2v33.4h-2v-15.8H49.4v15.8h-2V308.2z"/>
<path class="st1" d="M83.1,308.2h21.6v2H85.1v13.3h17.4v2H85.1v14.2h20.2v2H83.1V308.2z"/>
<path class="st1" d="M136.5,293.6h11.7V344h26.3v10.5h-38V293.6z"/>
<path class="st1" d="M232.8,354.5l-5.4-12.9h-29.8l-5.4,12.9h-12.1l26.7-60.9h12.1l26.4,60.9H232.8z M201.8,331.6h21.4L212.6,306
	L201.8,331.6z"/>
<path class="st1" d="M294.9,297.7c3.7,2.7,5.6,6.4,5.6,11.1c0,3.4-0.9,6.3-2.8,8.7s-4.5,4-7.8,4.8c4.1,0.8,7.2,2.5,9.5,5.2
	s3.4,6.1,3.4,10.2c0,5.2-2,9.3-6,12.3s-9.5,4.5-16.5,4.5h-27.9v-60.9h27.1C286.1,293.6,291.2,295,294.9,297.7z M286.1,316.5
	c1.7-1.3,2.6-3.2,2.6-5.6c0-2.3-0.9-4.1-2.6-5.4s-4.1-1.9-7.1-1.8h-14.8v14.8H279C282,318.5,284.4,317.8,286.1,316.5z M287.7,342.3
	c2.1-1.4,3.1-3.5,3.1-6.1c0-2.5-1-4.5-3.1-5.9c-2.1-1.4-5-2.1-8.7-2h-14.8v16.1H279C282.7,344.5,285.6,343.8,287.7,342.3z"/>
<path class="st1" d="M365.8,334.2c0.5,0.6,1.1,0.9,1.9,0.9c0.9,0,1.7-0.4,2.5-1.2c0.7-0.8,1.3-1.9,1.8-3.3c0.4-1.4,0.6-3.1,0.6-4.9
	c0-3.3-0.7-6.3-2.2-8.9c-1.5-2.6-3.5-4.7-6.2-6.2c-2.6-1.5-5.6-2.3-9-2.3c-3.3,0-6.3,0.8-9.1,2.3c-2.7,1.5-4.9,3.6-6.4,6.2
	c-1.6,2.7-2.3,5.6-2.3,8.9c0,3.2,0.7,6,2.2,8.5s3.6,4.5,6.2,5.9s5.6,2.2,8.8,2.2c1.3,0,2.7-0.2,4.3-0.6c1.5-0.4,2.8-1,3.9-1.7l1.1,2
	c-1.2,0.8-2.7,1.4-4.4,1.8c-1.7,0.5-3.4,0.7-4.9,0.7c-3.7,0-7-0.8-10-2.4s-5.3-3.9-7-6.8c-1.7-2.9-2.5-6.1-2.5-9.7
	c0-3.7,0.9-7,2.6-10c1.8-3,4.2-5.3,7.2-7c3.1-1.7,6.5-2.5,10.3-2.5c3.7,0,7.1,0.8,10.1,2.5c3,1.7,5.3,4,7,7s2.5,6.3,2.5,10
	c0,2.3-0.3,4.3-0.9,6.1c-0.6,1.7-1.5,3.1-2.6,4c-1.1,1-2.4,1.4-3.9,1.4c-1.3,0-2.3-0.4-3.1-1.1s-1.3-1.8-1.4-3.1v-1.8
	c-0.9,1.7-2.1,3-3.6,3.9c-1.6,0.9-3.3,1.4-5.3,1.4s-3.7-0.5-5.4-1.4c-1.6-0.9-2.9-2.2-3.8-3.9c-1-1.7-1.4-3.5-1.4-5.6
	c0-2,0.4-3.9,1.3-5.6c0.9-1.7,2.1-3,3.7-3.9c1.6-1,3.4-1.4,5.4-1.4s3.8,0.5,5.4,1.5c1.6,1,2.6,2.1,3.2,3.5v-4.7h2.8v17
	C365,332.9,365.3,333.6,365.8,334.2z M350,318.3c-1.2,0.7-2.1,1.7-2.8,2.9c-0.7,1.2-1,2.6-1,4.2s0.3,3,1,4.2c0.7,1.3,1.6,2.3,2.8,3
	c1.2,0.7,2.5,1.1,4.1,1.1s2.9-0.4,4.1-1.1c1.2-0.7,2.1-1.7,2.8-3c0.7-1.3,1-2.7,1-4.3c0-1.6-0.3-2.9-1-4.2c-0.7-1.2-1.6-2.2-2.8-2.9
	c-1.2-0.7-2.6-1.1-4.2-1.1C352.6,317.2,351.2,317.6,350,318.3z"/>
<path class="st1" d="M447.1,297.6c4.8,2.7,8.6,6.4,11.4,11.1c2.8,4.7,4.2,9.8,4.2,15.4c0,5.5-1.4,10.6-4.2,15.3
	c-2.8,4.7-6.6,8.4-11.4,11.1c-4.8,2.7-10.1,4.1-15.8,4.1h-24.2v-61h24.2C437,293.6,442.3,294.9,447.1,297.6z M445.1,347.3
	c4.2-2.4,7.6-5.7,10-9.8c2.5-4.1,3.7-8.6,3.7-13.5s-1.2-9.5-3.7-13.6s-5.8-7.4-10-9.8s-8.9-3.6-13.9-3.6h-20.5v53.8h20.6
	C436.3,350.9,440.9,349.7,445.1,347.3z"/>
<path class="st1" d="M513.8,298.6c-3.3-1.3-6.8-2-10.4-2c-5.1,0-9.7,1.2-14,3.7c-4.3,2.4-7.7,5.8-10.2,9.9
	c-2.5,4.2-3.8,8.8-3.8,13.7s1.2,9.5,3.8,13.7c2.5,4.2,5.9,7.5,10.2,10s8.9,3.7,14,3.7c3.6,0,7-0.7,10.3-2s6.2-3.2,8.9-5.5l2.3,2.5
	c-2.8,2.7-6.1,4.8-9.9,6.3c-3.8,1.5-7.6,2.3-11.6,2.3c-5.7,0-11-1.4-15.8-4.1c-4.8-2.8-8.6-6.5-11.5-11.3c-2.8-4.7-4.2-9.9-4.2-15.5
	c0-5.6,1.4-10.7,4.2-15.5c2.8-4.7,6.6-8.5,11.5-11.3c4.8-2.8,10.1-4.1,15.8-4.1c4,0,7.9,0.7,11.6,2.2c3.7,1.5,7,3.5,9.9,6.1
	l-2.2,2.8C520.1,301.8,517.1,300,513.8,298.6z"/>
<path class="st1" d="M18.9,308.2h24.6v2H32.2v31.5h-2v-31.6H18.9V308.2z"/>
<path class="st1" d="M47.4,308.2h2v15.7H72v-15.7h2v33.4h-2v-15.8H49.4v15.8h-2V308.2z"/>
<path class="st1" d="M83.1,308.2h21.6v2H85.1v13.3h17.4v2H85.1v14.2h20.2v2H83.1V308.2z"/>
<path class="st1" d="M136.5,293.6h11.7V344h26.3v10.5h-38V293.6z"/>
<path class="st1" d="M232.8,354.5l-5.4-12.9h-29.8l-5.4,12.9h-12.1l26.7-60.9h12.1l26.4,60.9H232.8z M201.8,331.6h21.4L212.6,306
	L201.8,331.6z"/>
<path class="st1" d="M294.9,297.7c3.7,2.7,5.6,6.4,5.6,11.1c0,3.4-0.9,6.3-2.8,8.7s-4.5,4-7.8,4.8c4.1,0.8,7.2,2.5,9.5,5.2
	s3.4,6.1,3.4,10.2c0,5.2-2,9.3-6,12.3s-9.5,4.5-16.5,4.5h-27.9v-60.9h27.1C286.1,293.6,291.2,295,294.9,297.7z M286.1,316.5
	c1.7-1.3,2.6-3.2,2.6-5.6c0-2.3-0.9-4.1-2.6-5.4s-4.1-1.9-7.1-1.8h-14.8v14.8H279C282,318.5,284.4,317.8,286.1,316.5z M287.7,342.3
	c2.1-1.4,3.1-3.5,3.1-6.1c0-2.5-1-4.5-3.1-5.9c-2.1-1.4-5-2.1-8.7-2h-14.8v16.1H279C282.7,344.5,285.6,343.8,287.7,342.3z"/>
<path class="st1" d="M365.8,334.2c0.5,0.6,1.1,0.9,1.9,0.9c0.9,0,1.7-0.4,2.5-1.2c0.7-0.8,1.3-1.9,1.8-3.3c0.4-1.4,0.6-3.1,0.6-4.9
	c0-3.3-0.7-6.3-2.2-8.9c-1.5-2.6-3.5-4.7-6.2-6.2c-2.6-1.5-5.6-2.3-9-2.3c-3.3,0-6.3,0.8-9.1,2.3c-2.7,1.5-4.9,3.6-6.4,6.2
	c-1.6,2.7-2.3,5.6-2.3,8.9c0,3.2,0.7,6,2.2,8.5s3.6,4.5,6.2,5.9s5.6,2.2,8.8,2.2c1.3,0,2.7-0.2,4.3-0.6c1.5-0.4,2.8-1,3.9-1.7l1.1,2
	c-1.2,0.8-2.7,1.4-4.4,1.8c-1.7,0.5-3.4,0.7-4.9,0.7c-3.7,0-7-0.8-10-2.4s-5.3-3.9-7-6.8c-1.7-2.9-2.5-6.1-2.5-9.7
	c0-3.7,0.9-7,2.6-10c1.8-3,4.2-5.3,7.2-7c3.1-1.7,6.5-2.5,10.3-2.5c3.7,0,7.1,0.8,10.1,2.5c3,1.7,5.3,4,7,7s2.5,6.3,2.5,10
	c0,2.3-0.3,4.3-0.9,6.1c-0.6,1.7-1.5,3.1-2.6,4c-1.1,1-2.4,1.4-3.9,1.4c-1.3,0-2.3-0.4-3.1-1.1s-1.3-1.8-1.4-3.1v-1.8
	c-0.9,1.7-2.1,3-3.6,3.9c-1.6,0.9-3.3,1.4-5.3,1.4s-3.7-0.5-5.4-1.4c-1.6-0.9-2.9-2.2-3.8-3.9c-1-1.7-1.4-3.5-1.4-5.6
	c0-2,0.4-3.9,1.3-5.6c0.9-1.7,2.1-3,3.7-3.9c1.6-1,3.4-1.4,5.4-1.4s3.8,0.5,5.4,1.5c1.6,1,2.6,2.1,3.2,3.5v-4.7h2.8v17
	C365,332.9,365.3,333.6,365.8,334.2z M350,318.3c-1.2,0.7-2.1,1.7-2.8,2.9c-0.7,1.2-1,2.6-1,4.2s0.3,3,1,4.2c0.7,1.3,1.6,2.3,2.8,3
	c1.2,0.7,2.5,1.1,4.1,1.1s2.9-0.4,4.1-1.1c1.2-0.7,2.1-1.7,2.8-3c0.7-1.3,1-2.7,1-4.3c0-1.6-0.3-2.9-1-4.2c-0.7-1.2-1.6-2.2-2.8-2.9
	c-1.2-0.7-2.6-1.1-4.2-1.1C352.6,317.2,351.2,317.6,350,318.3z"/>
<path class="st1" d="M447.1,297.6c4.8,2.7,8.6,6.4,11.4,11.1c2.8,4.7,4.2,9.8,4.2,15.4c0,5.5-1.4,10.6-4.2,15.3
	c-2.8,4.7-6.6,8.4-11.4,11.1c-4.8,2.7-10.1,4.1-15.8,4.1h-24.2v-61h24.2C437,293.6,442.3,294.9,447.1,297.6z M445.1,347.3
	c4.2-2.4,7.6-5.7,10-9.8c2.5-4.1,3.7-8.6,3.7-13.5s-1.2-9.5-3.7-13.6s-5.8-7.4-10-9.8s-8.9-3.6-13.9-3.6h-20.5v53.8h20.6
	C436.3,350.9,440.9,349.7,445.1,347.3z"/>
<path class="st1" d="M513.8,298.6c-3.3-1.3-6.8-2-10.4-2c-5.1,0-9.7,1.2-14,3.7c-4.3,2.4-7.7,5.8-10.2,9.9
	c-2.5,4.2-3.8,8.8-3.8,13.7s1.2,9.5,3.8,13.7c2.5,4.2,5.9,7.5,10.2,10s8.9,3.7,14,3.7c3.6,0,7-0.7,10.3-2s6.2-3.2,8.9-5.5l2.3,2.5
	c-2.8,2.7-6.1,4.8-9.9,6.3c-3.8,1.5-7.6,2.3-11.6,2.3c-5.7,0-11-1.4-15.8-4.1c-4.8-2.8-8.6-6.5-11.5-11.3c-2.8-4.7-4.2-9.9-4.2-15.5
	c0-5.6,1.4-10.7,4.2-15.5c2.8-4.7,6.6-8.5,11.5-11.3c4.8-2.8,10.1-4.1,15.8-4.1c4,0,7.9,0.7,11.6,2.2c3.7,1.5,7,3.5,9.9,6.1
	l-2.2,2.8C520.1,301.8,517.1,300,513.8,298.6z"/>
</svg>
