<svg id="Camada_1" xmlns="http://www.w3.org/2000/svg" viewBox="0 0 500 180"><style>.st0{fill:#fff}</style><path class="st0" d="M189.1 100.8V81.2h-6.5v-.7h14.5v.7h-6.5v19.6h-1.5zm25.5 0V90.6h-13.8v10.2h-.7V80.4h.7v9.4h13.8v-9.4h.7v20.4h-.7zm6.5 0V80.4h13.1v.7h-11.6v8.7h10.9v.7h-10.9v8.7h11.6v1.5h-13.1v.1zm32.7 8V71.7h6.5V103h16v5.8h-22.5zm56.8 0l-2.7-7.3h-17l-2.7 7.3h-7.4l14.6-37.1h8.1l14.6 37.1h-7.5zM299.3 78l-6.7 17.7H306L299.3 78zm25 30.8V71.7h18.4c6.8 0 10.6 4.1 10.6 9.3 0 4.7-3 7.7-6.4 8.4 3.9.6 7.2 4.6 7.2 9.2 0 5.7-3.8 10.1-10.8 10.1h-19v.1zm22.4-26.5c0-2.8-1.9-4.8-5.2-4.8h-10.6V87h10.6c3.3 0 5.2-1.9 5.2-4.7zm.7 15.6c0-2.8-1.9-5.1-5.7-5.1h-10.9V103h10.9c3.6 0 5.7-1.9 5.7-5.1zm27.7-5.5c0-7.3 6.3-13.2 13.3-13.2 6.2 0 10.5 4.8 10.5 10.9 0 4.9-2.2 7.5-4.9 7.5-1.8 0-2.7-1.4-2.7-2.9v-.2c-1.5 1.6-3.4 3.1-5.8 3.1-3 0-5.1-2-5.1-5.3 0-4.8 4.1-8.6 8.1-8.6 2.3 0 3.8 1.5 4.4 3.1l.5-2.1h1l-2.1 9.6v.5c0 1.2.8 1.9 1.8 1.9 1.3 0 4.1-1.4 4.1-6.7 0-5.6-3.9-9.9-9.7-9.9-6.6 0-12.2 5.8-12.2 12.1 0 5.4 4.1 9.5 9.7 9.5 2.5 0 4.5-.8 6.3-1.9l.5.8c-2.1 1.3-4.5 2.1-6.9 2.1-6.3.2-10.8-4.4-10.8-10.3zm16.1.7l1.1-5.2c-.4-1.3-1.7-3.1-4.1-3.1-3.9 0-7 3.8-7 7.7 0 2.5 1.4 4.4 4 4.4 2.7-.1 4.9-2.1 6-3.8zm27.6 15V71.7h10.5c11.2 0 18 8.6 18 18.2 0 9.7-6.8 18.1-18 18.1h-10.5v.1zm26.6-18.2c0-9-5.8-16.7-16.1-16.7h-9v33.4h9c10.2 0 16.1-7.5 16.1-16.7zm9 0c0-11.1 8-18.7 18-18.7 5.1 0 9.4 2 12.6 5.7l-1.4 1.2c-2.5-3.2-6.7-5.3-11.2-5.3-9 0-16.1 6.9-16.1 17.1 0 10.1 7.1 17.1 16.1 17.1 4.5 0 8.7-2.1 11.2-5.3l1.4 1.1c-3.4 3.8-7.5 5.7-12.6 5.7-10 .1-18-7.5-18-18.6zM91.2 66c-1.9 0-3.4 1.5-3.4 3.4s1.5 3.4 3.4 3.4 3.4-1.5 3.4-3.4-1.5-3.4-3.4-3.4zm.8 4.6c-.2.1-.5.2-.8.2s-.5-.1-.8-.2c-.4-.2-.6-.7-.6-1.1s.2-.9.6-1.1c.2-.1.5-.2.8-.2s.5.1.8.2c.4.2.6.7.6 1.1s-.3.8-.6 1.1z"/><circle class="st0" cx="83.6" cy="84.8" r="3.4"/><circle class="st0" cx="121.4" cy="92.5" r="3.4"/><path class="st0" d="M121.4 73.7c-1.9 0-3.4 1.5-3.4 3.4s1.5 3.4 3.4 3.4 3.4-1.5 3.4-3.4-1.5-3.4-3.4-3.4zm.8 4.5c-.2.1-.5.2-.8.2s-.5-.1-.8-.2c-.4-.2-.6-.7-.6-1.1s.2-.9.6-1.1c.2-.1.5-.2.8-.2s.5.1.8.2c.4.2.6.7.6 1.1s-.2.9-.6 1.1zm-23.4 3.1c-1.9 0-3.4 1.5-3.4 3.4s1.5 3.4 3.4 3.4 3.4-1.5 3.4-3.4c0-1.8-1.5-3.4-3.4-3.4zm0 4.1c-.4 0-.6-.3-.6-.6 0-.4.3-.6.6-.6.4 0 .6.3.6.6s-.3.6-.6.6zm-7.6-42.5c-1.9 0-3.4 1.5-3.4 3.4s1.5 3.4 3.4 3.4 3.4-1.5 3.4-3.4-1.5-3.4-3.4-3.4zm0 4.1c-.4 0-.6-.3-.6-.6 0-.4.3-.6.6-.6s.6.3.6.6-.3.6-.6.6z"/><circle class="st0" cx="83.6" cy="100.1" r="3.4"/><path class="st0" d="M91.2 104.4c-1.9 0-3.4 1.5-3.4 3.4s1.5 3.4 3.4 3.4 3.4-1.5 3.4-3.4-1.5-3.4-3.4-3.4zm0 4.1c-.4 0-.6-.3-.6-.6 0-.4.3-.6.6-.6s.6.3.6.6-.3.6-.6.6zM136.5 89c-1.9 0-3.4 1.5-3.4 3.4s1.5 3.4 3.4 3.4 3.4-1.5 3.4-3.4c.1-1.8-1.5-3.4-3.4-3.4zm0 4.1c-.4 0-.6-.3-.6-.6s.3-.6.6-.6c.4 0 .6.3.6.6s-.2.6-.6.6zm-7.5 3.6c-1.9 0-3.4 1.5-3.4 3.4s1.5 3.4 3.4 3.4 3.4-1.5 3.4-3.4-1.5-3.4-3.4-3.4zm0 4.1c-.4 0-.6-.3-.6-.6 0-.4.3-.6.6-.6s.6.3.6.6-.3.6-.6.6zm-45.4 19c-1.9 0-3.4 1.5-3.4 3.4s1.5 3.4 3.4 3.4 3.4-1.5 3.4-3.4c.1-1.9-1.5-3.4-3.4-3.4zm0 4c-.4 0-.6-.3-.6-.6 0-.4.3-.6.6-.6s.6.3.6.6c.1.3-.2.6-.6.6z"/><circle class="st0" cx="98.8" cy="107.8" r="3.4"/><path class="st0" d="M106.3 96.7c-1.9 0-3.4 1.5-3.4 3.4s1.5 3.4 3.4 3.4 3.4-1.5 3.4-3.4-1.5-3.4-3.4-3.4zm0 4.8c-.8 0-1.4-.6-1.4-1.4s.6-1.4 1.4-1.4 1.4.6 1.4 1.4-.6 1.4-1.4 1.4zM76.1 73.7c-1.9 0-3.4 1.5-3.4 3.4s1.5 3.4 3.4 3.4 3.4-1.5 3.4-3.4-1.5-3.4-3.4-3.4zm0 4c-.4 0-.6-.3-.6-.6 0-.4.3-.6.6-.6s.6.3.6.6-.3.6-.6.6z"/><circle class="st0" cx="68.5" cy="84.8" r="3.4"/><circle class="st0" cx="68.5" cy="69.4" r="3.4"/><circle class="st0" cx="83.7" cy="53.9" r="3.4"/><circle class="st0" cx="61" cy="77.1" r="3.4"/><path class="st0" d="M68.5 26.7c1.9 0 3.4-1.5 3.4-3.4s-1.5-3.4-3.4-3.4-3.4 1.5-3.4 3.4 1.5 3.4 3.4 3.4zm0-4c.4 0 .6.3.6.6 0 .4-.3.6-.6.6-.4 0-.6-.3-.6-.6s.2-.6.6-.6zM45.9 66c-1.9 0-3.4 1.5-3.4 3.4s1.5 3.4 3.4 3.4 3.4-1.5 3.4-3.4-1.5-3.4-3.4-3.4zm0 4.1c-.4 0-.6-.3-.6-.6 0-.4.3-.6.6-.6s.6.3.6.6-.3.6-.6.6zM30.7 66c-1.9 0-3.4 1.5-3.4 3.4s1.5 3.4 3.4 3.4 3.4-1.5 3.4-3.4c.1-1.9-1.5-3.4-3.4-3.4zm0 4.8c-.8 0-1.4-.6-1.4-1.4S30 68 30.7 68c.8 0 1.4.6 1.4 1.4s-.6 1.4-1.4 1.4zm7.6 2.9c-1.9 0-3.4 1.5-3.4 3.4s1.5 3.4 3.4 3.4 3.4-1.5 3.4-3.4-1.5-3.4-3.4-3.4zm0 4.8c-.8 0-1.4-.6-1.4-1.4s.6-1.4 1.4-1.4 1.4.6 1.4 1.4-.6 1.4-1.4 1.4zm15.1-4.8c-1.9 0-3.4 1.5-3.4 3.4s1.5 3.4 3.4 3.4 3.4-1.5 3.4-3.4c.1-1.9-1.5-3.4-3.4-3.4zm0 4.8c-.8 0-1.4-.6-1.4-1.4s.6-1.4 1.4-1.4c.8 0 1.4.6 1.4 1.4s-.6 1.4-1.4 1.4zM113.9 66c-1.9 0-3.4 1.5-3.4 3.4s1.5 3.4 3.4 3.4 3.4-1.5 3.4-3.4-1.5-3.4-3.4-3.4zm0 4.1c-.4 0-.6-.3-.6-.6 0-.4.3-.6.6-.6.4 0 .6.3.6.6s-.3.6-.6.6zm-68 11.2c-1.9 0-3.4 1.5-3.4 3.4s1.5 3.4 3.4 3.4 3.4-1.5 3.4-3.4c0-1.8-1.5-3.4-3.4-3.4zm0 4.1c-.4 0-.6-.3-.6-.6 0-.4.3-.6.6-.6s.6.3.6.6-.3.6-.6.6zM68.5 89c-1.9 0-3.4 1.5-3.4 3.4s1.5 3.4 3.4 3.4 3.4-1.5 3.4-3.4c.1-1.8-1.5-3.4-3.4-3.4zm0 4.8c-.8 0-1.4-.6-1.4-1.4s.6-1.4 1.4-1.4 1.4.6 1.4 1.4c0 .8-.6 1.4-1.4 1.4zM53.4 89c-1.9 0-3.4 1.5-3.4 3.4s1.5 3.4 3.4 3.4 3.4-1.5 3.4-3.4c.1-1.8-1.5-3.4-3.4-3.4zm0 4.1c-.4 0-.6-.3-.6-.6s.3-.6.6-.6.6.3.6.6-.2.6-.6.6z"/><circle class="st0" cx="68.5" cy="107.8" r="3.4"/><path class="st0" d="M76.1 112.1c-1.9 0-3.4 1.5-3.4 3.4s1.5 3.4 3.4 3.4 3.4-1.5 3.4-3.4-1.5-3.4-3.4-3.4zm0 4.8c-.8 0-1.4-.6-1.4-1.4s.6-1.4 1.4-1.4 1.4.6 1.4 1.4-.7 1.4-1.4 1.4z"/><circle class="st0" cx="76.1" cy="123.2" r="3.4"/><path class="st0" d="M68.5 127.4c-1.9 0-3.4 1.5-3.4 3.4s1.5 3.4 3.4 3.4 3.4-1.5 3.4-3.4c.1-1.8-1.5-3.4-3.4-3.4zm0 4.1c-.4 0-.6-.3-.6-.6 0-.4.3-.6.6-.6s.6.3.6.6c.1.3-.2.6-.6.6zm45.1-19.5c-1.9 0-3.4 1.5-3.4 3.4s1.5 3.4 3.4 3.4 3.4-1.5 3.4-3.4c.1-1.8-1.5-3.4-3.4-3.4zm.3 4.9c-.8 0-1.4-.6-1.4-1.4s.6-1.4 1.4-1.4 1.4.6 1.4 1.4-.7 1.4-1.4 1.4zm-30.3 18.2c-1.9 0-3.4 1.5-3.4 3.4s1.5 3.4 3.4 3.4 3.4-1.5 3.4-3.4c.1-1.8-1.5-3.4-3.4-3.4zm0 4.8c-.8 0-1.4-.6-1.4-1.4 0-.8.6-1.4 1.4-1.4s1.4.6 1.4 1.4c0 .8-.6 1.4-1.4 1.4zm15.2-27.8c-1.9 0-3.4 1.5-3.4 3.4s1.5 3.4 3.4 3.4 3.4-1.5 3.4-3.4-1.5-3.4-3.4-3.4zm0 4.8c-.8 0-1.4-.6-1.4-1.4s.6-1.4 1.4-1.4 1.4.6 1.4 1.4-.7 1.4-1.4 1.4zm0 10.5c-1.9 0-3.4 1.5-3.4 3.4s1.5 3.4 3.4 3.4 3.4-1.5 3.4-3.4c0-1.8-1.5-3.4-3.4-3.4zm0 4.8c-.8 0-1.4-.6-1.4-1.4 0-.8.6-1.4 1.4-1.4s1.4.6 1.4 1.4c-.1.8-.7 1.4-1.4 1.4z"/><circle class="st0" cx="91.2" cy="138.5" r="3.4"/><path class="st0" d="M68.5 158.1c-1.9 0-3.4 1.5-3.4 3.4s1.5 3.4 3.4 3.4 3.4-1.5 3.4-3.4-1.5-3.4-3.4-3.4zm0 4.1c-.4 0-.6-.3-.6-.6 0-.4.3-.6.6-.6s.6.3.6.6c.1.3-.2.6-.6.6zM61 112.1c-1.9 0-3.4 1.5-3.4 3.4s1.5 3.4 3.4 3.4 3.4-1.5 3.4-3.4-1.5-3.4-3.4-3.4zm0 4c-.4 0-.6-.3-.6-.6 0-.4.3-.6.6-.6.4 0 .6.3.6.6 0 .4-.3.6-.6.6zm7.5-73.2c-1.9 0-3.4 1.5-3.4 3.4s1.5 3.4 3.4 3.4 3.4-1.5 3.4-3.4-1.5-3.4-3.4-3.4zm0 4.8c-.8 0-1.4-.6-1.4-1.4 0-.8.6-1.4 1.4-1.4s1.4.6 1.4 1.4c0 .8-.6 1.4-1.4 1.4zM23.2 66c-1.9 0-3.4 1.5-3.4 3.4s1.5 3.4 3.4 3.4 3.4-1.5 3.4-3.4-1.5-3.4-3.4-3.4zm0 4.1c-.4 0-.6-.3-.6-.6 0-.4.3-.6.6-.6.4 0 .6.3.6.6s-.3.6-.6.6zm30.2-4.9c1.9 0 3.4-1.5 3.4-3.4s-1.5-3.4-3.4-3.4-3.4 1.5-3.4 3.4 1.5 3.4 3.4 3.4zm0-4.8c.8 0 1.4.6 1.4 1.4 0 .8-.6 1.4-1.4 1.4s-1.4-.6-1.4-1.4c.1-.8.7-1.4 1.4-1.4zm-7.5-10.6c1.9 0 3.4-1.5 3.4-3.4S47.8 43 45.9 43s-3.4 1.5-3.4 3.4 1.5 3.4 3.4 3.4zm0-4.8c.8 0 1.4.6 1.4 1.4 0 .8-.6 1.4-1.4 1.4-.8 0-1.4-.6-1.4-1.4s.6-1.4 1.4-1.4z"/><circle class="st0" cx="76.1" cy="46.4" r="1.4"/><path class="st0" d="M76.1 32.4c.8 0 1.4-.6 1.4-1.4s-.6-1.4-1.4-1.4-1.4.6-1.4 1.4c0 .8.6 1.4 1.4 1.4zm0-2c.4 0 .6.3.6.6 0 .4-.3.6-.6.6s-.6-.3-.6-.6c-.1-.3.2-.6.6-.6zm22.7 32.7c.8 0 1.4-.6 1.4-1.4 0-.8-.6-1.4-1.4-1.4s-1.4.6-1.4 1.4.6 1.4 1.4 1.4zm0-2c.4 0 .6.3.6.6 0 .4-.3.6-.6.6-.4 0-.6-.3-.6-.6-.1-.3.2-.6.6-.6z"/><circle class="st0" cx="98.8" cy="69.4" r="1.4"/><circle class="st0" cx="106.3" cy="69.4" r="1.4"/><circle class="st0" cx="113.9" cy="77.1" r="1.4"/><circle class="st0" cx="113.9" cy="84.8" r="1.4"/><path class="st0" d="M129 86.2c.8 0 1.4-.6 1.4-1.4s-.6-1.4-1.4-1.4-1.4.6-1.4 1.4c0 .7.6 1.4 1.4 1.4zm0-2.1c.4 0 .6.3.6.6 0 .4-.3.6-.6.6s-.6-.3-.6-.6c-.1-.3.2-.6.6-.6zm-15.1 25.1c.8 0 1.4-.6 1.4-1.4s-.6-1.4-1.4-1.4-1.4.6-1.4 1.4.6 1.4 1.4 1.4zm0-2c.4 0 .6.3.6.6 0 .4-.3.6-.6.6-.4 0-.6-.3-.6-.6-.1-.3.2-.6.6-.6zm22.7-8.5c-.8 0-1.4.6-1.4 1.4s.6 1.4 1.4 1.4 1.4-.6 1.4-1.4c0-.8-.7-1.4-1.4-1.4zm-.1 2.1c-.4 0-.6-.3-.6-.6 0-.4.3-.6.6-.6.4 0 .6.3.6.6.1.3-.2.6-.6.6zm-15.1 5.6c-.8 0-1.4.6-1.4 1.4s.6 1.4 1.4 1.4 1.4-.6 1.4-1.4-.6-1.4-1.4-1.4zm0 2.1c-.4 0-.6-.3-.6-.6 0-.4.3-.6.6-.6s.6.3.6.6c.1.3-.2.6-.6.6z"/><circle class="st0" cx="106.3" cy="115.5" r="1.4"/><path class="st0" d="M106.3 121.8c-.8 0-1.4.6-1.4 1.4s.6 1.4 1.4 1.4 1.4-.6 1.4-1.4c0-.8-.6-1.4-1.4-1.4zm0 2c-.4 0-.6-.3-.6-.6 0-.4.3-.6.6-.6.4 0 .6.3.6.6.1.3-.2.6-.6.6zm0 5.7c-.8 0-1.4.6-1.4 1.4 0 .8.6 1.4 1.4 1.4s1.4-.6 1.4-1.4c0-.8-.6-1.4-1.4-1.4zm0 2c-.4 0-.6-.3-.6-.6 0-.4.3-.6.6-.6.4 0 .6.3.6.6.1.3-.2.6-.6.6zm-15.1.7c.8 0 1.4-.6 1.4-1.4 0-.8-.6-1.4-1.4-1.4s-1.4.6-1.4 1.4c0 .8.6 1.4 1.4 1.4zm0-2c.4 0 .6.3.6.6 0 .4-.3.6-.6.6s-.6-.3-.6-.6.2-.6.6-.6z"/><circle class="st0" cx="91.2" cy="123.2" r="1.4"/><path class="st0" d="M98.8 137.2c-.8 0-1.4.6-1.4 1.4 0 .8.6 1.4 1.4 1.4s1.4-.6 1.4-1.4c-.1-.8-.7-1.4-1.4-1.4zm0 2c-.4 0-.6-.3-.6-.6 0-.4.3-.6.6-.6.4 0 .6.3.6.6s-.3.6-.6.6z"/><circle class="st0" cx="113.9" cy="115.5" r="1.4"/><path class="st0" d="M113.9 121.8c-.8 0-1.4.6-1.4 1.4s.6 1.4 1.4 1.4 1.4-.6 1.4-1.4-.7-1.4-1.4-1.4zm0 2c-.4 0-.6-.3-.6-.6 0-.4.3-.6.6-.6.4 0 .6.3.6.6s-.3.6-.6.6zm8.3-47.8c.4.2.6.7.6 1.1s-.2.9-.6 1.1c.4-.2.6-.7.6-1.1s-.2-.9-.6-1.1zm-2.2 1.1c0-.5.2-.9.6-1.1-.3.2-.6.6-.6 1.1s.2.9.6 1.1c-.3-.2-.6-.6-.6-1.1zm-36.4-37c.8 0 1.4-.6 1.4-1.4 0-.8-.6-1.4-1.4-1.4s-1.4.6-1.4 1.4c.1.7.7 1.4 1.4 1.4zm0-2.1c.4 0 .6.3.6.6 0 .4-.3.6-.6.6s-.6-.2-.6-.5c0-.4.3-.7.6-.7z"/><circle class="st0" cx="91.2" cy="54" r="1.4"/><circle class="st0" cx="53.4" cy="46.4" r="1.4"/><path class="st0" d="M53.4 40.1c.8 0 1.4-.6 1.4-1.4 0-.8-.6-1.4-1.4-1.4-.8 0-1.4.6-1.4 1.4 0 .7.7 1.4 1.4 1.4zm0-2.1c.4 0 .6.3.6.6 0 .4-.3.6-.6.6s-.6-.3-.6-.6.3-.6.6-.6z"/><circle class="st0" cx="45.9" cy="46.4" r="1.4"/><circle class="st0" cx="45.9" cy="61.7" r="1.4"/><path class="st0" d="M67.1 38.7c0 .8.6 1.4 1.4 1.4s1.4-.6 1.4-1.4c0-.8-.6-1.4-1.4-1.4s-1.4.6-1.4 1.4zm1.4-.7c.4 0 .6.3.6.6 0 .4-.3.6-.6.6s-.6-.3-.6-.6.3-.6.6-.6z"/><circle class="st0" cx="61" cy="46.4" r="1.4"/><circle class="st0" cx="38.3" cy="54" r="1.4"/><circle class="st0" cx="68.5" cy="100.1" r="1.4"/><path class="st0" d="M53.4 98.8c-.8 0-1.4.6-1.4 1.4s.6 1.4 1.4 1.4c.8 0 1.4-.6 1.4-1.4s-.6-1.4-1.4-1.4zm0 2c-.4 0-.6-.3-.6-.6 0-.4.3-.6.6-.6s.6.3.6.6c.1.3-.2.6-.6.6z"/><circle class="st0" cx="76.1" cy="107.8" r="1.4"/><circle class="st0" cx="76.1" cy="130.9" r="1.4"/><circle class="st0" cx="76.1" cy="138.5" r="1.4"/><circle class="st0" cx="83.6" cy="146.2" r="1.4"/><circle class="st0" cx="76.1" cy="153.9" r="1.4"/><circle class="st0" cx="68.5" cy="146.2" r="1.4"/><circle class="st0" cx="83.6" cy="115.5" r="1.4"/><circle class="st0" cx="68.5" cy="123.2" r="1.4"/><circle class="st0" cx="61" cy="92.5" r="1.4"/><circle class="st0" cx="23.2" cy="61.7" r="1.4"/><circle class="st0" cx="23.2" cy="77.1" r="1.4"/><path class="st0" d="M30.7 55.4c.8 0 1.4-.6 1.4-1.4 0-.8-.6-1.4-1.4-1.4s-1.4.6-1.4 1.4c.1.8.7 1.4 1.4 1.4zm0-2c.4 0 .6.3.6.6 0 .4-.3.6-.6.6-.4 0-.6-.3-.6-.6s.3-.6.6-.6z"/><circle class="st0" cx="61" cy="54" r="1.4"/><path class="st0" d="M53.4 55.4c.8 0 1.4-.6 1.4-1.4 0-.8-.6-1.4-1.4-1.4-.8 0-1.4.6-1.4 1.4 0 .8.7 1.4 1.4 1.4zm0-2c.4 0 .6.3.6.6 0 .4-.3.6-.6.6s-.6-.3-.6-.6.3-.6.6-.6z"/><circle class="st0" cx="15.6" cy="69.4" r=".6"/><path class="st0" d="M30.7 54.7c-.4 0-.6-.3-.6-.6 0-.4.3-.6.6-.6-.4 0-.6.3-.6.6s.3.6.6.6z"/><circle class="st0" cx="30.7" cy="84.8" r=".6"/><circle class="st0" cx="30.7" cy="77.1" r=".6"/><circle class="st0" cx="45.9" cy="38.7" r=".6"/><circle class="st0" cx="38.3" cy="69.4" r=".6"/><circle class="st0" cx="30.7" cy="61.7" r=".6"/><circle class="st0" cx="53.4" cy="38.7" r=".6"/><circle class="st0" cx="53.4" cy="31" r=".6"/><circle class="st0" cx="76.1" cy="92.5" r=".6"/><circle class="st0" cx="61" cy="84.8" r=".6"/><circle class="st0" cx="76.1" cy="69.4" r=".6"/><circle class="st0" cx="38.3" cy="84.8" r=".6"/><circle class="st0" cx="45.9" cy="92.5" r=".6"/><circle class="st0" cx="61" cy="38.7" r=".6"/><circle class="st0" cx="61" cy="31" r="3.4"/><circle class="st0" cx="61" cy="23.3" r=".6"/><circle class="st0" cx="61" cy="107.8" r=".6"/><circle class="st0" cx="61" cy="100.1" r=".6"/><circle class="st0" cx="68.5" cy="38.7" r=".6"/><circle class="st0" cx="68.5" cy="31" r=".6"/><circle class="st0" cx="68.5" cy="15.6" r=".6"/><circle class="st0" cx="68.5" cy="138.5" r=".6"/><circle class="st0" cx="91.2" cy="100.1" r=".6"/><circle class="st0" cx="83.6" cy="107.8" r=".6"/><circle class="st0" cx="68.5" cy="115.5" r=".6"/><circle class="st0" cx="68.5" cy="153.9" r=".6"/><circle class="st0" cx="76.1" cy="38.7" r=".6"/><circle class="st0" cx="76.1" cy="31" r=".6"/><circle class="st0" cx="76.1" cy="23.3" r=".6"/><circle class="st0" cx="76.1" cy="146.2" r=".6"/><circle class="st0" cx="83.6" cy="46.4" r=".6"/><circle class="st0" cx="83.6" cy="38.7" r=".6"/><circle class="st0" cx="83.6" cy="31" r=".6"/><circle class="st0" cx="83.6" cy="153.9" r=".6"/><circle class="st0" cx="91.2" cy="38.7" r=".6"/><circle class="st0" cx="91.2" cy="146.2" r=".6"/><circle class="st0" cx="98.8" cy="54" r=".6"/><circle class="st0" cx="98.8" cy="46.4" r=".6"/><circle class="st0" cx="98.8" cy="138.5" r=".6"/><circle class="st0" cx="106.3" cy="61.7" r=".6"/><circle class="st0" cx="61" cy="61.7" r=".6"/><circle class="st0" cx="68.5" cy="54" r=".6"/><circle class="st0" cx="45.9" cy="54" r=".6"/><circle class="st0" cx="53.4" cy="69.4" r=".6"/><circle class="st0" cx="106.3" cy="130.9" r=".6"/><circle class="st0" cx="91.2" cy="130.9" r=".6"/><circle class="st0" cx="83.6" cy="130.9" r=".6"/><circle class="st0" cx="113.9" cy="69.4" r=".6"/><circle class="st0" cx="113.9" cy="61.7" r=".6"/><circle class="st0" cx="113.9" cy="123.2" r=".6"/><circle class="st0" cx="106.3" cy="77.1" r=".6"/><circle class="st0" cx="121.4" cy="69.4" r=".6"/><circle class="st0" cx="121.4" cy="115.5" r=".6"/><circle class="st0" cx="121.4" cy="107.8" r=".6"/><circle class="st0" cx="106.3" cy="107.8" r=".6"/><circle class="st0" cx="91.2" cy="115.5" r=".6"/><circle class="st0" cx="98.8" cy="123.2" r=".6"/><circle class="st0" cx="98.8" cy="92.5" r=".6"/><circle class="st0" cx="91.2" cy="92.5" r=".6"/><circle class="st0" cx="121.4" cy="100.1" r=".6"/><circle class="st0" cx="113.9" cy="92.4" r=".6"/><circle class="st0" cx="121.4" cy="84.8" r=".6"/><circle class="st0" cx="129" cy="77.1" r=".6"/><circle class="st0" cx="129" cy="107.8" r=".6"/><circle class="st0" cx="136.5" cy="100.1" r=".6"/><circle class="st0" cx="129" cy="92.5" r=".6"/><circle class="st0" cx="129" cy="84.8" r=".6"/><path class="st0" d="M83.6 63.1c.8 0 1.4-.6 1.4-1.4 0-.8-.6-1.4-1.4-1.4s-1.4.6-1.4 1.4c.1.8.7 1.4 1.4 1.4zm0-2c.4 0 .6.3.6.6 0 .4-.3.6-.6.6s-.6-.2-.6-.6c0-.3.3-.6.6-.6z"/><circle class="st0" cx="136.5" cy="92.5" r=".6"/><circle class="st0" cx="144.1" cy="92.5" r=".6"/><circle class="st0" cx="136.5" cy="84.8" r=".6"/><circle class="st0" cx="38.3" cy="46.4" r="1.4"/><circle class="st0" cx="76.1" cy="54" r="1.4"/><circle class="st0" cx="91.2" cy="61.7" r="1.4"/><circle class="st0" cx="106.3" cy="54" r="1.4"/><circle class="st0" cx="68.5" cy="61.7" r="1.4"/><circle class="st0" cx="76.1" cy="61.7" r="1.4"/><circle class="st0" cx="83.6" cy="69.4" r="1.4"/><path class="st0" d="M89.8 69.4c0-.5.2-.9.6-1.1-.3.2-.6.6-.6 1.1s.2.9.6 1.1c-.3-.2-.6-.6-.6-1.1zm2.2-1.1c.4.2.6.7.6 1.1s-.2.9-.6 1.1c.4-.2.6-.7.6-1.1s-.3-.9-.6-1.1z"/><circle class="st0" cx="98.8" cy="77.1" r="1.4"/><circle class="st0" cx="83.6" cy="77.1" r="1.4"/><path class="st0" d="M91.2 78.5c.8 0 1.4-.6 1.4-1.4s-.6-1.4-1.4-1.4-1.4.6-1.4 1.4.6 1.4 1.4 1.4zm0-2c.4 0 .6.3.6.6 0 .4-.3.6-.6.6s-.6-.3-.6-.6c0-.4.2-.6.6-.6z"/><circle class="st0" cx="106.3" cy="84.8" r="1.4"/><path class="st0" d="M106.3 93.8c.8 0 1.4-.6 1.4-1.4s-.6-1.4-1.4-1.4-1.4.6-1.4 1.4c0 .8.7 1.4 1.4 1.4zm0-2c.4 0 .6.3.6.6s-.3.6-.6.6c-.4 0-.6-.3-.6-.6s.3-.6.6-.6z"/><circle class="st0" cx="113.9" cy="100.1" r="1.4"/><circle class="st0" cx="106.3" cy="100.1" r="1.4"/><circle class="st0" cx="98.8" cy="100.1" r="1.4"/><circle class="st0" cx="91.2" cy="84.8" r="1.4"/><circle class="st0" cx="83.6" cy="92.5" r="1.4"/><circle class="st0" cx="76.1" cy="100.1" r="1.4"/><circle class="st0" cx="76" cy="84.8" r="1.4"/><circle class="st0" cx="53.4" cy="84.8" r="1.4"/><circle class="st0" cx="45.9" cy="77.1" r="1.4"/><circle class="st0" cx="68.5" cy="77.1" r="1.4"/><circle class="st0" cx="61" cy="69.4" r="1.4"/><path class="st0" d="M38.3 58.3c-1.9 0-3.4 1.5-3.4 3.4s1.5 3.4 3.4 3.4 3.4-1.5 3.4-3.4-1.5-3.4-3.4-3.4zm0 4.8c-.8 0-1.4-.6-1.4-1.4 0-.8.6-1.4 1.4-1.4s1.4.6 1.4 1.4-.6 1.4-1.4 1.4z"/></svg>