<svg version="1.1" id="Camada_1" xmlns="http://www.w3.org/2000/svg" x="0" y="0" viewBox="0 0 543 372" xml:space="preserve"><style>.st0{fill:#2b4888}.st1{fill:#454545}</style><path class="st0" d="M285.8 96.2c-2.9 0-5.3 2.3-5.3 5.3 0 2.9 2.3 5.3 5.3 5.3s5.3-2.3 5.3-5.3-2.3-5.3-5.3-5.3zm1.3 7.1c-.3.2-.8.3-1.2.3s-.8-.2-1.2-.3c-.6-.3-.9-1.1-.9-1.7 0-.6.3-1.4.9-1.7.3-.2.8-.3 1.2-.3s.8.2 1.2.3c.6.3.9 1.1.9 1.7 0 .6-.5 1.3-.9 1.7z"/><circle class="st0" cx="274.1" cy="125.3" r="5.3"/><circle class="st0" cx="332.5" cy="137.1" r="5.3"/><path class="st0" d="M332.5 108.1c-2.9 0-5.3 2.3-5.3 5.3 0 2.9 2.3 5.3 5.3 5.3 2.9 0 5.3-2.3 5.3-5.3-.1-3-2.4-5.3-5.3-5.3zm1.2 7c-.3.2-.8.3-1.2.3-.5 0-.8-.2-1.2-.3-.6-.3-.9-1.1-.9-1.7 0-.6.3-1.4.9-1.7.3-.2.8-.3 1.2-.3.5 0 .8.2 1.2.3.6.3.9 1.1.9 1.7 0 .6-.3 1.4-.9 1.7zm-36.1 4.7c-2.9 0-5.3 2.3-5.3 5.3 0 2.9 2.3 5.3 5.3 5.3 2.9 0 5.3-2.3 5.3-5.3-.1-2.8-2.4-5.3-5.3-5.3zm0 6.4c-.6 0-.9-.5-.9-.9 0-.6.5-.9.9-.9.6 0 .9.5.9.9s-.5.9-.9.9zm-11.8-65.7c-2.9 0-5.3 2.3-5.3 5.3 0 2.9 2.3 5.3 5.3 5.3s5.3-2.3 5.3-5.3c0-2.9-2.3-5.3-5.3-5.3zm0 6.4c-.6 0-.9-.5-.9-.9 0-.6.5-.9.9-.9.5 0 .9.5.9.9.1.4-.4.9-.9.9z"/><circle class="st0" cx="274.1" cy="148.9" r="5.3"/><path class="st0" d="M285.8 155.5c-2.9 0-5.3 2.3-5.3 5.3 0 2.9 2.3 5.3 5.3 5.3s5.3-2.3 5.3-5.3-2.3-5.3-5.3-5.3zm0 6.4c-.6 0-.9-.5-.9-.9 0-.6.5-.9.9-.9.5 0 .9.5.9.9.1.4-.4.9-.9.9zm70-30.2c-2.9 0-5.3 2.3-5.3 5.3 0 2.9 2.3 5.3 5.3 5.3 2.9 0 5.3-2.3 5.3-5.3.1-2.8-2.4-5.3-5.3-5.3zm0 6.4c-.6 0-.9-.5-.9-.9s.5-.9.9-.9c.6 0 .9.5.9.9s-.3.9-.9.9zm-11.6 5.5c-2.9 0-5.3 2.3-5.3 5.3s2.3 5.3 5.3 5.3c2.9 0 5.3-2.3 5.3-5.3s-2.4-5.3-5.3-5.3zm0 6.4c-.6 0-.9-.5-.9-.9 0-.6.5-.9.9-.9s.9.5.9.9-.4.9-.9.9zm-70.1 29.3c-2.9 0-5.3 2.3-5.3 5.3s2.3 5.3 5.3 5.3 5.3-2.3 5.3-5.3c.1-3-2.4-5.3-5.3-5.3zm0 6.2c-.6 0-.9-.5-.9-.9 0-.6.5-.9.9-.9.5 0 .9.5.9.9.2.4-.3.9-.9.9z"/><circle class="st0" cx="297.6" cy="160.8" r="5.3"/><path class="st0" d="M309.2 143.6c-2.9 0-5.3 2.3-5.3 5.3s2.3 5.3 5.3 5.3 5.3-2.3 5.3-5.3-2.4-5.3-5.3-5.3zm0 7.4c-1.2 0-2.2-.9-2.2-2.2 0-1.2.9-2.2 2.2-2.2s2.2.9 2.2 2.2c-.1 1.3-1 2.2-2.2 2.2zm-46.7-42.9c-2.9 0-5.3 2.3-5.3 5.3 0 2.9 2.3 5.3 5.3 5.3s5.3-2.3 5.3-5.3-2.4-5.3-5.3-5.3zm0 6.2c-.6 0-.9-.5-.9-.9 0-.6.5-.9.9-.9.5 0 .9.5.9.9s-.4.9-.9.9z"/><circle class="st0" cx="250.8" cy="125.3" r="5.3"/><circle class="st0" cx="250.8" cy="101.5" r="5.3"/><circle class="st0" cx="274.3" cy="77.5" r="5.3"/><circle class="st0" cx="239.2" cy="113.4" r="5.3"/><path class="st0" d="M250.8 35.5c2.9 0 5.3-2.3 5.3-5.3s-2.3-5.3-5.3-5.3-5.3 2.3-5.3 5.3 2.3 5.3 5.3 5.3zm0-6.2c.6 0 .9.5.9.9 0 .6-.5.9-.9.9-.6 0-.9-.5-.9-.9s.3-.9.9-.9zm-34.9 66.9c-2.9 0-5.3 2.3-5.3 5.3 0 2.9 2.3 5.3 5.3 5.3 2.9 0 5.3-2.3 5.3-5.3-.1-3-2.4-5.3-5.3-5.3zm0 6.4c-.6 0-.9-.5-.9-.9 0-.6.5-.9.9-.9.5 0 .9.5.9.9s-.5.9-.9.9zm-23.5-6.4c-2.9 0-5.3 2.3-5.3 5.3 0 2.9 2.3 5.3 5.3 5.3 2.9 0 5.3-2.3 5.3-5.3.1-3-2.4-5.3-5.3-5.3zm0 7.4c-1.2 0-2.2-.9-2.2-2.2 0-1.2 1.1-2.2 2.2-2.2 1.2 0 2.2.9 2.2 2.2 0 1.3-1 2.2-2.2 2.2zm11.7 4.5c-2.9 0-5.3 2.3-5.3 5.3 0 2.9 2.3 5.3 5.3 5.3s5.3-2.3 5.3-5.3-2.3-5.3-5.3-5.3zm0 7.4c-1.2 0-2.2-.9-2.2-2.2s.9-2.2 2.2-2.2 2.2.9 2.2 2.2-.9 2.2-2.2 2.2zm23.4-7.4c-2.9 0-5.3 2.3-5.3 5.3 0 2.9 2.3 5.3 5.3 5.3s5.3-2.3 5.3-5.3c.1-3-2.4-5.3-5.3-5.3zm0 7.4c-1.2 0-2.2-.9-2.2-2.2s.9-2.2 2.2-2.2c1.2 0 2.2.9 2.2 2.2s-1 2.2-2.2 2.2zm93.4-19.3c-2.9 0-5.3 2.3-5.3 5.3 0 2.9 2.3 5.3 5.3 5.3 2.9 0 5.3-2.3 5.3-5.3-.1-3-2.4-5.3-5.3-5.3zm0 6.4c-.6 0-.9-.5-.9-.9 0-.6.5-.9.9-.9s.9.5.9.9-.4.9-.9.9zm-105 17.2c-2.9 0-5.3 2.3-5.3 5.3 0 2.9 2.3 5.3 5.3 5.3 2.9 0 5.3-2.3 5.3-5.3-.1-2.8-2.4-5.3-5.3-5.3zm0 6.4c-.6 0-.9-.5-.9-.9 0-.6.5-.9.9-.9.5 0 .9.5.9.9s-.5.9-.9.9zm34.9 5.5c-2.9 0-5.3 2.3-5.3 5.3 0 2.9 2.3 5.3 5.3 5.3s5.3-2.3 5.3-5.3c.1-2.8-2.4-5.3-5.3-5.3zm0 7.5c-1.2 0-2.2-.9-2.2-2.2 0-1.2.9-2.2 2.2-2.2 1.2 0 2.2.9 2.2 2.2-.1 1.2-1 2.2-2.2 2.2zm-23.3-7.5c-2.9 0-5.3 2.3-5.3 5.3 0 2.9 2.3 5.3 5.3 5.3s5.3-2.3 5.3-5.3c.1-2.8-2.4-5.3-5.3-5.3zm0 6.4c-.6 0-.9-.5-.9-.9s.5-.9.9-.9c.6 0 .9.5.9.9s-.3.9-.9.9z"/><circle class="st0" cx="250.8" cy="160.8" r="5.3"/><path class="st0" d="M262.5 167.4c-2.9 0-5.3 2.3-5.3 5.3s2.3 5.3 5.3 5.3 5.3-2.3 5.3-5.3-2.4-5.3-5.3-5.3zm0 7.4c-1.2 0-2.2-.9-2.2-2.2s.9-2.2 2.2-2.2c1.2 0 2.2.9 2.2 2.2s-1.1 2.2-2.2 2.2z"/><circle class="st0" cx="262.5" cy="184.6" r="5.3"/><path class="st0" d="M250.8 191c-2.9 0-5.3 2.3-5.3 5.3s2.3 5.3 5.3 5.3 5.3-2.3 5.3-5.3c.1-2.8-2.4-5.3-5.3-5.3zm0 6.4c-.6 0-.9-.5-.9-.9 0-.6.5-.9.9-.9s.9.5.9.9c.2.4-.3.9-.9.9zm69.6-30.1c-2.9 0-5.3 2.3-5.3 5.3s2.3 5.3 5.3 5.3c2.9 0 5.3-2.3 5.3-5.3.1-2.9-2.3-5.3-5.3-5.3zm.5 7.5c-1.2 0-2.2-.9-2.2-2.2s.9-2.2 2.2-2.2c1.2 0 2.2.9 2.2 2.2s-1.1 2.2-2.2 2.2zm-46.8 28.1c-2.9 0-5.3 2.3-5.3 5.3s2.3 5.3 5.3 5.3 5.3-2.3 5.3-5.3c.1-2.8-2.4-5.3-5.3-5.3zm0 7.4c-1.2 0-2.2-.9-2.2-2.2 0-1.2.9-2.2 2.2-2.2s2.2.9 2.2 2.2c0 1.3-1 2.2-2.2 2.2zm23.5-42.9c-2.9 0-5.3 2.3-5.3 5.3s2.3 5.3 5.3 5.3c2.9 0 5.3-2.3 5.3-5.3-.1-3-2.4-5.3-5.3-5.3zm0 7.4c-1.2 0-2.2-.9-2.2-2.2s.9-2.2 2.2-2.2c1.2 0 2.2.9 2.2 2.2s-1.1 2.2-2.2 2.2zm0 16.2c-2.9 0-5.3 2.3-5.3 5.3s2.3 5.3 5.3 5.3c2.9 0 5.3-2.3 5.3-5.3-.1-2.8-2.4-5.3-5.3-5.3zm0 7.5c-1.2 0-2.2-.9-2.2-2.2 0-1.2.9-2.2 2.2-2.2 1.2 0 2.2.9 2.2 2.2-.2 1.2-1.1 2.2-2.2 2.2z"/><circle class="st0" cx="285.8" cy="208.2" r="5.3"/><path class="st0" d="M250.8 238.5c-2.9 0-5.3 2.3-5.3 5.3s2.3 5.3 5.3 5.3 5.3-2.3 5.3-5.3-2.4-5.3-5.3-5.3zm0 6.3c-.6 0-.9-.5-.9-.9 0-.6.5-.9.9-.9s.9.5.9.9c.2.4-.3.9-.9.9zm-11.6-77.4c-2.9 0-5.3 2.3-5.3 5.3s2.3 5.3 5.3 5.3 5.3-2.3 5.3-5.3-2.4-5.3-5.3-5.3zm0 6.2c-.6 0-.9-.5-.9-.9 0-.6.5-.9.9-.9s.9.5.9.9c0 .6-.4.9-.9.9zm11.6-113.1c-2.9 0-5.3 2.3-5.3 5.3 0 2.9 2.3 5.3 5.3 5.3s5.3-2.3 5.3-5.3c-.1-2.9-2.4-5.3-5.3-5.3zm0 7.5c-1.2 0-2.2-.9-2.2-2.2 0-1.2.9-2.2 2.2-2.2 1.2 0 2.2.9 2.2 2.2-.1 1.2-1 2.2-2.2 2.2zm-70 28.2c-2.9 0-5.3 2.3-5.3 5.3 0 2.9 2.3 5.3 5.3 5.3 2.9 0 5.3-2.3 5.3-5.3s-2.3-5.3-5.3-5.3zm0 6.4c-.6 0-.9-.5-.9-.9 0-.6.5-.9.9-.9.5 0 .9.5.9.9s-.4.9-.9.9zm46.7-7.6c2.9 0 5.3-2.3 5.3-5.3 0-2.9-2.3-5.3-5.3-5.3s-5.3 2.2-5.3 5.1c0 3 2.3 5.5 5.3 5.5zm0-7.4c1.2 0 2.2.9 2.2 2.2 0 1.2-.9 2.2-2.2 2.2-1.2 0-2.2-.9-2.2-2.2.2-1.3 1.1-2.2 2.2-2.2zm-11.6-16.4c2.9 0 5.3-2.3 5.3-5.3 0-2.9-2.3-5.3-5.3-5.3-2.9 0-5.3 2.3-5.3 5.3s2.3 5.3 5.3 5.3zm0-7.4c1.2 0 2.2.9 2.2 2.2 0 1.2-.9 2.2-2.2 2.2s-2.2-.9-2.2-2.2c0-1.3.9-2.2 2.2-2.2z"/><circle class="st0" cx="262.5" cy="65.9" r="2.2"/><path class="st0" d="M262.5 44.3c1.2 0 2.2-.9 2.2-2.2s-.9-2.2-2.2-2.2c-1.2 0-2.2.9-2.2 2.2s1 2.2 2.2 2.2zm0-3.1c.6 0 .9.5.9.9 0 .6-.5.9-.9.9-.5 0-.9-.5-.9-.9-.2-.4.3-.9.9-.9zm35.1 50.5c1.2 0 2.2-.9 2.2-2.2 0-1.2-.9-2.2-2.2-2.2-1.2 0-2.2.9-2.2 2.2 0 1.3.9 2.2 2.2 2.2zm0-3c.6 0 .9.5.9.9 0 .6-.5.9-.9.9-.6 0-.9-.5-.9-.9-.2-.5.3-.9.9-.9z"/><circle class="st0" cx="297.6" cy="101.5" r="2.2"/><circle class="st0" cx="309.2" cy="101.5" r="2.2"/><circle class="st0" cx="320.9" cy="113.4" r="2.2"/><circle class="st0" cx="320.9" cy="125.3" r="2.2"/><path class="st0" d="M344.2 127.4c1.2 0 2.2-.9 2.2-2.2s-.9-2.2-2.2-2.2-2.2.9-2.2 2.2c.1 1.1 1 2.2 2.2 2.2zm0-3.2c.6 0 .9.5.9.9 0 .6-.5.9-.9.9s-.9-.5-.9-.9c-.2-.5.3-.9.9-.9zm-23.3 38.7c1.2 0 2.2-.9 2.2-2.2s-.9-2.2-2.2-2.2-2.2.9-2.2 2.2 1 2.2 2.2 2.2zm0-3.1c.6 0 .9.5.9.9 0 .6-.5.9-.9.9s-.9-.5-.9-.9c-.2-.4.3-.9.9-.9zm35-13.1c-1.2 0-2.2.9-2.2 2.2 0 1.2.9 2.2 2.2 2.2s2.2-.9 2.2-2.2-1.1-2.2-2.2-2.2zm-.1 3.3c-.6 0-.9-.5-.9-.9 0-.6.5-.9.9-.9.6 0 .9.5.9.9.2.4-.3.9-.9.9zm-23.3 8.6c-1.2 0-2.2.9-2.2 2.2 0 1.2.9 2.2 2.2 2.2s2.2-.9 2.2-2.2c-.1-1.3-1-2.2-2.2-2.2zm0 3.3c-.6 0-.9-.5-.9-.9 0-.6.5-.9.9-.9.5 0 .9.5.9.9.2.4-.3.9-.9.9z"/><circle class="st0" cx="309.2" cy="172.7" r="2.2"/><path class="st0" d="M309.2 182.4c-1.2 0-2.2.9-2.2 2.2s.9 2.2 2.2 2.2 2.2-.9 2.2-2.2-1-2.2-2.2-2.2zm0 3.1c-.6 0-.9-.5-.9-.9 0-.6.5-.9.9-.9.6 0 .9.5.9.9.1.4-.3.9-.9.9zm0 8.8c-1.2 0-2.2.9-2.2 2.2 0 1.2.9 2.2 2.2 2.2s2.2-.9 2.2-2.2c-.1-1.3-1-2.2-2.2-2.2zm0 3.1c-.6 0-.9-.5-.9-.9 0-.6.5-.9.9-.9.6 0 .9.5.9.9.1.4-.3.9-.9.9zm-23.4 1.1c1.2 0 2.2-.9 2.2-2.2 0-1.2-.9-2.2-2.2-2.2s-2.2.9-2.2 2.2c.1 1.2 1 2.2 2.2 2.2zm0-3.1c.6 0 .9.5.9.9 0 .6-.5.9-.9.9-.5 0-.9-.5-.9-.9s.3-.9.9-.9z"/><circle class="st0" cx="285.8" cy="184.6" r="2.2"/><path class="st0" d="M297.6 206.2c-1.2 0-2.2.9-2.2 2.2 0 1.2.9 2.2 2.2 2.2 1.2 0 2.2-.9 2.2-2.2-.2-1.3-1.1-2.2-2.2-2.2zm0 3.1c-.6 0-.9-.5-.9-.9 0-.6.5-.9.9-.9.6 0 .9.5.9.9s-.5.9-.9.9z"/><circle class="st0" cx="320.9" cy="172.7" r="2.2"/><path class="st0" d="M320.9 182.4c-1.2 0-2.2.9-2.2 2.2s.9 2.2 2.2 2.2c1.2 0 2.2-.9 2.2-2.2s-1.1-2.2-2.2-2.2zm0 3.1c-.6 0-.9-.5-.9-.9 0-.6.5-.9.9-.9s.9.5.9.9-.4.9-.9.9zm12.8-73.8c.6.3.9 1.1.9 1.7 0 .6-.3 1.4-.9 1.7.6-.3.9-1.1.9-1.7 0-.7-.3-1.4-.9-1.7zm-3.4 1.7c0-.8.3-1.4.9-1.7-.4.3-.9.9-.9 1.7 0 .8.3 1.4.9 1.7-.4-.3-.9-1-.9-1.7zm-56.2-57.2c1.2 0 2.2-.9 2.2-2.2 0-1.2-.9-2.2-2.2-2.2s-2.2.9-2.2 2.2c.2 1.1 1.1 2.2 2.2 2.2zm0-3.2c.6 0 .9.5.9.9 0 .6-.5.9-.9.9-.5 0-.9-.3-.9-.8 0-.6.4-1 .9-1z"/><circle class="st0" cx="285.8" cy="77.7" r="2.2"/><circle class="st0" cx="227.5" cy="65.9" r="2.2"/><path class="st0" d="M227.5 56.2c1.2 0 2.2-.9 2.2-2.2 0-1.2-.9-2.2-2.2-2.2-1.2 0-2.2.9-2.2 2.2 0 1.1 1.1 2.2 2.2 2.2zm0-3.2c.6 0 .9.5.9.9 0 .6-.5.9-.9.9-.6 0-.9-.5-.9-.9s.4-.9.9-.9z"/><circle class="st0" cx="215.9" cy="65.9" r="2.2"/><circle class="st0" cx="215.9" cy="89.6" r="2.2"/><path class="st0" d="M248.6 54.1c0 1.2.9 2.2 2.2 2.2 1.2 0 2.2-.9 2.2-2.2 0-1.2-.9-2.2-2.2-2.2-1.3 0-2.2.9-2.2 2.2zm2.2-1.1c.6 0 .9.5.9.9 0 .6-.5.9-.9.9s-.9-.5-.9-.9.4-.9.9-.9z"/><circle class="st0" cx="239.2" cy="65.9" r="2.2"/><circle class="st0" cx="204.1" cy="77.7" r="2.2"/><circle class="st0" cx="250.8" cy="148.9" r="2.2"/><path class="st0" d="M227.5 146.9c-1.2 0-2.2.9-2.2 2.2 0 1.2.9 2.2 2.2 2.2 1.2 0 2.2-.9 2.2-2.2-.1-1.3-1-2.2-2.2-2.2zm0 3.1c-.6 0-.9-.5-.9-.9 0-.6.5-.9.9-.9.6 0 .9.5.9.9.1.4-.3.9-.9.9z"/><circle class="st0" cx="262.5" cy="160.8" r="2.2"/><circle class="st0" cx="262.5" cy="196.4" r="2.2"/><circle class="st0" cx="262.5" cy="208.2" r="2.2"/><circle class="st0" cx="274.1" cy="220.1" r="2.2"/><circle class="st0" cx="262.5" cy="232" r="2.2"/><circle class="st0" cx="250.8" cy="220.1" r="2.2"/><circle class="st0" cx="274.1" cy="172.7" r="2.2"/><circle class="st0" cx="250.8" cy="184.6" r="2.2"/><circle class="st0" cx="239.2" cy="137.1" r="2.2"/><circle class="st0" cx="180.8" cy="89.6" r="2.2"/><circle class="st0" cx="180.8" cy="113.4" r="2.2"/><path class="st0" d="M192.4 79.8c1.2 0 2.2-.9 2.2-2.2 0-1.2-.9-2.2-2.2-2.2s-2.2.9-2.2 2.2c.2 1.3 1.1 2.2 2.2 2.2zm0-3c.6 0 .9.5.9.9 0 .6-.5.9-.9.9-.6 0-.9-.5-.9-.9s.4-.9.9-.9z"/><circle class="st0" cx="239.2" cy="77.7" r="2.2"/><path class="st0" d="M227.5 79.8c1.2 0 2.2-.9 2.2-2.2 0-1.2-.9-2.2-2.2-2.2-1.2 0-2.2.9-2.2 2.2 0 1.3 1.1 2.2 2.2 2.2zm0-3c.6 0 .9.5.9.9 0 .6-.5.9-.9.9-.6 0-.9-.5-.9-.9s.4-.9.9-.9z"/><circle class="st0" cx="169.1" cy="101.5" r=".9"/><path class="st0" d="M192.4 78.8c-.6 0-.9-.5-.9-.9 0-.6.5-.9.9-.9-.6 0-.9.5-.9.9s.4.9.9.9z"/><circle class="st0" cx="192.4" cy="125.3" r=".9"/><circle class="st0" cx="192.4" cy="113.4" r=".9"/><circle class="st0" cx="215.9" cy="54.1" r=".9"/><circle class="st0" cx="204.1" cy="101.5" r=".9"/><circle class="st0" cx="192.4" cy="89.6" r=".9"/><circle class="st0" cx="227.5" cy="54.1" r=".9"/><circle class="st0" cx="227.5" cy="42.2" r=".9"/><circle class="st0" cx="262.5" cy="137.1" r=".9"/><circle class="st0" cx="239.2" cy="125.3" r=".9"/><circle class="st0" cx="262.5" cy="101.5" r=".9"/><circle class="st0" cx="204.1" cy="125.3" r=".9"/><circle class="st0" cx="215.9" cy="137.1" r=".9"/><circle class="st0" cx="239.2" cy="54.1" r=".9"/><circle class="st0" cx="239.2" cy="42.2" r="5.3"/><circle class="st0" cx="239.2" cy="30.3" r=".9"/><circle class="st0" cx="239.2" cy="160.8" r=".9"/><circle class="st0" cx="239.2" cy="148.9" r=".9"/><circle class="st0" cx="250.8" cy="54.1" r=".9"/><circle class="st0" cx="250.8" cy="42.2" r=".9"/><circle class="st0" cx="250.8" cy="18.4" r=".9"/><circle class="st0" cx="250.8" cy="208.2" r=".9"/><circle class="st0" cx="285.8" cy="148.9" r=".9"/><circle class="st0" cx="274.1" cy="160.8" r=".9"/><circle class="st0" cx="250.8" cy="172.7" r=".9"/><circle class="st0" cx="250.8" cy="232" r=".9"/><circle class="st0" cx="262.5" cy="54.1" r=".9"/><circle class="st0" cx="262.5" cy="42.2" r=".9"/><circle class="st0" cx="262.5" cy="30.3" r=".9"/><circle class="st0" cx="262.5" cy="220.1" r=".9"/><circle class="st0" cx="274.1" cy="65.9" r=".9"/><circle class="st0" cx="274.1" cy="54.1" r=".9"/><circle class="st0" cx="274.1" cy="42.2" r=".9"/><circle class="st0" cx="274.1" cy="232" r=".9"/><circle class="st0" cx="285.8" cy="54.1" r=".9"/><circle class="st0" cx="285.8" cy="220.1" r=".9"/><circle class="st0" cx="297.6" cy="77.7" r=".9"/><circle class="st0" cx="297.6" cy="65.9" r=".9"/><circle class="st0" cx="297.6" cy="208.2" r=".9"/><circle class="st0" cx="309.2" cy="89.6" r=".9"/><circle class="st0" cx="239.2" cy="89.6" r=".9"/><circle class="st0" cx="250.8" cy="77.7" r=".9"/><ellipse transform="rotate(-84.825 215.75 77.706)" class="st0" cx="215.7" cy="77.7" rx=".9" ry=".9"/><circle class="st0" cx="227.5" cy="101.5" r=".9"/><circle class="st0" cx="309.2" cy="196.4" r=".9"/><circle class="st0" cx="285.8" cy="196.4" r=".9"/><circle class="st0" cx="274.1" cy="196.4" r=".9"/><circle class="st0" cx="320.9" cy="101.5" r=".9"/><circle class="st0" cx="320.9" cy="89.6" r=".9"/><circle class="st0" cx="320.9" cy="184.6" r=".9"/><circle class="st0" cx="309.2" cy="113.4" r=".9"/><circle class="st0" cx="332.5" cy="101.5" r=".9"/><circle class="st0" cx="332.5" cy="172.7" r=".9"/><circle class="st0" cx="332.5" cy="160.8" r=".9"/><circle class="st0" cx="309.2" cy="160.8" r=".9"/><circle class="st0" cx="285.8" cy="172.7" r=".9"/><circle class="st0" cx="297.6" cy="184.6" r=".9"/><circle class="st0" cx="297.6" cy="137.1" r=".9"/><circle class="st0" cx="285.8" cy="137.1" r=".9"/><circle class="st0" cx="332.5" cy="148.9" r=".9"/><circle class="st0" cx="320.9" cy="137" r=".9"/><circle class="st0" cx="332.5" cy="125.3" r=".9"/><circle class="st0" cx="344.2" cy="113.4" r=".9"/><circle class="st0" cx="344.2" cy="160.8" r=".9"/><circle class="st0" cx="355.8" cy="148.9" r=".9"/><circle class="st0" cx="344.2" cy="137.1" r=".9"/><circle class="st0" cx="344.2" cy="125.3" r=".9"/><path class="st0" d="M274.1 91.7c1.2 0 2.2-.9 2.2-2.2 0-1.2-.9-2.2-2.2-2.2s-2.2.9-2.2 2.2c.2 1.3 1.1 2.2 2.2 2.2zm0-3c.6 0 .9.5.9.9 0 .6-.5.9-.9.9-.5 0-.9-.3-.9-.9 0-.5.4-.9.9-.9z"/><circle class="st0" cx="355.8" cy="137.1" r=".9"/><circle class="st0" cx="367.5" cy="137.1" r=".9"/><circle class="st0" cx="355.8" cy="125.3" r=".9"/><circle class="st0" cx="204.1" cy="65.9" r="2.2"/><circle class="st0" cx="262.5" cy="77.7" r="2.2"/><circle class="st0" cx="285.8" cy="89.6" r="2.2"/><circle class="st0" cx="309.2" cy="77.7" r="2.2"/><circle class="st0" cx="250.8" cy="89.6" r="2.2"/><circle class="st0" cx="262.5" cy="89.6" r="2.2"/><circle class="st0" cx="274.1" cy="101.5" r="2.2"/><path class="st0" d="M283.7 101.5c0-.8.3-1.4.9-1.7-.5.3-.9.9-.9 1.7 0 .8.3 1.4.9 1.7-.5-.3-.9-1-.9-1.7zm3.4-1.7c.6.3.9 1.1.9 1.7 0 .6-.3 1.4-.9 1.7.6-.3.9-1.1.9-1.7 0-.6-.5-1.4-.9-1.7z"/><circle class="st0" cx="297.6" cy="113.4" r="2.2"/><circle class="st0" cx="274.1" cy="113.4" r="2.2"/><path class="st0" d="M285.8 115.5c1.2 0 2.2-.9 2.2-2.2s-.9-2.2-2.2-2.2-2.2.9-2.2 2.2 1 2.2 2.2 2.2zm0-3.1c.6 0 .9.5.9.9 0 .6-.5.9-.9.9-.5 0-.9-.5-.9-.9 0-.6.3-.9.9-.9z"/><circle class="st0" cx="309.2" cy="125.3" r="2.2"/><path class="st0" d="M309.2 139.2c1.2 0 2.2-.9 2.2-2.2 0-1.2-.9-2.2-2.2-2.2s-2.2.9-2.2 2.2c0 1.2 1.1 2.2 2.2 2.2zm0-3.1c.6 0 .9.5.9.9s-.5.9-.9.9c-.6 0-.9-.5-.9-.9s.4-.9.9-.9z"/><circle class="st0" cx="320.9" cy="148.9" r="2.2"/><circle class="st0" cx="309.2" cy="148.9" r="2.2"/><circle class="st0" cx="297.6" cy="148.9" r="2.2"/><circle class="st0" cx="285.8" cy="125.3" r="2.2"/><circle class="st0" cx="274.1" cy="137.1" r="2.2"/><circle class="st0" cx="262.5" cy="148.9" r="2.2"/><circle class="st0" cx="262.4" cy="125.3" r="2.2"/><circle class="st0" cx="227.5" cy="125.3" r="2.2"/><circle class="st0" cx="215.9" cy="113.4" r="2.2"/><circle class="st0" cx="250.8" cy="113.4" r="2.2"/><circle class="st0" cx="239.2" cy="101.5" r="2.2"/><path class="st0" d="M204.1 84.3c-2.9 0-5.3 2.3-5.3 5.3 0 2.9 2.3 5.3 5.3 5.3s5.3-2.3 5.3-5.3-2.3-5.3-5.3-5.3zm0 7.4c-1.2 0-2.2-.9-2.2-2.2 0-1.2.9-2.2 2.2-2.2s2.2.9 2.2 2.2c0 1.3-.9 2.2-2.2 2.2z"/><path class="st1" d="M18.9 308.2h24.6v2H32.2v31.5h-2v-31.6H18.9v-1.9zm28.5 0h2v15.7H72v-15.7h2v33.4h-2v-15.8H49.4v15.8h-2v-33.4zm35.7 0h21.6v2H85.1v13.3h17.4v2H85.1v14.2h20.2v2H83.1v-33.5zm53.4-14.6h11.7V344h26.3v10.5h-38v-60.9zm96.3 60.9l-5.4-12.9h-29.8l-5.4 12.9h-12.1l26.7-60.9h12.1l26.4 60.9h-12.5zm-31-22.9h21.4L212.6 306l-10.8 25.6zm93.1-33.9c3.7 2.7 5.6 6.4 5.6 11.1 0 3.4-.9 6.3-2.8 8.7s-4.5 4-7.8 4.8c4.1.8 7.2 2.5 9.5 5.2s3.4 6.1 3.4 10.2c0 5.2-2 9.3-6 12.3s-9.5 4.5-16.5 4.5h-27.9v-60.9h27.1c6.6 0 11.7 1.4 15.4 4.1zm-8.8 18.8c1.7-1.3 2.6-3.2 2.6-5.6 0-2.3-.9-4.1-2.6-5.4s-4.1-1.9-7.1-1.8h-14.8v14.8H279c3 0 5.4-.7 7.1-2zm1.6 25.8c2.1-1.4 3.1-3.5 3.1-6.1 0-2.5-1-4.5-3.1-5.9-2.1-1.4-5-2.1-8.7-2h-14.8v16.1H279c3.7.1 6.6-.6 8.7-2.1zm78.1-8.1c.5.6 1.1.9 1.9.9.9 0 1.7-.4 2.5-1.2.7-.8 1.3-1.9 1.8-3.3.4-1.4.6-3.1.6-4.9 0-3.3-.7-6.3-2.2-8.9-1.5-2.6-3.5-4.7-6.2-6.2-2.6-1.5-5.6-2.3-9-2.3-3.3 0-6.3.8-9.1 2.3-2.7 1.5-4.9 3.6-6.4 6.2-1.6 2.7-2.3 5.6-2.3 8.9 0 3.2.7 6 2.2 8.5s3.6 4.5 6.2 5.9 5.6 2.2 8.8 2.2c1.3 0 2.7-.2 4.3-.6 1.5-.4 2.8-1 3.9-1.7l1.1 2c-1.2.8-2.7 1.4-4.4 1.8-1.7.5-3.4.7-4.9.7-3.7 0-7-.8-10-2.4s-5.3-3.9-7-6.8c-1.7-2.9-2.5-6.1-2.5-9.7 0-3.7.9-7 2.6-10 1.8-3 4.2-5.3 7.2-7 3.1-1.7 6.5-2.5 10.3-2.5 3.7 0 7.1.8 10.1 2.5s5.3 4 7 7 2.5 6.3 2.5 10c0 2.3-.3 4.3-.9 6.1-.6 1.7-1.5 3.1-2.6 4-1.1 1-2.4 1.4-3.9 1.4-1.3 0-2.3-.4-3.1-1.1s-1.3-1.8-1.4-3.1v-1.8c-.9 1.7-2.1 3-3.6 3.9-1.6.9-3.3 1.4-5.3 1.4s-3.7-.5-5.4-1.4c-1.6-.9-2.9-2.2-3.8-3.9-1-1.7-1.4-3.5-1.4-5.6 0-2 .4-3.9 1.3-5.6.9-1.7 2.1-3 3.7-3.9 1.6-1 3.4-1.4 5.4-1.4s3.8.5 5.4 1.5c1.6 1 2.6 2.1 3.2 3.5v-4.7h2.8v17c-.2 1 .1 1.7.6 2.3zM350 318.3c-1.2.7-2.1 1.7-2.8 2.9-.7 1.2-1 2.6-1 4.2s.3 3 1 4.2c.7 1.3 1.6 2.3 2.8 3 1.2.7 2.5 1.1 4.1 1.1s2.9-.4 4.1-1.1c1.2-.7 2.1-1.7 2.8-3 .7-1.3 1-2.7 1-4.3 0-1.6-.3-2.9-1-4.2-.7-1.2-1.6-2.2-2.8-2.9-1.2-.7-2.6-1.1-4.2-1.1-1.4.1-2.8.5-4 1.2zm97.1-20.7c4.8 2.7 8.6 6.4 11.4 11.1 2.8 4.7 4.2 9.8 4.2 15.4 0 5.5-1.4 10.6-4.2 15.3-2.8 4.7-6.6 8.4-11.4 11.1-4.8 2.7-10.1 4.1-15.8 4.1h-24.2v-61h24.2c5.7 0 11 1.3 15.8 4zm-2 49.7c4.2-2.4 7.6-5.7 10-9.8 2.5-4.1 3.7-8.6 3.7-13.5s-1.2-9.5-3.7-13.6-5.8-7.4-10-9.8-8.9-3.6-13.9-3.6h-20.5v53.8h20.6c5 .1 9.6-1.1 13.8-3.5zm68.7-48.7c-3.3-1.3-6.8-2-10.4-2-5.1 0-9.7 1.2-14 3.7-4.3 2.4-7.7 5.8-10.2 9.9-2.5 4.2-3.8 8.8-3.8 13.7s1.2 9.5 3.8 13.7c2.5 4.2 5.9 7.5 10.2 10s8.9 3.7 14 3.7c3.6 0 7-.7 10.3-2s6.2-3.2 8.9-5.5l2.3 2.5c-2.8 2.7-6.1 4.8-9.9 6.3-3.8 1.5-7.6 2.3-11.6 2.3-5.7 0-11-1.4-15.8-4.1-4.8-2.8-8.6-6.5-11.5-11.3-2.8-4.7-4.2-9.9-4.2-15.5s1.4-10.7 4.2-15.5c2.8-4.7 6.6-8.5 11.5-11.3 4.8-2.8 10.1-4.1 15.8-4.1 4 0 7.9.7 11.6 2.2 3.7 1.5 7 3.5 9.9 6.1l-2.2 2.8c-2.6-2.4-5.6-4.2-8.9-5.6z"/><path class="st1" d="M18.9 308.2h24.6v2H32.2v31.5h-2v-31.6H18.9v-1.9zm28.5 0h2v15.7H72v-15.7h2v33.4h-2v-15.8H49.4v15.8h-2v-33.4zm35.7 0h21.6v2H85.1v13.3h17.4v2H85.1v14.2h20.2v2H83.1v-33.5zm53.4-14.6h11.7V344h26.3v10.5h-38v-60.9zm96.3 60.9l-5.4-12.9h-29.8l-5.4 12.9h-12.1l26.7-60.9h12.1l26.4 60.9h-12.5zm-31-22.9h21.4L212.6 306l-10.8 25.6zm93.1-33.9c3.7 2.7 5.6 6.4 5.6 11.1 0 3.4-.9 6.3-2.8 8.7s-4.5 4-7.8 4.8c4.1.8 7.2 2.5 9.5 5.2s3.4 6.1 3.4 10.2c0 5.2-2 9.3-6 12.3s-9.5 4.5-16.5 4.5h-27.9v-60.9h27.1c6.6 0 11.7 1.4 15.4 4.1zm-8.8 18.8c1.7-1.3 2.6-3.2 2.6-5.6 0-2.3-.9-4.1-2.6-5.4s-4.1-1.9-7.1-1.8h-14.8v14.8H279c3 0 5.4-.7 7.1-2zm1.6 25.8c2.1-1.4 3.1-3.5 3.1-6.1 0-2.5-1-4.5-3.1-5.9-2.1-1.4-5-2.1-8.7-2h-14.8v16.1H279c3.7.1 6.6-.6 8.7-2.1zm78.1-8.1c.5.6 1.1.9 1.9.9.9 0 1.7-.4 2.5-1.2.7-.8 1.3-1.9 1.8-3.3.4-1.4.6-3.1.6-4.9 0-3.3-.7-6.3-2.2-8.9-1.5-2.6-3.5-4.7-6.2-6.2-2.6-1.5-5.6-2.3-9-2.3-3.3 0-6.3.8-9.1 2.3-2.7 1.5-4.9 3.6-6.4 6.2-1.6 2.7-2.3 5.6-2.3 8.9 0 3.2.7 6 2.2 8.5s3.6 4.5 6.2 5.9 5.6 2.2 8.8 2.2c1.3 0 2.7-.2 4.3-.6 1.5-.4 2.8-1 3.9-1.7l1.1 2c-1.2.8-2.7 1.4-4.4 1.8-1.7.5-3.4.7-4.9.7-3.7 0-7-.8-10-2.4s-5.3-3.9-7-6.8c-1.7-2.9-2.5-6.1-2.5-9.7 0-3.7.9-7 2.6-10 1.8-3 4.2-5.3 7.2-7 3.1-1.7 6.5-2.5 10.3-2.5 3.7 0 7.1.8 10.1 2.5s5.3 4 7 7 2.5 6.3 2.5 10c0 2.3-.3 4.3-.9 6.1-.6 1.7-1.5 3.1-2.6 4-1.1 1-2.4 1.4-3.9 1.4-1.3 0-2.3-.4-3.1-1.1s-1.3-1.8-1.4-3.1v-1.8c-.9 1.7-2.1 3-3.6 3.9-1.6.9-3.3 1.4-5.3 1.4s-3.7-.5-5.4-1.4c-1.6-.9-2.9-2.2-3.8-3.9-1-1.7-1.4-3.5-1.4-5.6 0-2 .4-3.9 1.3-5.6.9-1.7 2.1-3 3.7-3.9 1.6-1 3.4-1.4 5.4-1.4s3.8.5 5.4 1.5c1.6 1 2.6 2.1 3.2 3.5v-4.7h2.8v17c-.2 1 .1 1.7.6 2.3zM350 318.3c-1.2.7-2.1 1.7-2.8 2.9-.7 1.2-1 2.6-1 4.2s.3 3 1 4.2c.7 1.3 1.6 2.3 2.8 3 1.2.7 2.5 1.1 4.1 1.1s2.9-.4 4.1-1.1c1.2-.7 2.1-1.7 2.8-3 .7-1.3 1-2.7 1-4.3 0-1.6-.3-2.9-1-4.2-.7-1.2-1.6-2.2-2.8-2.9-1.2-.7-2.6-1.1-4.2-1.1-1.4.1-2.8.5-4 1.2zm97.1-20.7c4.8 2.7 8.6 6.4 11.4 11.1 2.8 4.7 4.2 9.8 4.2 15.4 0 5.5-1.4 10.6-4.2 15.3-2.8 4.7-6.6 8.4-11.4 11.1-4.8 2.7-10.1 4.1-15.8 4.1h-24.2v-61h24.2c5.7 0 11 1.3 15.8 4zm-2 49.7c4.2-2.4 7.6-5.7 10-9.8 2.5-4.1 3.7-8.6 3.7-13.5s-1.2-9.5-3.7-13.6-5.8-7.4-10-9.8-8.9-3.6-13.9-3.6h-20.5v53.8h20.6c5 .1 9.6-1.1 13.8-3.5zm68.7-48.7c-3.3-1.3-6.8-2-10.4-2-5.1 0-9.7 1.2-14 3.7-4.3 2.4-7.7 5.8-10.2 9.9-2.5 4.2-3.8 8.8-3.8 13.7s1.2 9.5 3.8 13.7c2.5 4.2 5.9 7.5 10.2 10s8.9 3.7 14 3.7c3.6 0 7-.7 10.3-2s6.2-3.2 8.9-5.5l2.3 2.5c-2.8 2.7-6.1 4.8-9.9 6.3-3.8 1.5-7.6 2.3-11.6 2.3-5.7 0-11-1.4-15.8-4.1-4.8-2.8-8.6-6.5-11.5-11.3-2.8-4.7-4.2-9.9-4.2-15.5s1.4-10.7 4.2-15.5c2.8-4.7 6.6-8.5 11.5-11.3 4.8-2.8 10.1-4.1 15.8-4.1 4 0 7.9.7 11.6 2.2 3.7 1.5 7 3.5 9.9 6.1l-2.2 2.8c-2.6-2.4-5.6-4.2-8.9-5.6z"/></svg>