<svg version="1.1" id="Camada_1" xmlns="http://www.w3.org/2000/svg" x="0" y="0" viewBox="0 0 543 90" xml:space="preserve"><style>.st0{fill:#fff}</style><path class="st0" d="M18.9 26.2h24.6v2H32.2v31.5h-2V28.1H18.9v-1.9zm28.5 0h2v15.7H72V26.2h2v33.4h-2V43.8H49.4v15.8h-2V26.2zm35.7 0h21.6v2H85.1v13.3h17.4v2H85.1v14.2h20.2v2H83.1V26.2zm53.4-14.6h11.7V62h26.3v10.5h-38V11.6zm96.3 60.9l-5.4-12.9h-29.8l-5.4 12.9h-12.1l26.7-60.9h12.1l26.4 60.9h-12.5zm-31-22.9h21.4L212.6 24l-10.8 25.6zm93.1-33.9c3.7 2.7 5.6 6.4 5.6 11.1 0 3.4-.9 6.3-2.8 8.7-1.9 2.4-4.5 4-7.8 4.8 4.1.8 7.2 2.5 9.5 5.2s3.4 6.1 3.4 10.2c0 5.2-2 9.3-6 12.3s-9.5 4.5-16.5 4.5h-27.9V11.6h27.1c6.6 0 11.7 1.4 15.4 4.1zm-8.8 18.8c1.7-1.3 2.6-3.2 2.6-5.6 0-2.3-.9-4.1-2.6-5.4-1.7-1.3-4.1-1.9-7.1-1.8h-14.8v14.8H279c3 0 5.4-.7 7.1-2zm1.6 25.8c2.1-1.4 3.1-3.5 3.1-6.1 0-2.5-1-4.5-3.1-5.9s-5-2.1-8.7-2h-14.8v16.1H279c3.7.1 6.6-.6 8.7-2.1zm78.1-8.1c.5.6 1.1.9 1.9.9.9 0 1.7-.4 2.5-1.2.7-.8 1.3-1.9 1.8-3.3.4-1.4.6-3.1.6-4.9 0-3.3-.7-6.3-2.2-8.9s-3.5-4.7-6.2-6.2c-2.6-1.5-5.6-2.3-9-2.3-3.3 0-6.3.8-9.1 2.3-2.7 1.5-4.9 3.6-6.4 6.2-1.6 2.7-2.3 5.6-2.3 8.9 0 3.2.7 6 2.2 8.5s3.6 4.5 6.2 5.9 5.6 2.2 8.8 2.2c1.3 0 2.7-.2 4.3-.6 1.5-.4 2.8-1 3.9-1.7l1.1 2c-1.2.8-2.7 1.4-4.4 1.8-1.7.5-3.4.7-4.9.7-3.7 0-7-.8-10-2.4s-5.3-3.9-7-6.8-2.5-6.1-2.5-9.7c0-3.7.9-7 2.6-10 1.8-3 4.2-5.3 7.2-7 3.1-1.7 6.5-2.5 10.3-2.5 3.7 0 7.1.8 10.1 2.5s5.3 4 7 7 2.5 6.3 2.5 10c0 2.3-.3 4.3-.9 6.1-.6 1.7-1.5 3.1-2.6 4-1.1 1-2.4 1.4-3.9 1.4-1.3 0-2.3-.4-3.1-1.1s-1.3-1.8-1.4-3.1v-1.8c-.9 1.7-2.1 3-3.6 3.9-1.6.9-3.3 1.4-5.3 1.4s-3.7-.5-5.4-1.4c-1.6-.9-2.9-2.2-3.8-3.9-1-1.7-1.4-3.5-1.4-5.6 0-2 .4-3.9 1.3-5.6.9-1.7 2.1-3 3.7-3.9 1.6-1 3.4-1.4 5.4-1.4s3.8.5 5.4 1.5c1.6 1 2.6 2.1 3.2 3.5v-4.7h2.8v17c-.2 1 .1 1.7.6 2.3zM350 36.3c-1.2.7-2.1 1.7-2.8 2.9-.7 1.2-1 2.6-1 4.2s.3 3 1 4.2c.7 1.3 1.6 2.3 2.8 3s2.5 1.1 4.1 1.1 2.9-.4 4.1-1.1c1.2-.7 2.1-1.7 2.8-3s1-2.7 1-4.3c0-1.6-.3-2.9-1-4.2-.7-1.2-1.6-2.2-2.8-2.9-1.2-.7-2.6-1.1-4.2-1.1-1.4.1-2.8.5-4 1.2zm97.1-20.7c4.8 2.7 8.6 6.4 11.4 11.1 2.8 4.7 4.2 9.8 4.2 15.4 0 5.5-1.4 10.6-4.2 15.3-2.8 4.7-6.6 8.4-11.4 11.1-4.8 2.7-10.1 4.1-15.8 4.1h-24.2v-61h24.2c5.7 0 11 1.3 15.8 4zm-2 49.7c4.2-2.4 7.6-5.7 10-9.8 2.5-4.1 3.7-8.6 3.7-13.5s-1.2-9.5-3.7-13.6-5.8-7.4-10-9.8c-4.2-2.4-8.9-3.6-13.9-3.6h-20.5v53.8h20.6c5 .1 9.6-1.1 13.8-3.5zm68.7-48.7c-3.3-1.3-6.8-2-10.4-2-5.1 0-9.7 1.2-14 3.7-4.3 2.4-7.7 5.8-10.2 9.9-2.5 4.2-3.8 8.8-3.8 13.7 0 4.9 1.2 9.5 3.8 13.7 2.5 4.2 5.9 7.5 10.2 10s8.9 3.7 14 3.7c3.6 0 7-.7 10.3-2s6.2-3.2 8.9-5.5l2.3 2.5c-2.8 2.7-6.1 4.8-9.9 6.3-3.8 1.5-7.6 2.3-11.6 2.3-5.7 0-11-1.4-15.8-4.1-4.8-2.8-8.6-6.5-11.5-11.3-2.8-4.7-4.2-9.9-4.2-15.5s1.4-10.7 4.2-15.5c2.8-4.7 6.6-8.5 11.5-11.3 4.8-2.8 10.1-4.1 15.8-4.1 4 0 7.9.7 11.6 2.2 3.7 1.5 7 3.5 9.9 6.1l-2.2 2.8c-2.6-2.4-5.6-4.2-8.9-5.6z"/><path class="st0" d="M18.9 26.2h24.6v2H32.2v31.5h-2V28.1H18.9v-1.9zm28.5 0h2v15.7H72V26.2h2v33.4h-2V43.8H49.4v15.8h-2V26.2zm35.7 0h21.6v2H85.1v13.3h17.4v2H85.1v14.2h20.2v2H83.1V26.2zm53.4-14.6h11.7V62h26.3v10.5h-38V11.6zm96.3 60.9l-5.4-12.9h-29.8l-5.4 12.9h-12.1l26.7-60.9h12.1l26.4 60.9h-12.5zm-31-22.9h21.4L212.6 24l-10.8 25.6zm93.1-33.9c3.7 2.7 5.6 6.4 5.6 11.1 0 3.4-.9 6.3-2.8 8.7-1.9 2.4-4.5 4-7.8 4.8 4.1.8 7.2 2.5 9.5 5.2s3.4 6.1 3.4 10.2c0 5.2-2 9.3-6 12.3s-9.5 4.5-16.5 4.5h-27.9V11.6h27.1c6.6 0 11.7 1.4 15.4 4.1zm-8.8 18.8c1.7-1.3 2.6-3.2 2.6-5.6 0-2.3-.9-4.1-2.6-5.4-1.7-1.3-4.1-1.9-7.1-1.8h-14.8v14.8H279c3 0 5.4-.7 7.1-2zm1.6 25.8c2.1-1.4 3.1-3.5 3.1-6.1 0-2.5-1-4.5-3.1-5.9s-5-2.1-8.7-2h-14.8v16.1H279c3.7.1 6.6-.6 8.7-2.1zm78.1-8.1c.5.6 1.1.9 1.9.9.9 0 1.7-.4 2.5-1.2.7-.8 1.3-1.9 1.8-3.3.4-1.4.6-3.1.6-4.9 0-3.3-.7-6.3-2.2-8.9s-3.5-4.7-6.2-6.2c-2.6-1.5-5.6-2.3-9-2.3-3.3 0-6.3.8-9.1 2.3-2.7 1.5-4.9 3.6-6.4 6.2-1.6 2.7-2.3 5.6-2.3 8.9 0 3.2.7 6 2.2 8.5s3.6 4.5 6.2 5.9 5.6 2.2 8.8 2.2c1.3 0 2.7-.2 4.3-.6 1.5-.4 2.8-1 3.9-1.7l1.1 2c-1.2.8-2.7 1.4-4.4 1.8-1.7.5-3.4.7-4.9.7-3.7 0-7-.8-10-2.4s-5.3-3.9-7-6.8-2.5-6.1-2.5-9.7c0-3.7.9-7 2.6-10 1.8-3 4.2-5.3 7.2-7 3.1-1.7 6.5-2.5 10.3-2.5 3.7 0 7.1.8 10.1 2.5s5.3 4 7 7 2.5 6.3 2.5 10c0 2.3-.3 4.3-.9 6.1-.6 1.7-1.5 3.1-2.6 4-1.1 1-2.4 1.4-3.9 1.4-1.3 0-2.3-.4-3.1-1.1s-1.3-1.8-1.4-3.1v-1.8c-.9 1.7-2.1 3-3.6 3.9-1.6.9-3.3 1.4-5.3 1.4s-3.7-.5-5.4-1.4c-1.6-.9-2.9-2.2-3.8-3.9-1-1.7-1.4-3.5-1.4-5.6 0-2 .4-3.9 1.3-5.6.9-1.7 2.1-3 3.7-3.9 1.6-1 3.4-1.4 5.4-1.4s3.8.5 5.4 1.5c1.6 1 2.6 2.1 3.2 3.5v-4.7h2.8v17c-.2 1 .1 1.7.6 2.3zM350 36.3c-1.2.7-2.1 1.7-2.8 2.9-.7 1.2-1 2.6-1 4.2s.3 3 1 4.2c.7 1.3 1.6 2.3 2.8 3s2.5 1.1 4.1 1.1 2.9-.4 4.1-1.1c1.2-.7 2.1-1.7 2.8-3s1-2.7 1-4.3c0-1.6-.3-2.9-1-4.2-.7-1.2-1.6-2.2-2.8-2.9-1.2-.7-2.6-1.1-4.2-1.1-1.4.1-2.8.5-4 1.2zm97.1-20.7c4.8 2.7 8.6 6.4 11.4 11.1 2.8 4.7 4.2 9.8 4.2 15.4 0 5.5-1.4 10.6-4.2 15.3-2.8 4.7-6.6 8.4-11.4 11.1-4.8 2.7-10.1 4.1-15.8 4.1h-24.2v-61h24.2c5.7 0 11 1.3 15.8 4zm-2 49.7c4.2-2.4 7.6-5.7 10-9.8 2.5-4.1 3.7-8.6 3.7-13.5s-1.2-9.5-3.7-13.6-5.8-7.4-10-9.8c-4.2-2.4-8.9-3.6-13.9-3.6h-20.5v53.8h20.6c5 .1 9.6-1.1 13.8-3.5zm68.7-48.7c-3.3-1.3-6.8-2-10.4-2-5.1 0-9.7 1.2-14 3.7-4.3 2.4-7.7 5.8-10.2 9.9-2.5 4.2-3.8 8.8-3.8 13.7 0 4.9 1.2 9.5 3.8 13.7 2.5 4.2 5.9 7.5 10.2 10s8.9 3.7 14 3.7c3.6 0 7-.7 10.3-2s6.2-3.2 8.9-5.5l2.3 2.5c-2.8 2.7-6.1 4.8-9.9 6.3-3.8 1.5-7.6 2.3-11.6 2.3-5.7 0-11-1.4-15.8-4.1-4.8-2.8-8.6-6.5-11.5-11.3-2.8-4.7-4.2-9.9-4.2-15.5s1.4-10.7 4.2-15.5c2.8-4.7 6.6-8.5 11.5-11.3 4.8-2.8 10.1-4.1 15.8-4.1 4 0 7.9.7 11.6 2.2 3.7 1.5 7 3.5 9.9 6.1l-2.2 2.8c-2.6-2.4-5.6-4.2-8.9-5.6z"/></svg>