<?xml version="1.0" encoding="utf-8"?>
<!-- Generator: Adobe Illustrator 21.0.2, SVG Export Plug-In . SVG Version: 6.00 Build 0)  -->
<svg version="1.1" id="Camada_1" xmlns="http://www.w3.org/2000/svg" xmlns:xlink="http://www.w3.org/1999/xlink" x="0px" y="0px"
	 viewBox="0 0 500 180" style="enable-background:new 0 0 500 180;" xml:space="preserve">
<style type="text/css">
	.st0{fill:#FFFFFF;}
</style>
<g>
	<g>
		<path class="st0" d="M189.1,100.8V81.2h-6.5v-0.7h14.5v0.7h-6.5v19.6C190.6,100.8,189.1,100.8,189.1,100.8z"/>
		<path class="st0" d="M214.6,100.8V90.6h-13.8v10.2h-0.7V80.4h0.7v9.4h13.8v-9.4h0.7v20.4H214.6z"/>
		<path class="st0" d="M221.1,100.8V80.4h13.1v0.7h-11.6v8.7h10.9v0.7h-10.9v8.7h11.6v1.5h-13.1V100.8z"/>
		<g>
			<path class="st0" d="M253.8,108.8V71.7h6.5V103h16v5.8H253.8z"/>
			<path class="st0" d="M310.6,108.8l-2.7-7.3h-17l-2.7,7.3h-7.4l14.6-37.1h8.1l14.6,37.1H310.6z M299.3,78l-6.7,17.7H306L299.3,78z
				"/>
			<path class="st0" d="M324.3,108.8V71.7h18.4c6.8,0,10.6,4.1,10.6,9.3c0,4.7-3,7.7-6.4,8.4c3.9,0.6,7.2,4.6,7.2,9.2
				c0,5.7-3.8,10.1-10.8,10.1h-19V108.8z M346.7,82.3c0-2.8-1.9-4.8-5.2-4.8h-10.6V87h10.6C344.8,87,346.7,85.1,346.7,82.3z
				 M347.4,97.9c0-2.8-1.9-5.1-5.7-5.1h-10.9V103h10.9C345.3,103,347.4,101.1,347.4,97.9z"/>
		</g>
		<path class="st0" d="M375.1,92.4c0-7.3,6.3-13.2,13.3-13.2c6.2,0,10.5,4.8,10.5,10.9c0,4.9-2.2,7.5-4.9,7.5
			c-1.8,0-2.7-1.4-2.7-2.9v-0.2c-1.5,1.6-3.4,3.1-5.8,3.1c-3,0-5.1-2-5.1-5.3c0-4.8,4.1-8.6,8.1-8.6c2.3,0,3.8,1.5,4.4,3.1l0.5-2.1
			h1l-2.1,9.6c0,0.2,0,0.3,0,0.5c0,1.2,0.8,1.9,1.8,1.9c1.3,0,4.1-1.4,4.1-6.7c0-5.6-3.9-9.9-9.7-9.9c-6.6,0-12.2,5.8-12.2,12.1
			c0,5.4,4.1,9.5,9.7,9.5c2.5,0,4.5-0.8,6.3-1.9l0.5,0.8c-2.1,1.3-4.5,2.1-6.9,2.1C379.6,102.9,375.1,98.3,375.1,92.4z M391.2,93.1
			l1.1-5.2c-0.4-1.3-1.7-3.1-4.1-3.1c-3.9,0-7,3.8-7,7.7c0,2.5,1.4,4.4,4,4.4C387.9,96.8,390.1,94.8,391.2,93.1z"/>
		<path class="st0" d="M418.8,108.1V71.7h10.5c11.2,0,18,8.6,18,18.2c0,9.7-6.8,18.1-18,18.1h-10.5V108.1z M445.4,89.9
			c0-9-5.8-16.7-16.1-16.7h-9v33.4h9C439.5,106.6,445.4,99.1,445.4,89.9z"/>
		<path class="st0" d="M454.4,89.9c0-11.1,8-18.7,18-18.7c5.1,0,9.4,2,12.6,5.7l-1.4,1.2c-2.5-3.2-6.7-5.3-11.2-5.3
			c-9,0-16.1,6.9-16.1,17.1c0,10.1,7.1,17.1,16.1,17.1c4.5,0,8.7-2.1,11.2-5.3l1.4,1.1c-3.4,3.8-7.5,5.7-12.6,5.7
			C462.4,108.6,454.4,101,454.4,89.9z"/>
	</g>
	<g>
		<path class="st0" d="M91.2,66c-1.9,0-3.4,1.5-3.4,3.4s1.5,3.4,3.4,3.4s3.4-1.5,3.4-3.4S93.1,66,91.2,66z M92,70.6
			c-0.2,0.1-0.5,0.2-0.8,0.2s-0.5-0.1-0.8-0.2c-0.4-0.2-0.6-0.7-0.6-1.1s0.2-0.9,0.6-1.1c0.2-0.1,0.5-0.2,0.8-0.2s0.5,0.1,0.8,0.2
			c0.4,0.2,0.6,0.7,0.6,1.1S92.3,70.3,92,70.6z"/>
		<circle class="st0" cx="83.6" cy="84.8" r="3.4"/>
		<circle class="st0" cx="121.4" cy="92.5" r="3.4"/>
		<path class="st0" d="M121.4,73.7c-1.9,0-3.4,1.5-3.4,3.4s1.5,3.4,3.4,3.4s3.4-1.5,3.4-3.4S123.3,73.7,121.4,73.7z M122.2,78.2
			c-0.2,0.1-0.5,0.2-0.8,0.2s-0.5-0.1-0.8-0.2c-0.4-0.2-0.6-0.7-0.6-1.1s0.2-0.9,0.6-1.1c0.2-0.1,0.5-0.2,0.8-0.2s0.5,0.1,0.8,0.2
			c0.4,0.2,0.6,0.7,0.6,1.1S122.6,78,122.2,78.2z"/>
		<path class="st0" d="M98.8,81.3c-1.9,0-3.4,1.5-3.4,3.4s1.5,3.4,3.4,3.4s3.4-1.5,3.4-3.4C102.2,82.9,100.7,81.3,98.8,81.3z
			 M98.8,85.4c-0.4,0-0.6-0.3-0.6-0.6c0-0.4,0.3-0.6,0.6-0.6c0.4,0,0.6,0.3,0.6,0.6S99.1,85.4,98.8,85.4z"/>
		<path class="st0" d="M91.2,42.9c-1.9,0-3.4,1.5-3.4,3.4s1.5,3.4,3.4,3.4s3.4-1.5,3.4-3.4S93.1,42.9,91.2,42.9z M91.2,47
			c-0.4,0-0.6-0.3-0.6-0.6c0-0.4,0.3-0.6,0.6-0.6s0.6,0.3,0.6,0.6C91.8,46.7,91.5,47,91.2,47z"/>
		<circle class="st0" cx="83.6" cy="100.1" r="3.4"/>
		<path class="st0" d="M91.2,104.4c-1.9,0-3.4,1.5-3.4,3.4s1.5,3.4,3.4,3.4s3.4-1.5,3.4-3.4S93.1,104.4,91.2,104.4z M91.2,108.5
			c-0.4,0-0.6-0.3-0.6-0.6c0-0.4,0.3-0.6,0.6-0.6s0.6,0.3,0.6,0.6C91.8,108.2,91.5,108.5,91.2,108.5z"/>
		<path class="st0" d="M136.5,89c-1.9,0-3.4,1.5-3.4,3.4s1.5,3.4,3.4,3.4s3.4-1.5,3.4-3.4C140,90.6,138.4,89,136.5,89z M136.5,93.1
			c-0.4,0-0.6-0.3-0.6-0.6s0.3-0.6,0.6-0.6c0.4,0,0.6,0.3,0.6,0.6S136.9,93.1,136.5,93.1z"/>
		<path class="st0" d="M129,96.7c-1.9,0-3.4,1.5-3.4,3.4s1.5,3.4,3.4,3.4c1.9,0,3.4-1.5,3.4-3.4S130.9,96.7,129,96.7z M129,100.8
			c-0.4,0-0.6-0.3-0.6-0.6c0-0.4,0.3-0.6,0.6-0.6s0.6,0.3,0.6,0.6S129.3,100.8,129,100.8z"/>
		<path class="st0" d="M83.6,119.8c-1.9,0-3.4,1.5-3.4,3.4s1.5,3.4,3.4,3.4s3.4-1.5,3.4-3.4C87.1,121.3,85.5,119.8,83.6,119.8z
			 M83.6,123.8c-0.4,0-0.6-0.3-0.6-0.6c0-0.4,0.3-0.6,0.6-0.6s0.6,0.3,0.6,0.6C84.3,123.5,84,123.8,83.6,123.8z"/>
		<circle class="st0" cx="98.8" cy="107.8" r="3.4"/>
		<path class="st0" d="M106.3,96.7c-1.9,0-3.4,1.5-3.4,3.4s1.5,3.4,3.4,3.4s3.4-1.5,3.4-3.4C109.7,98.2,108.2,96.7,106.3,96.7z
			 M106.3,101.5c-0.8,0-1.4-0.6-1.4-1.4s0.6-1.4,1.4-1.4s1.4,0.6,1.4,1.4S107.1,101.5,106.3,101.5z"/>
		<path class="st0" d="M76.1,73.7c-1.9,0-3.4,1.5-3.4,3.4s1.5,3.4,3.4,3.4s3.4-1.5,3.4-3.4S78,73.7,76.1,73.7z M76.1,77.7
			c-0.4,0-0.6-0.3-0.6-0.6c0-0.4,0.3-0.6,0.6-0.6s0.6,0.3,0.6,0.6C76.7,77.4,76.4,77.7,76.1,77.7z"/>
		<circle class="st0" cx="68.5" cy="84.8" r="3.4"/>
		<circle class="st0" cx="68.5" cy="69.4" r="3.4"/>
		<circle class="st0" cx="83.7" cy="53.9" r="3.4"/>
		<circle class="st0" cx="61" cy="77.1" r="3.4"/>
		<path class="st0" d="M68.5,26.7c1.9,0,3.4-1.5,3.4-3.4s-1.5-3.4-3.4-3.4s-3.4,1.5-3.4,3.4S66.6,26.7,68.5,26.7z M68.5,22.7
			c0.4,0,0.6,0.3,0.6,0.6c0,0.4-0.3,0.6-0.6,0.6c-0.4,0-0.6-0.3-0.6-0.6S68.1,22.7,68.5,22.7z"/>
		<path class="st0" d="M45.9,66c-1.9,0-3.4,1.5-3.4,3.4s1.5,3.4,3.4,3.4s3.4-1.5,3.4-3.4C49.3,67.5,47.8,66,45.9,66z M45.9,70.1
			c-0.4,0-0.6-0.3-0.6-0.6c0-0.4,0.3-0.6,0.6-0.6s0.6,0.3,0.6,0.6C46.5,69.8,46.2,70.1,45.9,70.1z"/>
		<path class="st0" d="M30.7,66c-1.9,0-3.4,1.5-3.4,3.4s1.5,3.4,3.4,3.4c1.9,0,3.4-1.5,3.4-3.4C34.2,67.5,32.6,66,30.7,66z
			 M30.7,70.8c-0.8,0-1.4-0.6-1.4-1.4S30,68,30.7,68c0.8,0,1.4,0.6,1.4,1.4S31.5,70.8,30.7,70.8z"/>
		<path class="st0" d="M38.3,73.7c-1.9,0-3.4,1.5-3.4,3.4s1.5,3.4,3.4,3.4s3.4-1.5,3.4-3.4S40.2,73.7,38.3,73.7z M38.3,78.5
			c-0.8,0-1.4-0.6-1.4-1.4s0.6-1.4,1.4-1.4s1.4,0.6,1.4,1.4S39.1,78.5,38.3,78.5z"/>
		<path class="st0" d="M53.4,73.7c-1.9,0-3.4,1.5-3.4,3.4s1.5,3.4,3.4,3.4s3.4-1.5,3.4-3.4C56.9,75.2,55.3,73.7,53.4,73.7z
			 M53.4,78.5c-0.8,0-1.4-0.6-1.4-1.4s0.6-1.4,1.4-1.4c0.8,0,1.4,0.6,1.4,1.4S54.2,78.5,53.4,78.5z"/>
		<path class="st0" d="M113.9,66c-1.9,0-3.4,1.5-3.4,3.4s1.5,3.4,3.4,3.4s3.4-1.5,3.4-3.4S115.8,66,113.9,66z M113.9,70.1
			c-0.4,0-0.6-0.3-0.6-0.6c0-0.4,0.3-0.6,0.6-0.6c0.4,0,0.6,0.3,0.6,0.6C114.5,69.8,114.2,70.1,113.9,70.1z"/>
		<path class="st0" d="M45.9,81.3c-1.9,0-3.4,1.5-3.4,3.4s1.5,3.4,3.4,3.4s3.4-1.5,3.4-3.4C49.3,82.9,47.8,81.3,45.9,81.3z
			 M45.9,85.4c-0.4,0-0.6-0.3-0.6-0.6c0-0.4,0.3-0.6,0.6-0.6s0.6,0.3,0.6,0.6S46.2,85.4,45.9,85.4z"/>
		<path class="st0" d="M68.5,89c-1.9,0-3.4,1.5-3.4,3.4s1.5,3.4,3.4,3.4s3.4-1.5,3.4-3.4C72,90.6,70.4,89,68.5,89z M68.5,93.8
			c-0.8,0-1.4-0.6-1.4-1.4s0.6-1.4,1.4-1.4s1.4,0.6,1.4,1.4C69.9,93.2,69.3,93.8,68.5,93.8z"/>
		<path class="st0" d="M53.4,89c-1.9,0-3.4,1.5-3.4,3.4s1.5,3.4,3.4,3.4s3.4-1.5,3.4-3.4C56.9,90.6,55.3,89,53.4,89z M53.4,93.1
			c-0.4,0-0.6-0.3-0.6-0.6s0.3-0.6,0.6-0.6s0.6,0.3,0.6,0.6S53.8,93.1,53.4,93.1z"/>
		<circle class="st0" cx="68.5" cy="107.8" r="3.4"/>
		<path class="st0" d="M76.1,112.1c-1.9,0-3.4,1.5-3.4,3.4s1.5,3.4,3.4,3.4s3.4-1.5,3.4-3.4S78,112.1,76.1,112.1z M76.1,116.9
			c-0.8,0-1.4-0.6-1.4-1.4s0.6-1.4,1.4-1.4s1.4,0.6,1.4,1.4S76.8,116.9,76.1,116.9z"/>
		<circle class="st0" cx="76.1" cy="123.2" r="3.4"/>
		<path class="st0" d="M68.5,127.4c-1.9,0-3.4,1.5-3.4,3.4c0,1.9,1.5,3.4,3.4,3.4s3.4-1.5,3.4-3.4C72,129,70.4,127.4,68.5,127.4z
			 M68.5,131.5c-0.4,0-0.6-0.3-0.6-0.6c0-0.4,0.3-0.6,0.6-0.6s0.6,0.3,0.6,0.6C69.2,131.2,68.9,131.5,68.5,131.5z"/>
		<path class="st0" d="M113.6,112c-1.9,0-3.4,1.5-3.4,3.4s1.5,3.4,3.4,3.4s3.4-1.5,3.4-3.4C117.1,113.6,115.5,112,113.6,112z
			 M113.9,116.9c-0.8,0-1.4-0.6-1.4-1.4s0.6-1.4,1.4-1.4s1.4,0.6,1.4,1.4S114.6,116.9,113.9,116.9z"/>
		<path class="st0" d="M83.6,135.1c-1.9,0-3.4,1.5-3.4,3.4s1.5,3.4,3.4,3.4s3.4-1.5,3.4-3.4C87.1,136.7,85.5,135.1,83.6,135.1z
			 M83.6,139.9c-0.8,0-1.4-0.6-1.4-1.4c0-0.8,0.6-1.4,1.4-1.4s1.4,0.6,1.4,1.4C85,139.3,84.4,139.9,83.6,139.9z"/>
		<path class="st0" d="M98.8,112.1c-1.9,0-3.4,1.5-3.4,3.4s1.5,3.4,3.4,3.4s3.4-1.5,3.4-3.4C102.2,113.6,100.7,112.1,98.8,112.1z
			 M98.8,116.9c-0.8,0-1.4-0.6-1.4-1.4s0.6-1.4,1.4-1.4s1.4,0.6,1.4,1.4S99.5,116.9,98.8,116.9z"/>
		<path class="st0" d="M98.8,127.4c-1.9,0-3.4,1.5-3.4,3.4c0,1.9,1.5,3.4,3.4,3.4s3.4-1.5,3.4-3.4C102.2,129,100.7,127.4,98.8,127.4
			z M98.8,132.2c-0.8,0-1.4-0.6-1.4-1.4c0-0.8,0.6-1.4,1.4-1.4s1.4,0.6,1.4,1.4C100.1,131.6,99.5,132.2,98.8,132.2z"/>
		<circle class="st0" cx="91.2" cy="138.5" r="3.4"/>
		<path class="st0" d="M68.5,158.1c-1.9,0-3.4,1.5-3.4,3.4s1.5,3.4,3.4,3.4s3.4-1.5,3.4-3.4S70.4,158.1,68.5,158.1z M68.5,162.2
			c-0.4,0-0.6-0.3-0.6-0.6c0-0.4,0.3-0.6,0.6-0.6s0.6,0.3,0.6,0.6C69.2,161.9,68.9,162.2,68.5,162.2z"/>
		<path class="st0" d="M61,112.1c-1.9,0-3.4,1.5-3.4,3.4s1.5,3.4,3.4,3.4s3.4-1.5,3.4-3.4S62.9,112.1,61,112.1z M61,116.1
			c-0.4,0-0.6-0.3-0.6-0.6c0-0.4,0.3-0.6,0.6-0.6c0.4,0,0.6,0.3,0.6,0.6C61.6,115.9,61.3,116.1,61,116.1z"/>
		<path class="st0" d="M68.5,42.9c-1.9,0-3.4,1.5-3.4,3.4s1.5,3.4,3.4,3.4s3.4-1.5,3.4-3.4S70.4,42.9,68.5,42.9z M68.5,47.7
			c-0.8,0-1.4-0.6-1.4-1.4c0-0.8,0.6-1.4,1.4-1.4s1.4,0.6,1.4,1.4C69.9,47.1,69.3,47.7,68.5,47.7z"/>
		<path class="st0" d="M23.2,66c-1.9,0-3.4,1.5-3.4,3.4s1.5,3.4,3.4,3.4s3.4-1.5,3.4-3.4S25.1,66,23.2,66z M23.2,70.1
			c-0.4,0-0.6-0.3-0.6-0.6c0-0.4,0.3-0.6,0.6-0.6c0.4,0,0.6,0.3,0.6,0.6C23.8,69.8,23.5,70.1,23.2,70.1z"/>
		<path class="st0" d="M53.4,65.2c1.9,0,3.4-1.5,3.4-3.4s-1.5-3.4-3.4-3.4S50,59.9,50,61.8S51.5,65.2,53.4,65.2z M53.4,60.4
			c0.8,0,1.4,0.6,1.4,1.4c0,0.8-0.6,1.4-1.4,1.4S52,62.6,52,61.8C52.1,61,52.7,60.4,53.4,60.4z"/>
		<path class="st0" d="M45.9,49.8c1.9,0,3.4-1.5,3.4-3.4S47.8,43,45.9,43s-3.4,1.5-3.4,3.4S44,49.8,45.9,49.8z M45.9,45
			c0.8,0,1.4,0.6,1.4,1.4c0,0.8-0.6,1.4-1.4,1.4c-0.8,0-1.4-0.6-1.4-1.4S45.1,45,45.9,45z"/>
		<circle class="st0" cx="76.1" cy="46.4" r="1.4"/>
		<path class="st0" d="M76.1,32.4c0.8,0,1.4-0.6,1.4-1.4s-0.6-1.4-1.4-1.4s-1.4,0.6-1.4,1.4C74.7,31.8,75.3,32.4,76.1,32.4z
			 M76.1,30.4c0.4,0,0.6,0.3,0.6,0.6c0,0.4-0.3,0.6-0.6,0.6s-0.6-0.3-0.6-0.6C75.4,30.7,75.7,30.4,76.1,30.4z"/>
		<path class="st0" d="M98.8,63.1c0.8,0,1.4-0.6,1.4-1.4c0-0.8-0.6-1.4-1.4-1.4s-1.4,0.6-1.4,1.4S98,63.1,98.8,63.1z M98.8,61.1
			c0.4,0,0.6,0.3,0.6,0.6c0,0.4-0.3,0.6-0.6,0.6c-0.4,0-0.6-0.3-0.6-0.6C98.1,61.4,98.4,61.1,98.8,61.1z"/>
		<circle class="st0" cx="98.8" cy="69.4" r="1.4"/>
		<circle class="st0" cx="106.3" cy="69.4" r="1.4"/>
		<circle class="st0" cx="113.9" cy="77.1" r="1.4"/>
		<circle class="st0" cx="113.9" cy="84.8" r="1.4"/>
		<path class="st0" d="M129,86.2c0.8,0,1.4-0.6,1.4-1.4s-0.6-1.4-1.4-1.4s-1.4,0.6-1.4,1.4C127.6,85.5,128.2,86.2,129,86.2z
			 M129,84.1c0.4,0,0.6,0.3,0.6,0.6c0,0.4-0.3,0.6-0.6,0.6s-0.6-0.3-0.6-0.6C128.3,84.4,128.6,84.1,129,84.1z"/>
		<path class="st0" d="M113.9,109.2c0.8,0,1.4-0.6,1.4-1.4s-0.6-1.4-1.4-1.4s-1.4,0.6-1.4,1.4S113.1,109.2,113.9,109.2z
			 M113.9,107.2c0.4,0,0.6,0.3,0.6,0.6c0,0.4-0.3,0.6-0.6,0.6c-0.4,0-0.6-0.3-0.6-0.6C113.2,107.5,113.5,107.2,113.9,107.2z"/>
		<path class="st0" d="M136.6,98.7c-0.8,0-1.4,0.6-1.4,1.4s0.6,1.4,1.4,1.4s1.4-0.6,1.4-1.4C138,99.3,137.3,98.7,136.6,98.7z
			 M136.5,100.8c-0.4,0-0.6-0.3-0.6-0.6c0-0.4,0.3-0.6,0.6-0.6c0.4,0,0.6,0.3,0.6,0.6C137.2,100.5,136.9,100.8,136.5,100.8z"/>
		<path class="st0" d="M121.4,106.4c-0.8,0-1.4,0.6-1.4,1.4s0.6,1.4,1.4,1.4s1.4-0.6,1.4-1.4S122.2,106.4,121.4,106.4z M121.4,108.5
			c-0.4,0-0.6-0.3-0.6-0.6c0-0.4,0.3-0.6,0.6-0.6s0.6,0.3,0.6,0.6C122.1,108.2,121.8,108.5,121.4,108.5z"/>
		<circle class="st0" cx="106.3" cy="115.5" r="1.4"/>
		<path class="st0" d="M106.3,121.8c-0.8,0-1.4,0.6-1.4,1.4s0.6,1.4,1.4,1.4s1.4-0.6,1.4-1.4C107.7,122.4,107.1,121.8,106.3,121.8z
			 M106.3,123.8c-0.4,0-0.6-0.3-0.6-0.6c0-0.4,0.3-0.6,0.6-0.6c0.4,0,0.6,0.3,0.6,0.6C107,123.5,106.7,123.8,106.3,123.8z"/>
		<path class="st0" d="M106.3,129.5c-0.8,0-1.4,0.6-1.4,1.4c0,0.8,0.6,1.4,1.4,1.4s1.4-0.6,1.4-1.4
			C107.7,130.1,107.1,129.5,106.3,129.5z M106.3,131.5c-0.4,0-0.6-0.3-0.6-0.6c0-0.4,0.3-0.6,0.6-0.6c0.4,0,0.6,0.3,0.6,0.6
			C107,131.2,106.7,131.5,106.3,131.5z"/>
		<path class="st0" d="M91.2,132.2c0.8,0,1.4-0.6,1.4-1.4c0-0.8-0.6-1.4-1.4-1.4s-1.4,0.6-1.4,1.4C89.8,131.6,90.4,132.2,91.2,132.2
			z M91.2,130.2c0.4,0,0.6,0.3,0.6,0.6c0,0.4-0.3,0.6-0.6,0.6s-0.6-0.3-0.6-0.6S90.8,130.2,91.2,130.2z"/>
		<circle class="st0" cx="91.2" cy="123.2" r="1.4"/>
		<path class="st0" d="M98.8,137.2c-0.8,0-1.4,0.6-1.4,1.4c0,0.8,0.6,1.4,1.4,1.4s1.4-0.6,1.4-1.4
			C100.1,137.8,99.5,137.2,98.8,137.2z M98.8,139.2c-0.4,0-0.6-0.3-0.6-0.6c0-0.4,0.3-0.6,0.6-0.6c0.4,0,0.6,0.3,0.6,0.6
			S99.1,139.2,98.8,139.2z"/>
		<circle class="st0" cx="113.9" cy="115.5" r="1.4"/>
		<path class="st0" d="M113.9,121.8c-0.8,0-1.4,0.6-1.4,1.4s0.6,1.4,1.4,1.4s1.4-0.6,1.4-1.4S114.6,121.8,113.9,121.8z M113.9,123.8
			c-0.4,0-0.6-0.3-0.6-0.6c0-0.4,0.3-0.6,0.6-0.6c0.4,0,0.6,0.3,0.6,0.6S114.2,123.8,113.9,123.8z"/>
		<path class="st0" d="M122.2,76c0.4,0.2,0.6,0.7,0.6,1.1s-0.2,0.9-0.6,1.1c0.4-0.2,0.6-0.7,0.6-1.1S122.6,76.2,122.2,76z"/>
		<path class="st0" d="M120,77.1c0-0.5,0.2-0.9,0.6-1.1C120.3,76.2,120,76.6,120,77.1s0.2,0.9,0.6,1.1C120.3,78,120,77.6,120,77.1z"
			/>
		<path class="st0" d="M83.6,40.1c0.8,0,1.4-0.6,1.4-1.4c0-0.8-0.6-1.4-1.4-1.4s-1.4,0.6-1.4,1.4C82.3,39.4,82.9,40.1,83.6,40.1z
			 M83.6,38c0.4,0,0.6,0.3,0.6,0.6c0,0.4-0.3,0.6-0.6,0.6S83,39,83,38.7C83,38.3,83.3,38,83.6,38z"/>
		<circle class="st0" cx="91.2" cy="54" r="1.4"/>
		<circle class="st0" cx="53.4" cy="46.4" r="1.4"/>
		<path class="st0" d="M53.4,40.1c0.8,0,1.4-0.6,1.4-1.4c0-0.8-0.6-1.4-1.4-1.4c-0.8,0-1.4,0.6-1.4,1.4C52,39.4,52.7,40.1,53.4,40.1
			z M53.4,38c0.4,0,0.6,0.3,0.6,0.6c0,0.4-0.3,0.6-0.6,0.6s-0.6-0.3-0.6-0.6C52.8,38.3,53.1,38,53.4,38z"/>
		<circle class="st0" cx="45.9" cy="46.4" r="1.4"/>
		<circle class="st0" cx="45.9" cy="61.7" r="1.4"/>
		<path class="st0" d="M67.1,38.7c0,0.8,0.6,1.4,1.4,1.4s1.4-0.6,1.4-1.4c0-0.8-0.6-1.4-1.4-1.4S67.1,37.9,67.1,38.7z M68.5,38
			c0.4,0,0.6,0.3,0.6,0.6c0,0.4-0.3,0.6-0.6,0.6s-0.6-0.3-0.6-0.6S68.2,38,68.5,38z"/>
		<circle class="st0" cx="61" cy="46.4" r="1.4"/>
		<circle class="st0" cx="38.3" cy="54" r="1.4"/>
		<circle class="st0" cx="68.5" cy="100.1" r="1.4"/>
		<path class="st0" d="M53.4,98.8c-0.8,0-1.4,0.6-1.4,1.4s0.6,1.4,1.4,1.4c0.8,0,1.4-0.6,1.4-1.4S54.2,98.8,53.4,98.8z M53.4,100.8
			c-0.4,0-0.6-0.3-0.6-0.6c0-0.4,0.3-0.6,0.6-0.6s0.6,0.3,0.6,0.6C54.1,100.5,53.8,100.8,53.4,100.8z"/>
		<circle class="st0" cx="76.1" cy="107.8" r="1.4"/>
		<circle class="st0" cx="76.1" cy="130.9" r="1.4"/>
		<circle class="st0" cx="76.1" cy="138.5" r="1.4"/>
		<circle class="st0" cx="83.6" cy="146.2" r="1.4"/>
		<circle class="st0" cx="76.1" cy="153.9" r="1.4"/>
		<circle class="st0" cx="68.5" cy="146.2" r="1.4"/>
		<circle class="st0" cx="83.6" cy="115.5" r="1.4"/>
		<circle class="st0" cx="68.5" cy="123.2" r="1.4"/>
		<circle class="st0" cx="61" cy="92.5" r="1.4"/>
		<circle class="st0" cx="23.2" cy="61.7" r="1.4"/>
		<circle class="st0" cx="23.2" cy="77.1" r="1.4"/>
		<path class="st0" d="M30.7,55.4c0.8,0,1.4-0.6,1.4-1.4c0-0.8-0.6-1.4-1.4-1.4s-1.4,0.6-1.4,1.4C29.4,54.8,30,55.4,30.7,55.4z
			 M30.7,53.4c0.4,0,0.6,0.3,0.6,0.6c0,0.4-0.3,0.6-0.6,0.6c-0.4,0-0.6-0.3-0.6-0.6S30.4,53.4,30.7,53.4z"/>
		<circle class="st0" cx="61" cy="54" r="1.4"/>
		<path class="st0" d="M53.4,55.4c0.8,0,1.4-0.6,1.4-1.4c0-0.8-0.6-1.4-1.4-1.4c-0.8,0-1.4,0.6-1.4,1.4C52,54.8,52.7,55.4,53.4,55.4
			z M53.4,53.4c0.4,0,0.6,0.3,0.6,0.6c0,0.4-0.3,0.6-0.6,0.6s-0.6-0.3-0.6-0.6C52.8,53.7,53.1,53.4,53.4,53.4z"/>
		<circle class="st0" cx="15.6" cy="69.4" r="0.6"/>
		<path class="st0" d="M30.7,54.7c-0.4,0-0.6-0.3-0.6-0.6c0-0.4,0.3-0.6,0.6-0.6c-0.4,0-0.6,0.3-0.6,0.6S30.4,54.7,30.7,54.7z"/>
		<circle class="st0" cx="30.7" cy="84.8" r="0.6"/>
		<circle class="st0" cx="30.7" cy="77.1" r="0.6"/>
		<circle class="st0" cx="45.9" cy="38.7" r="0.6"/>
		<circle class="st0" cx="38.3" cy="69.4" r="0.6"/>
		<circle class="st0" cx="30.7" cy="61.7" r="0.6"/>
		<circle class="st0" cx="53.4" cy="38.7" r="0.6"/>
		<circle class="st0" cx="53.4" cy="31" r="0.6"/>
		<circle class="st0" cx="76.1" cy="92.5" r="0.6"/>
		<circle class="st0" cx="61" cy="84.8" r="0.6"/>
		<circle class="st0" cx="76.1" cy="69.4" r="0.6"/>
		<circle class="st0" cx="38.3" cy="84.8" r="0.6"/>
		<circle class="st0" cx="45.9" cy="92.5" r="0.6"/>
		<circle class="st0" cx="61" cy="38.7" r="0.6"/>
		<circle class="st0" cx="61" cy="31" r="3.4"/>
		<circle class="st0" cx="61" cy="23.3" r="0.6"/>
		<circle class="st0" cx="61" cy="107.8" r="0.6"/>
		<circle class="st0" cx="61" cy="100.1" r="0.6"/>
		<circle class="st0" cx="68.5" cy="38.7" r="0.6"/>
		<circle class="st0" cx="68.5" cy="31" r="0.6"/>
		<circle class="st0" cx="68.5" cy="15.6" r="0.6"/>
		<circle class="st0" cx="68.5" cy="138.5" r="0.6"/>
		<circle class="st0" cx="91.2" cy="100.1" r="0.6"/>
		<circle class="st0" cx="83.6" cy="107.8" r="0.6"/>
		<circle class="st0" cx="68.5" cy="115.5" r="0.6"/>
		<circle class="st0" cx="68.5" cy="153.9" r="0.6"/>
		<circle class="st0" cx="76.1" cy="38.7" r="0.6"/>
		<circle class="st0" cx="76.1" cy="31" r="0.6"/>
		<circle class="st0" cx="76.1" cy="23.3" r="0.6"/>
		<circle class="st0" cx="76.1" cy="146.2" r="0.6"/>
		<circle class="st0" cx="83.6" cy="46.4" r="0.6"/>
		<circle class="st0" cx="83.6" cy="38.7" r="0.6"/>
		<circle class="st0" cx="83.6" cy="31" r="0.6"/>
		<circle class="st0" cx="83.6" cy="153.9" r="0.6"/>
		<circle class="st0" cx="91.2" cy="38.7" r="0.6"/>
		<circle class="st0" cx="91.2" cy="146.2" r="0.6"/>
		<circle class="st0" cx="98.8" cy="54" r="0.6"/>
		<circle class="st0" cx="98.8" cy="46.4" r="0.6"/>
		<circle class="st0" cx="98.8" cy="138.5" r="0.6"/>
		<circle class="st0" cx="106.3" cy="61.7" r="0.6"/>
		<circle class="st0" cx="61" cy="61.7" r="0.6"/>
		<circle class="st0" cx="68.5" cy="54" r="0.6"/>
		<circle class="st0" cx="45.9" cy="54" r="0.6"/>
		<circle class="st0" cx="53.4" cy="69.4" r="0.6"/>
		<circle class="st0" cx="106.3" cy="130.9" r="0.6"/>
		<circle class="st0" cx="91.2" cy="130.9" r="0.6"/>
		<circle class="st0" cx="83.6" cy="130.9" r="0.6"/>
		<circle class="st0" cx="113.9" cy="69.4" r="0.6"/>
		<circle class="st0" cx="113.9" cy="61.7" r="0.6"/>
		<circle class="st0" cx="113.9" cy="123.2" r="0.6"/>
		<circle class="st0" cx="106.3" cy="77.1" r="0.6"/>
		<circle class="st0" cx="121.4" cy="69.4" r="0.6"/>
		<circle class="st0" cx="121.4" cy="115.5" r="0.6"/>
		<circle class="st0" cx="121.4" cy="107.8" r="0.6"/>
		<circle class="st0" cx="106.3" cy="107.8" r="0.6"/>
		<circle class="st0" cx="91.2" cy="115.5" r="0.6"/>
		<circle class="st0" cx="98.8" cy="123.2" r="0.6"/>
		<circle class="st0" cx="98.8" cy="92.5" r="0.6"/>
		<circle class="st0" cx="91.2" cy="92.5" r="0.6"/>
		<circle class="st0" cx="121.4" cy="100.1" r="0.6"/>
		<circle class="st0" cx="113.9" cy="92.4" r="0.6"/>
		<circle class="st0" cx="121.4" cy="84.8" r="0.6"/>
		<circle class="st0" cx="129" cy="77.1" r="0.6"/>
		<circle class="st0" cx="129" cy="107.8" r="0.6"/>
		<circle class="st0" cx="136.5" cy="100.1" r="0.6"/>
		<circle class="st0" cx="129" cy="92.5" r="0.6"/>
		<circle class="st0" cx="129" cy="84.8" r="0.6"/>
		<path class="st0" d="M83.6,63.1c0.8,0,1.4-0.6,1.4-1.4c0-0.8-0.6-1.4-1.4-1.4s-1.4,0.6-1.4,1.4C82.3,62.5,82.9,63.1,83.6,63.1z
			 M83.6,61.1c0.4,0,0.6,0.3,0.6,0.6c0,0.4-0.3,0.6-0.6,0.6S83,62.1,83,61.7C83,61.4,83.3,61.1,83.6,61.1z"/>
		<circle class="st0" cx="136.5" cy="92.5" r="0.6"/>
		<circle class="st0" cx="144.1" cy="92.5" r="0.6"/>
		<circle class="st0" cx="136.5" cy="84.8" r="0.6"/>
		<circle class="st0" cx="38.3" cy="46.4" r="1.4"/>
		<circle class="st0" cx="76.1" cy="54" r="1.4"/>
		<circle class="st0" cx="91.2" cy="61.7" r="1.4"/>
		<circle class="st0" cx="106.3" cy="54" r="1.4"/>
		<circle class="st0" cx="68.5" cy="61.7" r="1.4"/>
		<circle class="st0" cx="76.1" cy="61.7" r="1.4"/>
		<circle class="st0" cx="83.6" cy="69.4" r="1.4"/>
		<path class="st0" d="M89.8,69.4c0-0.5,0.2-0.9,0.6-1.1C90.1,68.5,89.8,68.9,89.8,69.4s0.2,0.9,0.6,1.1
			C90.1,70.3,89.8,69.9,89.8,69.4z"/>
		<path class="st0" d="M92,68.3c0.4,0.2,0.6,0.7,0.6,1.1s-0.2,0.9-0.6,1.1c0.4-0.2,0.6-0.7,0.6-1.1S92.3,68.5,92,68.3z"/>
		<circle class="st0" cx="98.8" cy="77.1" r="1.4"/>
		<circle class="st0" cx="83.6" cy="77.1" r="1.4"/>
		<path class="st0" d="M91.2,78.5c0.8,0,1.4-0.6,1.4-1.4s-0.6-1.4-1.4-1.4s-1.4,0.6-1.4,1.4S90.4,78.5,91.2,78.5z M91.2,76.5
			c0.4,0,0.6,0.3,0.6,0.6c0,0.4-0.3,0.6-0.6,0.6s-0.6-0.3-0.6-0.6C90.6,76.7,90.8,76.5,91.2,76.5z"/>
		<circle class="st0" cx="106.3" cy="84.8" r="1.4"/>
		<path class="st0" d="M106.3,93.8c0.8,0,1.4-0.6,1.4-1.4s-0.6-1.4-1.4-1.4s-1.4,0.6-1.4,1.4C104.9,93.2,105.6,93.8,106.3,93.8z
			 M106.3,91.8c0.4,0,0.6,0.3,0.6,0.6s-0.3,0.6-0.6,0.6c-0.4,0-0.6-0.3-0.6-0.6S106,91.8,106.3,91.8z"/>
		<circle class="st0" cx="113.9" cy="100.1" r="1.4"/>
		<circle class="st0" cx="106.3" cy="100.1" r="1.4"/>
		<circle class="st0" cx="98.8" cy="100.1" r="1.4"/>
		<circle class="st0" cx="91.2" cy="84.8" r="1.4"/>
		<circle class="st0" cx="83.6" cy="92.5" r="1.4"/>
		<circle class="st0" cx="76.1" cy="100.1" r="1.4"/>
		<circle class="st0" cx="76" cy="84.8" r="1.4"/>
		<circle class="st0" cx="53.4" cy="84.8" r="1.4"/>
		<circle class="st0" cx="45.9" cy="77.1" r="1.4"/>
		<circle class="st0" cx="68.5" cy="77.1" r="1.4"/>
		<circle class="st0" cx="61" cy="69.4" r="1.4"/>
		<path class="st0" d="M38.3,58.3c-1.9,0-3.4,1.5-3.4,3.4s1.5,3.4,3.4,3.4s3.4-1.5,3.4-3.4S40.2,58.3,38.3,58.3z M38.3,63.1
			c-0.8,0-1.4-0.6-1.4-1.4c0-0.8,0.6-1.4,1.4-1.4s1.4,0.6,1.4,1.4S39.1,63.1,38.3,63.1z"/>
	</g>
</g>
</svg>
