<svg xmlns="http://www.w3.org/2000/svg" viewBox="0 0 526.6 173.4"><switch><g><path d="M31.5 17c.7 2.2 1.3 4.4 1.8 6.7 1.9.1 4.2 0 6 0-1.6 1.4-3.2 2.7-4.8 4.2.6 2.3 1.2 4.4 1.8 6.7-1.6-1.3-3.2-2.8-4.8-4.1-1.6 1.3-3.2 2.8-4.8 4l1.8-6.6c-1.4-1.3-2.8-2.5-4.2-3.7-.2-.1-.5-.3-.5-.5 1.9.1 4 .1 5.9 0 .6-2.2 1.2-4.5 1.8-6.7zm33.4 0c.6 2.2 1.2 4.4 1.8 6.7 1.9.1 4 .1 5.9 0 .1.2-.3.4-.4.5-1.4 1.2-2.9 2.5-4.2 3.6.5 2.3 1.2 4.5 1.8 6.6-.2.1-.4-.3-.6-.4-1.4-1.2-2.9-2.4-4.2-3.6-1.7 1.3-3.2 2.8-4.8 4.1l1.8-6.6c-1.1-1.1-2.4-2.2-3.6-3.2-.2-.2-.4-.4-.6-.5-.2-.2-.5-.3-.5-.5 1.9.1 4 .1 5.9 0 .5-2.2 1.1-4.5 1.7-6.7zm34.6 0c.6 2.2 1.2 4.5 1.9 6.7 2 0 4 .1 5.9 0-.1.2-.3.4-.5.5-1.4 1.2-2.9 2.5-4.2 3.7l1.8 6.6c-.2.1-.4-.2-.6-.4-1.3-1.2-2.8-2.4-4.2-3.6-1.7 1.3-3.2 2.8-4.8 4.1l1.8-6.6c-1.5-1.5-3.2-2.8-4.8-4.2 1.7-.1 4 0 5.9 0 .4-1 .7-2.1 1-3.2l.9-3.3-.1-.3zM34.3 37.2c.3-.1.4.4.5.8.7 2.3 1.4 4.7 2.1 6.9.8 2.7 1.7 5.4 2.3 8.1 1.2-5.3 2.6-10.3 3.9-15.5h1.7c-1.7 6.3-3.3 12.7-5 19.2-.1.4-.2 1.1-.4 1.2-.3 0-.7-1.7-.7-1.9-.6-2-1.2-4-1.8-6.1-.9-2.8-1.8-5.3-2.4-8.2-1.5 4.6-3 9.3-4.5 14.2-.1.4-.5 1.9-.7 1.9-.3 0-.4-.9-.5-1.2-1.7-6.3-3.4-12.8-5.1-19.2h1.8c1.3 5.2 2.7 10.2 3.9 15.5 1.5-5.4 3.2-10.5 4.9-15.7zm38.6 0c.3-.1.3.2.4.5 2.3 6.5 4.5 13.4 6.7 19.8h-1.8c-.4-1.1-.7-2.2-1.1-3.4h-8.2c-.4 1.1-.7 2.2-1.1 3.4h-1.7c2.3-6.7 4.5-13.5 6.8-20.3zm-3.4 15.1c2.3 0 4.7.1 7 0-1.2-3.7-2.4-7.4-3.5-11.2-1 4-2.4 7.4-3.5 11.2zM47.9 37.4h9.9v1.9h-8.1c-.1 3.1 0 6.3 0 9.4 2.3.1 4.9 0 7.3 0v1.8h-7.3v5c2.8.1 5.7 0 8.5 0v1.9H48v-20c-.1.1-.1 0-.1 0zm35.2 0c3.7-.2 6.9-.1 8.7 2.1 1.2 1.5 2 4.1 1.6 6.8-.3 2.4-1.6 4.2-3.3 5 1 2.1 2.4 4.2 3.4 6.2-.7-.2-1.3.2-1.9 0-.2-.1-.7-1-.9-1.3-.8-1.4-1.6-3-2.4-4.2-1 .3-2.4.1-3.6.2v5.3H83v-20c.1 0 .1-.1.1-.1zm1.7 2v10.9c4.2.5 6.9-1.1 6.9-5.5s-2.7-6-6.9-5.6v.2zm12.6-2h9.9v1.9h-8.1c-.1 3.1 0 6.3 0 9.4 2.3.1 4.9 0 7.3 0v1.8h-7.3v5c2.8.1 5.7 0 8.5 0v1.9H97.5v-20c-.2.1-.2 0-.1 0zM23.9 60.3h83.5V67H23.9v-6.7zM93.8 69c2.7-.2 4.7 2.1 4.7 5.3 0 3.3-2.2 5.3-4.5 5.2-2.5 0-4.4-2.2-4.4-5.3 0-1.6.6-2.9 1.2-3.7.8-.8 1.7-1.4 3-1.5zm-1.3 8c.9.8 2.4.8 3.3 0 .9-.9 1.4-3 .6-4.6-.4-.8-1.3-1.7-2.6-1.5-2.3.3-3.2 4.3-1.3 6.1zM32 75.1c.5-2.1 1.1-4 1.7-6h1.7c-.5 1.7-1.1 3.5-1.6 5.2-.5 1.8-1 3.5-1.6 5.2-.2-.1-.2-.5-.3-.7-.7-1.8-1.6-3.7-2.1-5.7-.8 2.2-1.6 4.4-2.6 6.5-.3-.3-.4-.8-.5-1.2-.9-3-1.9-6.1-2.8-9.2h1.8c.6 2 1.3 3.8 1.7 6 .6-2.2 1.4-4.1 2.2-6.1.3.2.5 1 .7 1.5.7 1.3 1.4 2.8 1.7 4.5zm11.8 4.3c-.5.1-1.2 0-1.8 0-.1-.4-.3-.8-.4-1.2h-3.4c-.2.3-.3.7-.4 1.2h-1.7c.6-1.6 1.2-3.4 1.9-5.2.6-1.8 1.2-3.6 1.9-5.2 0-.1 0-.1.1-.1 1.3 3.5 2.5 7.1 3.8 10.5zm-5.1-2.9h2.2l-1.2-3.6c-.2 1.3-.6 2.4-1 3.6zm11.2-5.9c-.4.4-.9.7-1.3 1.1-.1-.6-1.3-1.4-1.8-.6-.2.2-.2.7-.1 1 .2.6 1.1 1 1.6 1.2 1.2.6 2.2 1.4 2.2 3.2 0 4-5.2 3.7-6.1.8.4-.4.9-.7 1.4-1 .3.2.4.7.8 1 .7.5 2.2.4 2.2-.8 0-.9-.8-1.1-1.3-1.4-1.2-.6-2.5-1.3-2.5-3.4 0-1.6.9-2.6 2.2-2.8 1.1-.1 2 .5 2.7 1.7zm19.9 4.7c-.1-1.8-.1-4.1-.1-6.2h1.6v10.5c-.3 0-.6-.4-.8-.7-1.5-1.8-3.3-3.6-4.7-5.6.2 1.9.1 4.1.1 6.2h-1.6V69h.1c.4.2 1 1.1 1.4 1.5 1.4 1.5 3 3.2 4 4.8zm9.4-3.5c-.5-.7-1.3-1-2.2-.9-1.5.2-2.4 1.9-2.2 3.9.2 2.4 2.3 3.5 4.5 2.5v-1.5c-.6-.1-1.4 0-2.1 0V74h3.7v4.4c-2 1.9-5.7 1.5-7.1-.9-.9-1.5-1-3.9-.4-5.6.7-1.9 2.2-3.1 4.5-2.9.7.1 1.6.4 2.1.8l.5.5c0 .1-.5.6-.6.8l-.7.7zm26.3 3.5c-.1-1.8-.1-4.1-.1-6.2h1.6v10.5c-.3 0-.6-.4-.8-.7-1.5-1.8-3.3-3.6-4.7-5.6.2 1.9.1 4.1.1 6.2H100V69h.1c.4.2 1 1.1 1.4 1.5 1.4 1.5 3 3.2 4 4.8zm-53.7-6.2h1.7v5.3h3.6c.1-1.7 0-3.5 0-5.3h1.8v10.4h-1.8v-3.1c-1.1-.1-2.5 0-3.7 0v3.2h-1.8c.2-3.6.1-7.2.2-10.5zm9 0h1.7v10.4h-1.8V69.3l.1-.2zm21.3 0h6.6V71h-2.4c-.1 2.7 0 5.7 0 8.5h-1.8V71c-.7-.1-1.6 0-2.4 0 0-.7-.1-1.4 0-1.9zM23.9 81.9h83.5v6.7H23.9v-6.7zm82.7 20.6c-1.3 1-2.5 2.1-3.7 3.2-3.6-5.5-9.1-9.7-17.5-9.3-2.6.1-5 .9-6.9 1.8-3.9 1.9-7 5.1-9.2 9.2-2.2 4-3.7 9.6-3.4 16 .2 6.2 1.9 11.1 4.3 14.9 2.5 3.9 5.7 6.8 9.9 8.4 2.2.8 4.7 1.4 7.3 1.2 2.6-.1 5.1-.6 7.2-1.5 4.2-1.8 7.2-4.7 9.7-8.5 1.2 1.1 2.5 2.1 3.7 3.2-2.6 4.1-5.9 7.4-10.2 9.6-4.1 2.1-9.9 3.3-15.7 2.2-5.1-1-9.2-3.4-12.5-6.7-3.3-3.3-5.9-7.5-7.5-12.7-3.7 11.4-11.7 18.4-24.7 18.8-4.4.1-8.9-.1-13.5 0V91.5c4.6.2 9.2-.2 13.6 0 13 .7 21.1 7.3 24.7 19.2 1.8-5.5 4.7-10.1 8.5-13.5 3.9-3.4 8.5-5.7 14.8-6 5-.3 9.5 1.1 12.7 3.1 3.6 2 6.3 4.8 8.4 8.2zm-77.8-5.7v50.1c4.5 0 8.7.2 12.3-.4 3.7-.6 6.8-2 9.3-4 5-4.1 8.1-10.7 8.1-20.6 0-9.9-3.1-16.6-8.1-20.6-2.6-2.1-5.6-3.4-9.3-4.1-3.7-.7-7.9-.4-12.4-.4.2-.1.1 0 .1 0z" fill-rule="evenodd" clip-rule="evenodd" fill="#be202e"/><path d="M117.8 100.1h4.6c6.3 0 10.2 3.7 10.2 9.4s-3.9 9.4-10.2 9.4h-4.6v-18.8zm4.5 17.1c5.6 0 8.2-3.1 8.2-7.6s-2.7-7.6-8.2-7.6h-2.4v15.2h2.4zm14.5-17.1h2V119h-2v-18.9zm5.5 15.3l1.7-.9c.9 1.6 2.2 2.9 4.9 2.9 2.2 0 3.9-1.2 3.9-3.2 0-1.9-1.2-2.9-3.5-3.9l-1.5-.7c-2.7-1.2-4.2-2.5-4.2-5.2s2.1-4.5 5-4.5c2.5 0 4.1 1.2 5.1 2.8l-1.6 1c-.7-1.2-1.7-2.1-3.5-2.1-1.9 0-3 1.1-3 2.7 0 1.7.9 2.4 3 3.4l1.5.7c3.1 1.4 4.7 2.9 4.7 5.8 0 3.1-2.5 5-5.9 5-3.7 0-5.6-1.8-6.6-3.8zm20.2-13.5h-5.8v-1.8h13.6v1.8h-5.8V119h-2v-17.1zM186 119h-2.4l-3.6-5.2c-.6.1-1.3.2-2 .2h-2.2v5h-2v-18.9h4.2c5.2 0 7.8 2.9 7.8 7 0 2.8-1.3 5-3.9 6.1l4.1 5.8zm-8.1-6.8c4.3 0 5.8-2.2 5.8-5.2s-1.6-5.2-5.8-5.2h-2.1v10.3h2.1zm12.5-12.1h2V119h-2v-18.9zm6.1 9.5c0-5.7 4.3-9.6 9.7-9.6 3.3 0 5.9 1.2 7.5 3.7l-1.5 1.1c-1.2-1.8-3.2-3-6-3-4.4 0-7.6 3.4-7.6 7.8 0 4.5 3.2 7.8 7.6 7.8 2.7 0 4.9-1.2 6.2-3.2l1.6 1.1c-1.7 2.4-4.4 3.9-7.8 3.9-5.3 0-9.7-4-9.7-9.6zm25.2-7.7h-5.8v-1.8h13.6v1.8h-5.8V119h-2v-17.1zm16.8 7.7c0-5.7 4.3-9.6 9.7-9.6 5.4 0 9.7 4 9.7 9.6 0 5.7-4.3 9.6-9.7 9.6-5.4 0-9.7-4-9.7-9.6zm17.3 0c0-4.5-3.2-7.8-7.6-7.8-4.4 0-7.6 3.4-7.6 7.8 0 4.5 3.2 7.8 7.6 7.8 4.4 0 7.6-3.4 7.6-7.8zm6.2-9.5h11.3v1.8H264v8.8h8.5v1.8H264v6.4h-2v-18.8zm20.9 9.5c0-5.7 4.3-9.6 9.7-9.6 3.3 0 5.9 1.2 7.5 3.7l-1.5 1.1c-1.2-1.8-3.2-3-6-3-4.4 0-7.6 3.4-7.6 7.8 0 4.5 3.2 7.8 7.6 7.8 2.7 0 4.9-1.2 6.2-3.2l1.6 1.1c-1.7 2.4-4.4 3.9-7.8 3.9-5.4 0-9.7-4-9.7-9.6zm19.9 0c0-5.7 4.3-9.6 9.7-9.6 5.4 0 9.7 4 9.7 9.6 0 5.7-4.3 9.6-9.7 9.6-5.3 0-9.7-4-9.7-9.6zm17.3 0c0-4.5-3.2-7.8-7.6-7.8-4.4 0-7.6 3.4-7.6 7.8 0 4.5 3.2 7.8 7.6 7.8 4.4 0 7.6-3.4 7.6-7.8zm6.2-9.5h2v17.1h8.9v1.8h-10.9v-18.9zm13.7 12.4v-12.4h2v12.3c0 3.4 1.8 5 4.8 5 2.9 0 4.8-1.7 4.8-5v-12.3h2v12.4c0 4.4-2.9 6.7-6.8 6.7s-6.8-2.2-6.8-6.7zm18.6-12.6h.3l8.8 11 8.7-11h.3V119h-1.9v-12.4c0-.9.1-2.2.1-2.2s-.7 1.2-1.3 2l-5.7 7.2h-.3l-5.6-7.2c-.6-.7-1.4-2-1.4-2s.1 1.3.1 2.2V119h-1.9V99.9zm23.2.2h6.4c3.5 0 5.2 2.1 5.2 4.6 0 1.9-.8 3.2-2.4 3.7 2.4.6 3.9 2.4 3.9 4.9 0 3.1-1.9 5.5-6 5.5h-7.1v-18.7zm6.5 7.7c2.2 0 3-1.2 3-3 0-1.7-.9-3-3.3-3h-4.3v5.9h4.6zm.4 9.4c2.9 0 4.1-1.6 4.1-3.8 0-2.2-1.3-3.8-4.2-3.8h-4.8v7.7h4.9zm10-17.1h2V119h-2v-18.9zm13.5-.2h.3l8 19h-2.1l-1.3-3.2h-9.5l-1.2 3.2h-2l7.8-19zm4.3 14.2l-3.3-8.4c-.4-.9-.7-2.2-.7-2.2s-.4 1.4-.7 2.2l-3.3 8.4h8zm-298.7 12.7h.4l11.2 14.9 11.1-14.9h.4v26.9h-3.5v-13.8c0-1.5.1-3.8.1-3.8s-1.1 2-2.1 3.2l-5.9 8.1h-.4l-5.9-8.1c-.9-1.2-2.1-3.2-2.1-3.2s.1 2.3.1 3.8v13.8h-3.5v-26.9zm28.6 17.5V127h3.7v17c0 4.3 1.9 6.2 5.3 6.2s5.3-1.9 5.3-6.2v-17h3.6v17.2c0 6.5-3.9 9.7-8.9 9.7-5.1.1-9-3.2-9-9.6zm39.7 9.3h-4.2l-4.2-7c-.7.1-1.3.2-2 .2h-2.2v6.8h-3.7V127h5.9c6.5 0 10.1 3.8 10.1 9.9 0 4.1-1.6 6.9-4.7 8.4l5 8.3zm-10.6-10.4c4.7 0 6.5-2.3 6.5-6.3s-1.9-6.3-6.5-6.3h-2.1v12.6h2.1zm15.3-16.2h3.6v26.6h-3.6V127zm9.4 0h14.9v3.6h-11.2V141h10v3.6h-10v5.4h11.7v3.6h-15.4V127zm20.3 0h3.7v23H235v3.6h-14.5V127zm26.6 0h8.5c4.4 0 6.6 3 6.6 6.7 0 2.5-1.1 4.3-3.2 5.1 3.1.8 4.8 3.4 4.8 6.8 0 4.6-2.7 8-7.6 8h-9.1V127zm8.4 10.4c2.2 0 3.2-1.4 3.2-3.4s-1-3.4-3.3-3.4h-4.6v6.7h4.7zm.5 12.6c2.8 0 4.2-1.9 4.2-4.5s-1.4-4.5-4.3-4.5h-5.1v9.1h5.2zm11.1-9.7c0-7.9 5.4-13.6 12.1-13.6 6.7 0 12.1 5.7 12.1 13.6 0 7.9-5.4 13.6-12.1 13.6-6.8.1-12.1-5.6-12.1-13.6zm20.4 0c0-5.7-3.4-9.9-8.3-9.9s-8.4 4.3-8.4 9.9c0 5.7 3.5 9.9 8.4 9.9s8.3-4.2 8.3-9.9zm5.3-13.3h3.8l4.1 14.2c.4 1.5.9 3.8.9 3.8s.6-2.3 1.1-3.8l5.4-14.4h.4l5.4 14.4c.6 1.5 1.1 3.8 1.1 3.8s.5-2.3.9-3.8L320 127h3.6l-8.1 26.9h-.4l-5.8-15.8c-.5-1.3-1-3.2-1-3.2s-.6 2-1 3.2l-6 15.8h-.3l-8.2-26.9zm32.5 21.5l3-1.9c1.1 2.1 2.5 3.7 5.4 3.7 2.4 0 4.1-1.4 4.1-3.6 0-2.3-1.4-3.3-3.9-4.6l-1.6-.8c-3.4-1.7-5.5-3.7-5.5-7.8 0-4 2.7-6.8 6.6-6.8 3.1 0 5.2 1.3 6.6 4.2l-2.9 2c-.9-1.8-1.9-2.6-3.8-2.6s-3 1.3-3 3.1c0 2 1 2.9 3.4 4.1l1.5.8c4 2 6.1 4.1 6.1 8.4 0 4.7-3.2 7.4-7.6 7.4-4.4-.1-7.1-2.6-8.4-5.6zm20.5-21.5h14.9v3.6h-11.2V141h10v3.6h-10v5.4h11.7v3.6h-15.4V127zm36.4 26.6H378l-4.2-7c-.7.1-1.3.2-2 .2h-2.2v6.8H366V127h5.9c6.5 0 10.1 3.8 10.1 9.9 0 4.1-1.6 6.9-4.7 8.4l4.9 8.3zm-10.5-10.4c4.7 0 6.5-2.3 6.5-6.3s-1.9-6.3-6.5-6.3h-2.1v12.6h2.1zm15.3 10.3c-.9-.4-1.4-1.3-1.4-2.4 0-1.5 1.1-2.6 2.4-2.6 1.2 0 2.3 1.1 2.3 2.7 0 .9-.3 1.7-.7 2.4l-2 4.5h-1.8l1.2-4.6zm15.5-26.7h.4l11.2 14.9 11.1-14.9h.4v26.9h-3.5v-13.8c0-1.5.1-3.8.1-3.8s-1.1 2-2.1 3.2l-5.9 8.1h-.4l-5.9-8.1c-.9-1.2-2.1-3.2-2.1-3.2s.1 2.3.1 3.8v13.8h-3.5v-26.9zm37 0h.4l10.3 26.9h-3.8l-1.3-3.8h-10.7l-1.3 3.8h-3.5l9.9-26.9zm4.2 19.6l-2.9-8.3c-.6-1.6-1.2-3.9-1.2-3.9s-.6 2.4-1.1 3.9l-2.9 8.3h8.1zm13.6-1.2l-8.9-18.2h4l5.3 11c.7 1.5 1.4 3.8 1.4 3.8s.7-2.3 1.4-3.8l5.1-11h3.8l-8.5 17.9v8.6h-3.7v-8.3zm12.8-4.9c0-7.9 5.4-13.6 12.1-13.6 6.7 0 12.1 5.7 12.1 13.6 0 7.9-5.4 13.6-12.1 13.6-6.7.1-12.1-5.6-12.1-13.6zm20.5 0c0-5.7-3.4-9.9-8.3-9.9s-8.4 4.3-8.4 9.9c0 5.7 3.5 9.9 8.4 9.9 4.8.1 8.3-4.2 8.3-9.9zm24.5 13.3h-4.2l-4.2-7c-.7.1-1.3.2-2 .2h-2.2v6.8h-3.7V127h5.9c6.5 0 10.1 3.8 10.1 9.9 0 4.1-1.6 6.9-4.7 8.4l5 8.3zm-10.5-10.4c4.7 0 6.5-2.3 6.5-6.3s-1.9-6.3-6.5-6.3h-2.1v12.6h2.1zM117.8 82.1c0-5.7 4.2-9.6 9.7-9.6 2.7 0 5 .8 6.6 2.4l-1.4 1.4c-1.2-1.3-2.9-2-5.2-2-4.4 0-7.6 3.4-7.6 7.8s3.2 7.8 7.8 7.8c2.6 0 4.4-.8 5.6-1.7v-3.9h-5.6v-1.8h7.5v6.6c-1.4 1.4-3.9 2.6-7.5 2.6-5.6 0-9.9-4-9.9-9.6zm20.6 0c0-5.7 4.3-9.6 9.7-9.6 5.4 0 9.7 4 9.7 9.6s-4.3 9.6-9.7 9.6c-5.3 0-9.7-4-9.7-9.6zm17.4 0c0-4.5-3.2-7.8-7.6-7.8-4.4 0-7.6 3.4-7.6 7.8s3.2 7.8 7.6 7.8c4.3 0 7.6-3.4 7.6-7.8zm3.3-9.5h2.2l5.2 12.8c.4.9.8 2.6.8 2.6s.4-1.6.8-2.6l5.2-12.8h2l-7.8 19h-.3l-8.1-19zm19.8 0h11.5v1.8h-9.5v8.8h8.5V85h-8.5v4.7h9.9v1.8h-11.9V72.6zm28.3 18.9h-2.4l-3.6-5.2c-.6.1-1.3.2-2 .2H197v5h-2V72.6h4.2c5.2 0 7.8 2.9 7.8 7 0 2.8-1.3 5-3.9 6.1l4.1 5.8zm-8.1-6.8c4.3 0 5.9-2.2 5.9-5.2s-1.6-5.2-5.9-5.2H197v10.3h2.1zm15.4-6.3c-.5-.6-1.3-1.7-1.3-1.7s.2 1.3.2 2.1v12.7h-1.9v-19h.3l11.3 13.3c.5.6 1.3 1.7 1.3 1.7s-.1-1.3-.1-2.1V72.6h1.9v19h-.3l-11.4-13.2zm16.7-6h.3l8.8 11 8.7-11h.3v19.1h-1.9V79c0-.9.1-2.2.1-2.2s-.7 1.2-1.3 2l-5.7 7.2h-.3l-5.6-7.2c-.6-.7-1.4-2-1.4-2s.1 1.3.1 2.2v12.4h-1.9v-19zm23.3.2H266v1.8h-9.5v8.8h8.5V85h-8.5v4.7h9.9v1.8h-11.9V72.6zm19.1 5.8c-.5-.6-1.3-1.7-1.3-1.7s.2 1.3.2 2.1v12.7h-1.9v-19h.3l11.3 13.3c.5.6 1.3 1.7 1.3 1.7s-.1-1.3-.1-2.1V72.6h1.9v19h-.3l-11.4-13.2zm20.8-4h-5.8v-1.8h13.6v1.8h-5.8v17.1h-2V74.4zm16.8 7.7c0-5.7 4.3-9.6 9.7-9.6 5.4 0 9.7 4 9.7 9.6s-4.3 9.6-9.7 9.6c-5.4 0-9.7-4-9.7-9.6zm17.3 0c0-4.5-3.2-7.8-7.6-7.8-4.4 0-7.6 3.4-7.6 7.8s3.2 7.8 7.6 7.8c4.4 0 7.6-3.4 7.6-7.8zm6.2-9.5H346v1.8h-9.3v8.8h8.5V85h-8.5v6.4h-2V72.6zm26.1 1.8H355v-1.8h13.6v1.8h-5.8v17.1h-2V74.4zm11.3-1.8h2v10.6h10.1V72.6h2v18.9h-2v-6.4h-10.1v6.4h-2V72.6zm19.2 0h11.5v1.8h-9.5v8.8h8.5V85h-8.5v4.7h9.9v1.8h-11.9V72.6z"/><path d="M117.8 55.7H230v9.1H117.8zm0-15.2H230v9.1H117.8zm22.7-23.6l2 6.2h6.5l-5.3 3.8 2.1 6.2-5.3-3.9-5.3 3.9 2.1-6.2-5.3-3.8h6.5zm34.7 0l2 6.2h6.6l-5.3 3.8 2 6.2-5.3-3.9-5.2 3.9 2-6.2-5.3-3.8h6.5zm34.8 0l2 6.2h6.5l-5.3 3.8 2.1 6.2-5.3-3.9-5.3 3.9 2-6.2-5.3-3.8h6.6z" fill="#bd2528"/></g></switch></svg>