<?xml version="1.0" encoding="utf-8"?>
<!-- Generator: Adobe Illustrator 21.0.2, SVG Export Plug-In . SVG Version: 6.00 Build 0)  -->
<!DOCTYPE svg PUBLIC "-//W3C//DTD SVG 1.1//EN" "http://www.w3.org/Graphics/SVG/1.1/DTD/svg11.dtd" [
	<!ENTITY ns_extend "http://ns.adobe.com/Extensibility/1.0/">
	<!ENTITY ns_ai "http://ns.adobe.com/AdobeIllustrator/10.0/">
	<!ENTITY ns_graphs "http://ns.adobe.com/Graphs/1.0/">
	<!ENTITY ns_vars "http://ns.adobe.com/Variables/1.0/">
	<!ENTITY ns_imrep "http://ns.adobe.com/ImageReplacement/1.0/">
	<!ENTITY ns_sfw "http://ns.adobe.com/SaveForWeb/1.0/">
	<!ENTITY ns_custom "http://ns.adobe.com/GenericCustomNamespace/1.0/">
	<!ENTITY ns_adobe_xpath "http://ns.adobe.com/XPath/1.0/">
]>
<svg version="1.1" id="Layer_1" xmlns:x="&ns_extend;" xmlns:i="&ns_ai;" xmlns:graph="&ns_graphs;"
	 xmlns="http://www.w3.org/2000/svg" xmlns:xlink="http://www.w3.org/1999/xlink" x="0px" y="0px" viewBox="0 0 526.6 173.4"
	 style="enable-background:new 0 0 526.6 173.4;" xml:space="preserve">
<style type="text/css">
	.st0{fill-rule:evenodd;clip-rule:evenodd;fill:#BE202E;}
	.st1{fill:#BD2528;}
</style>
<switch>
	<g i:extraneous="self">
		<g>
			<path class="st0" d="M31.5,17c0.7,2.2,1.3,4.4,1.8,6.7c1.9,0.1,4.2,0,6,0c-1.6,1.4-3.2,2.7-4.8,4.2c0.6,2.3,1.2,4.4,1.8,6.7
				c-1.6-1.3-3.2-2.8-4.8-4.1c-1.6,1.3-3.2,2.8-4.8,4c0.6-2.2,1.2-4.4,1.8-6.6c-1.4-1.3-2.8-2.5-4.2-3.7c-0.2-0.1-0.5-0.3-0.5-0.5
				c1.9,0.1,4,0.1,5.9,0C30.3,21.5,30.9,19.2,31.5,17z"/>
			<path class="st0" d="M64.9,17c0.6,2.2,1.2,4.4,1.8,6.7c1.9,0.1,4,0.1,5.9,0c0.1,0.2-0.3,0.4-0.4,0.5c-1.4,1.2-2.9,2.5-4.2,3.6
				c0.5,2.3,1.2,4.5,1.8,6.6c-0.2,0.1-0.4-0.3-0.6-0.4c-1.4-1.2-2.9-2.4-4.2-3.6c-1.7,1.3-3.2,2.8-4.8,4.1c0.6-2.2,1.2-4.4,1.8-6.6
				c-1.1-1.1-2.4-2.2-3.6-3.2c-0.2-0.2-0.4-0.4-0.6-0.5c-0.2-0.2-0.5-0.3-0.5-0.5c1.9,0.1,4,0.1,5.9,0C63.7,21.5,64.3,19.2,64.9,17z
				"/>
			<path class="st0" d="M99.5,17c0.6,2.2,1.2,4.5,1.9,6.7c2,0,4,0.1,5.9,0c-0.1,0.2-0.3,0.4-0.5,0.5c-1.4,1.2-2.9,2.5-4.2,3.7
				c0.6,2.2,1.2,4.4,1.8,6.6c-0.2,0.1-0.4-0.2-0.6-0.4c-1.3-1.2-2.8-2.4-4.2-3.6c-1.7,1.3-3.2,2.8-4.8,4.1c0.6-2.2,1.2-4.4,1.8-6.6
				c-1.5-1.5-3.2-2.8-4.8-4.2c1.7-0.1,4,0,5.9,0c0.4-1,0.7-2.1,1-3.2c0.3-1.1,0.6-2.2,0.9-3.3C99.5,17,99.5,17,99.5,17z"/>
			<path class="st0" d="M34.3,37.2c0.3-0.1,0.4,0.4,0.5,0.8c0.7,2.3,1.4,4.7,2.1,6.9c0.8,2.7,1.7,5.4,2.3,8.1
				c1.2-5.3,2.6-10.3,3.9-15.5c0.6,0,1.1,0,1.7,0c-1.7,6.3-3.3,12.7-5,19.2c-0.1,0.4-0.2,1.1-0.4,1.2c-0.3,0-0.7-1.7-0.7-1.9
				c-0.6-2-1.2-4-1.8-6.1c-0.9-2.8-1.8-5.3-2.4-8.2C33,46.3,31.5,51,30,55.9c-0.1,0.4-0.5,1.9-0.7,1.9c-0.3,0-0.4-0.9-0.5-1.2
				c-1.7-6.3-3.4-12.8-5.1-19.2c0.6,0,1.2,0,1.8,0c1.3,5.2,2.7,10.2,3.9,15.5C30.9,47.5,32.6,42.4,34.3,37.2z"/>
			<path class="st0" d="M72.9,37.2c0.3-0.1,0.3,0.2,0.4,0.5c2.3,6.5,4.5,13.4,6.7,19.8c-0.6,0-1.2,0-1.8,0c-0.4-1.1-0.7-2.2-1.1-3.4
				c-2.7,0-5.5,0-8.2,0c-0.4,1.1-0.7,2.2-1.1,3.4c-0.6,0-1.1,0-1.7,0C68.4,50.8,70.6,44,72.9,37.2z M69.5,52.3c2.3,0,4.7,0.1,7,0
				c-1.2-3.7-2.4-7.4-3.5-11.2C72,45.1,70.6,48.5,69.5,52.3z"/>
			<path class="st0" d="M47.9,37.4c3.3,0,6.6,0,9.9,0c0,0.6,0,1.2,0,1.9c-2.7,0-5.4,0-8.1,0c-0.1,3.1,0,6.3,0,9.4
				c2.3,0.1,4.9,0,7.3,0c0,0.6,0,1.2,0,1.8c-2.4,0-4.8,0-7.3,0c0,1.7,0,3.4,0,5c2.8,0.1,5.7,0,8.5,0c0,0.6,0,1.2,0,1.9
				c-3.4,0-6.8,0-10.2,0c0-6.7,0-13.3,0-20C47.9,37.5,47.9,37.4,47.9,37.4z"/>
			<path class="st0" d="M83.1,37.4c3.7-0.2,6.9-0.1,8.7,2.1c1.2,1.5,2,4.1,1.6,6.8c-0.3,2.4-1.6,4.2-3.3,5c1,2.1,2.4,4.2,3.4,6.2
				c-0.7-0.2-1.3,0.2-1.9,0c-0.2-0.1-0.7-1-0.9-1.3c-0.8-1.4-1.6-3-2.4-4.2c-1,0.3-2.4,0.1-3.6,0.2c0,1.8,0,3.6,0,5.3
				c-0.6,0-1.1,0-1.7,0c0-6.7,0-13.3,0-20C83.1,37.5,83.1,37.4,83.1,37.4z M84.8,39.4c0,3.6,0,7.3,0,10.9c4.2,0.5,6.9-1.1,6.9-5.5
				c0-4.4-2.7-6-6.9-5.6C84.8,39.3,84.8,39.4,84.8,39.4z"/>
			<path class="st0" d="M97.4,37.4c3.3,0,6.6,0,9.9,0c0,0.6,0,1.2,0,1.9c-2.7,0-5.4,0-8.1,0c-0.1,3.1,0,6.3,0,9.4
				c2.3,0.1,4.9,0,7.3,0c0,0.6,0,1.2,0,1.8c-2.4,0-4.8,0-7.3,0c0,1.7,0,3.4,0,5c2.8,0.1,5.7,0,8.5,0c0,0.6,0,1.2,0,1.9
				c-3.4,0-6.8,0-10.2,0c0-6.7,0-13.3,0-20C97.3,37.5,97.3,37.4,97.4,37.4z"/>
			<path class="st0" d="M23.9,60.3c27.8,0,55.6,0,83.5,0c0,2.2,0,4.5,0,6.7c-27.8,0-55.7,0-83.5,0c0-2.2,0-4.4,0-6.6
				C23.9,60.3,23.9,60.3,23.9,60.3z"/>
			<path class="st0" d="M93.8,69c2.7-0.2,4.7,2.1,4.7,5.3c0,3.3-2.2,5.3-4.5,5.2c-2.5,0-4.4-2.2-4.4-5.3c0-1.6,0.6-2.9,1.2-3.7
				C91.6,69.7,92.5,69.1,93.8,69z M92.5,77c0.9,0.8,2.4,0.8,3.3,0c0.9-0.9,1.4-3,0.6-4.6c-0.4-0.8-1.3-1.7-2.6-1.5
				C91.5,71.2,90.6,75.2,92.5,77z"/>
			<path class="st0" d="M32,75.1c0.5-2.1,1.1-4,1.7-6c0.6,0,1.1,0,1.7,0c-0.5,1.7-1.1,3.5-1.6,5.2c-0.5,1.8-1,3.5-1.6,5.2
				C32,79.4,32,79,31.9,78.8c-0.7-1.8-1.6-3.7-2.1-5.7c-0.8,2.2-1.6,4.4-2.6,6.5c-0.3-0.3-0.4-0.8-0.5-1.2c-0.9-3-1.9-6.1-2.8-9.2
				c0.6,0,1.2,0,1.8,0c0.6,2,1.3,3.8,1.7,6c0.6-2.2,1.4-4.1,2.2-6.1c0.3,0.2,0.5,1,0.7,1.5C31,71.9,31.7,73.4,32,75.1z"/>
			<path class="st0" d="M43.8,79.4c-0.5,0.1-1.2,0-1.8,0c-0.1-0.4-0.3-0.8-0.4-1.2c-1.1,0-2.3,0-3.4,0c-0.2,0.3-0.3,0.7-0.4,1.2
				c-0.6,0-1.1,0-1.7,0c0.6-1.6,1.2-3.4,1.9-5.2c0.6-1.8,1.2-3.6,1.9-5.2c0-0.1,0-0.1,0.1-0.1C41.3,72.4,42.5,76,43.8,79.4z
				 M38.7,76.5c0.7,0,1.5,0,2.2,0c-0.4-1.2-0.8-2.4-1.2-3.6C39.5,74.2,39.1,75.3,38.7,76.5z"/>
			<path class="st0" d="M49.9,70.6c-0.4,0.4-0.9,0.7-1.3,1.1c-0.1-0.6-1.3-1.4-1.8-0.6c-0.2,0.2-0.2,0.7-0.1,1
				c0.2,0.6,1.1,1,1.6,1.2c1.2,0.6,2.2,1.4,2.2,3.2c0,4-5.2,3.7-6.1,0.8c0.4-0.4,0.9-0.7,1.4-1c0.3,0.2,0.4,0.7,0.8,1
				c0.7,0.5,2.2,0.4,2.2-0.8c0-0.9-0.8-1.1-1.3-1.4c-1.2-0.6-2.5-1.3-2.5-3.4c0-1.6,0.9-2.6,2.2-2.8C48.3,68.8,49.2,69.4,49.9,70.6z
				"/>
			<path class="st0" d="M69.8,75.3c-0.1-1.8-0.1-4.1-0.1-6.2c0.5,0,1.1,0,1.6,0c0,3.5,0,7,0,10.5c-0.3,0-0.6-0.4-0.8-0.7
				c-1.5-1.8-3.3-3.6-4.7-5.6c0.2,1.9,0.1,4.1,0.1,6.2c-0.6,0-1.1,0-1.6,0c0-3.5,0-7,0-10.5c0,0,0.1,0,0.1,0c0.4,0.2,1,1.1,1.4,1.5
				C67.2,72,68.8,73.7,69.8,75.3z"/>
			<path class="st0" d="M79.2,71.8c-0.5-0.7-1.3-1-2.2-0.9c-1.5,0.2-2.4,1.9-2.2,3.9c0.2,2.4,2.3,3.5,4.5,2.5c0-0.5,0-1,0-1.5
				c-0.6-0.1-1.4,0-2.1,0c0-0.6,0-1.2,0-1.8c1.2,0,2.4,0,3.7,0c0,1.5,0,3,0,4.4c-2,1.9-5.7,1.5-7.1-0.9c-0.9-1.5-1-3.9-0.4-5.6
				c0.7-1.9,2.2-3.1,4.5-2.9c0.7,0.1,1.6,0.4,2.1,0.8c0.1,0.1,0.5,0.5,0.5,0.5c0,0.1-0.5,0.6-0.6,0.8C79.6,71.4,79.4,71.6,79.2,71.8
				z"/>
			<path class="st0" d="M105.5,75.3c-0.1-1.8-0.1-4.1-0.1-6.2c0.5,0,1.1,0,1.6,0c0,3.5,0,7,0,10.5c-0.3,0-0.6-0.4-0.8-0.7
				c-1.5-1.8-3.3-3.6-4.7-5.6c0.2,1.9,0.1,4.1,0.1,6.2c-0.5,0-1.1,0-1.6,0c0-3.5,0-7,0-10.5c0,0,0.1,0,0.1,0c0.4,0.2,1,1.1,1.4,1.5
				C102.9,72,104.5,73.7,105.5,75.3z"/>
			<path class="st0" d="M51.8,69.1c0.6,0,1.1,0,1.7,0c0,1.8,0,3.5,0,5.3c1.2,0,2.4,0,3.6,0c0.1-1.7,0-3.5,0-5.3c0.6,0,1.2,0,1.8,0
				c0,3.5,0,6.9,0,10.4c-0.6,0-1.2,0-1.8,0c0-1,0-2.1,0-3.1c-1.1-0.1-2.5,0-3.7,0c0,1.1,0,2.1,0,3.2c-0.6,0-1.2,0-1.8,0
				C51.8,76,51.7,72.4,51.8,69.1z"/>
			<path class="st0" d="M60.8,69.1c0.6,0,1.1,0,1.7,0c0,3.5,0,6.9,0,10.4c-0.6,0-1.2,0-1.8,0c0-3.4,0-6.8,0-10.2
				C60.8,69.1,60.8,69.1,60.8,69.1z"/>
			<path class="st0" d="M82.1,69.1c2.2,0,4.4,0,6.6,0c0,0.6,0,1.2,0,1.9c-0.8,0-1.6,0-2.4,0c-0.1,2.7,0,5.7,0,8.5
				c-0.6,0-1.2,0-1.8,0c0-2.8,0-5.6,0-8.5c-0.7-0.1-1.6,0-2.4,0C82.1,70.3,82,69.6,82.1,69.1z"/>
			<path class="st0" d="M23.9,81.9c27.8,0,55.6,0,83.5,0c0,2.2,0,4.4,0,6.7c-27.8,0-55.7,0-83.5,0c0-2.2,0-4.4,0-6.5
				C23.9,82,23.9,81.9,23.9,81.9z"/>
			<path class="st0" d="M106.6,102.5c-1.3,1-2.5,2.1-3.7,3.2c-3.6-5.5-9.1-9.7-17.5-9.3c-2.6,0.1-5,0.9-6.9,1.8
				c-3.9,1.9-7,5.1-9.2,9.2c-2.2,4-3.7,9.6-3.4,16c0.2,6.2,1.9,11.1,4.3,14.9c2.5,3.9,5.7,6.8,9.9,8.4c2.2,0.8,4.7,1.4,7.3,1.2
				c2.6-0.1,5.1-0.6,7.2-1.5c4.2-1.8,7.2-4.7,9.7-8.5c1.2,1.1,2.5,2.1,3.7,3.2c-2.6,4.1-5.9,7.4-10.2,9.6c-4.1,2.1-9.9,3.3-15.7,2.2
				c-5.1-1-9.2-3.4-12.5-6.7c-3.3-3.3-5.9-7.5-7.5-12.7c-3.7,11.4-11.7,18.4-24.7,18.8c-4.4,0.1-8.9-0.1-13.5,0
				c0-20.3,0-40.5,0-60.8c4.6,0.2,9.2-0.2,13.6,0c13,0.7,21.1,7.3,24.7,19.2c1.8-5.5,4.7-10.1,8.5-13.5c3.9-3.4,8.5-5.7,14.8-6
				c5-0.3,9.5,1.1,12.7,3.1C101.8,96.3,104.5,99.1,106.6,102.5z M28.8,96.8c0,16.7,0,33.5,0,50.1c4.5,0,8.7,0.2,12.3-0.4
				c3.7-0.6,6.8-2,9.3-4c5-4.1,8.1-10.7,8.1-20.6c0-9.9-3.1-16.6-8.1-20.6c-2.6-2.1-5.6-3.4-9.3-4.1c-3.7-0.7-7.9-0.4-12.4-0.4
				C28.9,96.7,28.8,96.8,28.8,96.8z"/>
		</g>
		<g>
			<path d="M117.8,100.1h4.6c6.3,0,10.2,3.7,10.2,9.4c0,5.7-3.9,9.4-10.2,9.4h-4.6V100.1z M122.3,117.2c5.6,0,8.2-3.1,8.2-7.6
				c0-4.5-2.7-7.6-8.2-7.6h-2.4v15.2H122.3z"/>
			<path d="M136.8,100.1h2V119h-2V100.1z"/>
			<path d="M142.3,115.4l1.7-0.9c0.9,1.6,2.2,2.9,4.9,2.9c2.2,0,3.9-1.2,3.9-3.2c0-1.9-1.2-2.9-3.5-3.9l-1.5-0.7
				c-2.7-1.2-4.2-2.5-4.2-5.2c0-2.7,2.1-4.5,5-4.5c2.5,0,4.1,1.2,5.1,2.8l-1.6,1c-0.7-1.2-1.7-2.1-3.5-2.1c-1.9,0-3,1.1-3,2.7
				c0,1.7,0.9,2.4,3,3.4l1.5,0.7c3.1,1.4,4.7,2.9,4.7,5.8c0,3.1-2.5,5-5.9,5C145.2,119.2,143.3,117.4,142.3,115.4z"/>
			<path d="M162.5,101.9h-5.8v-1.8h13.6v1.8h-5.8V119h-2V101.9z"/>
			<path d="M186,119h-2.4l-3.6-5.2c-0.6,0.1-1.3,0.2-2,0.2h-2.2v5h-2v-18.9h4.2c5.2,0,7.8,2.9,7.8,7c0,2.8-1.3,5-3.9,6.1L186,119z
				 M177.9,112.2c4.3,0,5.8-2.2,5.8-5.2c0-3-1.6-5.2-5.8-5.2h-2.1v10.3H177.9z"/>
			<path d="M190.4,100.1h2V119h-2V100.1z"/>
			<path d="M196.5,109.6c0-5.7,4.3-9.6,9.7-9.6c3.3,0,5.9,1.2,7.5,3.7l-1.5,1.1c-1.2-1.8-3.2-3-6-3c-4.4,0-7.6,3.4-7.6,7.8
				c0,4.5,3.2,7.8,7.6,7.8c2.7,0,4.9-1.2,6.2-3.2l1.6,1.1c-1.7,2.4-4.4,3.9-7.8,3.9C200.9,119.2,196.5,115.2,196.5,109.6z"/>
			<path d="M221.7,101.9h-5.8v-1.8h13.6v1.8h-5.8V119h-2V101.9z"/>
			<path d="M238.5,109.6c0-5.7,4.3-9.6,9.7-9.6c5.4,0,9.7,4,9.7,9.6c0,5.7-4.3,9.6-9.7,9.6C242.8,119.2,238.5,115.2,238.5,109.6z
				 M255.8,109.6c0-4.5-3.2-7.8-7.6-7.8c-4.4,0-7.6,3.4-7.6,7.8c0,4.5,3.2,7.8,7.6,7.8C252.6,117.4,255.8,114,255.8,109.6z"/>
			<path d="M262,100.1h11.3v1.8H264v8.8h8.5v1.8H264v6.4h-2V100.1z"/>
			<path d="M282.9,109.6c0-5.7,4.3-9.6,9.7-9.6c3.3,0,5.9,1.2,7.5,3.7l-1.5,1.1c-1.2-1.8-3.2-3-6-3c-4.4,0-7.6,3.4-7.6,7.8
				c0,4.5,3.2,7.8,7.6,7.8c2.7,0,4.9-1.2,6.2-3.2l1.6,1.1c-1.7,2.4-4.4,3.9-7.8,3.9C287.2,119.2,282.9,115.2,282.9,109.6z"/>
			<path d="M302.8,109.6c0-5.7,4.3-9.6,9.7-9.6c5.4,0,9.7,4,9.7,9.6c0,5.7-4.3,9.6-9.7,9.6C307.2,119.2,302.8,115.2,302.8,109.6z
				 M320.1,109.6c0-4.5-3.2-7.8-7.6-7.8c-4.4,0-7.6,3.4-7.6,7.8c0,4.5,3.2,7.8,7.6,7.8C316.9,117.4,320.1,114,320.1,109.6z"/>
			<path d="M326.3,100.1h2v17.1h8.9v1.8h-10.9V100.1z"/>
			<path d="M340,112.5v-12.4h2v12.3c0,3.4,1.8,5,4.8,5c2.9,0,4.8-1.7,4.8-5v-12.3h2v12.4c0,4.4-2.9,6.7-6.8,6.7
				C342.9,119.2,340,117,340,112.5z"/>
			<path d="M358.6,99.9h0.3l8.8,11l8.7-11h0.3V119h-1.9v-12.4c0-0.9,0.1-2.2,0.1-2.2s-0.7,1.2-1.3,2l-5.7,7.2h-0.3l-5.6-7.2
				c-0.6-0.7-1.4-2-1.4-2s0.1,1.3,0.1,2.2V119h-1.9V99.9z"/>
			<path d="M381.8,100.1h6.4c3.5,0,5.2,2.1,5.2,4.6c0,1.9-0.8,3.2-2.4,3.7c2.4,0.6,3.9,2.4,3.9,4.9c0,3.1-1.9,5.5-6,5.5h-7.1V100.1z
				 M388.3,107.8c2.2,0,3-1.2,3-3c0-1.7-0.9-3-3.3-3h-4.3v5.9H388.3z M388.7,117.2c2.9,0,4.1-1.6,4.1-3.8c0-2.2-1.3-3.8-4.2-3.8
				h-4.8v7.7H388.7z"/>
			<path d="M398.7,100.1h2V119h-2V100.1z"/>
			<path d="M412.2,99.9h0.3l8,19h-2.1l-1.3-3.2h-9.5l-1.2,3.2h-2L412.2,99.9z M416.5,114.1l-3.3-8.4c-0.4-0.9-0.7-2.2-0.7-2.2
				s-0.4,1.4-0.7,2.2l-3.3,8.4H416.5z"/>
		</g>
		<g>
			<path d="M117.8,126.8h0.4l11.2,14.9l11.1-14.9h0.4v26.9h-3.5v-13.8c0-1.5,0.1-3.8,0.1-3.8s-1.1,2-2.1,3.2l-5.9,8.1h-0.4l-5.9-8.1
				c-0.9-1.2-2.1-3.2-2.1-3.2s0.1,2.3,0.1,3.8v13.8h-3.5V126.8z"/>
			<path d="M146.4,144.3V127h3.7v17c0,4.3,1.9,6.2,5.3,6.2c3.4,0,5.3-1.9,5.3-6.2v-17h3.6v17.2c0,6.5-3.9,9.7-8.9,9.7
				C150.3,154,146.4,150.7,146.4,144.3z"/>
			<path d="M186.1,153.6h-4.2l-4.2-7c-0.7,0.1-1.3,0.2-2,0.2h-2.2v6.8h-3.7V127h5.9c6.5,0,10.1,3.8,10.1,9.9c0,4.1-1.6,6.9-4.7,8.4
				L186.1,153.6z M175.5,143.2c4.7,0,6.5-2.3,6.5-6.3c0-4-1.9-6.3-6.5-6.3h-2.1v12.6H175.5z"/>
			<path d="M190.8,127h3.6v26.6h-3.6V127z"/>
			<path d="M200.2,127h14.9v3.6h-11.2V141h10v3.6h-10v5.4h11.7v3.6h-15.4V127z"/>
			<path d="M220.5,127h3.7v23h10.8v3.6h-14.5V127z"/>
			<path d="M247.1,127h8.5c4.4,0,6.6,3,6.6,6.7c0,2.5-1.1,4.3-3.2,5.1c3.1,0.8,4.8,3.4,4.8,6.8c0,4.6-2.7,8-7.6,8h-9.1V127z
				 M255.5,137.4c2.2,0,3.2-1.4,3.2-3.4c0-2-1-3.4-3.3-3.4h-4.6v6.7H255.5z M256,150c2.8,0,4.2-1.9,4.2-4.5s-1.4-4.5-4.3-4.5h-5.1
				v9.1H256z"/>
			<path d="M267.1,140.3c0-7.9,5.4-13.6,12.1-13.6c6.7,0,12.1,5.7,12.1,13.6c0,7.9-5.4,13.6-12.1,13.6
				C272.4,154,267.1,148.3,267.1,140.3z M287.5,140.3c0-5.7-3.4-9.9-8.3-9.9s-8.4,4.3-8.4,9.9c0,5.7,3.5,9.9,8.4,9.9
				S287.5,146,287.5,140.3z"/>
			<path d="M292.8,127h3.8l4.1,14.2c0.4,1.5,0.9,3.8,0.9,3.8s0.6-2.3,1.1-3.8l5.4-14.4h0.4l5.4,14.4c0.6,1.5,1.1,3.8,1.1,3.8
				s0.5-2.3,0.9-3.8l4.1-14.2h3.6l-8.1,26.9h-0.4l-5.8-15.8c-0.5-1.3-1-3.2-1-3.2s-0.6,2-1,3.2l-6,15.8H301L292.8,127z"/>
			<path d="M325.3,148.5l3-1.9c1.1,2.1,2.5,3.7,5.4,3.7c2.4,0,4.1-1.4,4.1-3.6c0-2.3-1.4-3.3-3.9-4.6l-1.6-0.8
				c-3.4-1.7-5.5-3.7-5.5-7.8c0-4,2.7-6.8,6.6-6.8c3.1,0,5.2,1.3,6.6,4.2l-2.9,2c-0.9-1.8-1.9-2.6-3.8-2.6c-1.9,0-3,1.3-3,3.1
				c0,2,1,2.9,3.4,4.1l1.5,0.8c4,2,6.1,4.1,6.1,8.4c0,4.7-3.2,7.4-7.6,7.4C329.3,154,326.6,151.5,325.3,148.5z"/>
			<path d="M345.8,127h14.9v3.6h-11.2V141h10v3.6h-10v5.4h11.7v3.6h-15.4V127z"/>
			<path d="M382.2,153.6H378l-4.2-7c-0.7,0.1-1.3,0.2-2,0.2h-2.2v6.8H366V127h5.9c6.5,0,10.1,3.8,10.1,9.9c0,4.1-1.6,6.9-4.7,8.4
				L382.2,153.6z M371.7,143.2c4.7,0,6.5-2.3,6.5-6.3c0-4-1.9-6.3-6.5-6.3h-2.1v12.6H371.7z"/>
			<path d="M387,153.5c-0.9-0.4-1.4-1.3-1.4-2.4c0-1.5,1.1-2.6,2.4-2.6c1.2,0,2.3,1.1,2.3,2.7c0,0.9-0.3,1.7-0.7,2.4l-2,4.5h-1.8
				L387,153.5z"/>
			<path d="M402.5,126.8h0.4l11.2,14.9l11.1-14.9h0.4v26.9h-3.5v-13.8c0-1.5,0.1-3.8,0.1-3.8s-1.1,2-2.1,3.2l-5.9,8.1h-0.4l-5.9-8.1
				c-0.9-1.2-2.1-3.2-2.1-3.2s0.1,2.3,0.1,3.8v13.8h-3.5V126.8z"/>
			<path d="M439.5,126.8h0.4l10.3,26.9h-3.8l-1.3-3.8h-10.7l-1.3,3.8h-3.5L439.5,126.8z M443.7,146.4l-2.9-8.3
				c-0.6-1.6-1.2-3.9-1.2-3.9s-0.6,2.4-1.1,3.9l-2.9,8.3H443.7z"/>
			<path d="M457.3,145.2l-8.9-18.2h4l5.3,11c0.7,1.5,1.4,3.8,1.4,3.8s0.7-2.3,1.4-3.8l5.1-11h3.8l-8.5,17.9v8.6h-3.7V145.2z"/>
			<path d="M470.1,140.3c0-7.9,5.4-13.6,12.1-13.6c6.7,0,12.1,5.7,12.1,13.6c0,7.9-5.4,13.6-12.1,13.6
				C475.5,154,470.1,148.3,470.1,140.3z M490.6,140.3c0-5.7-3.4-9.9-8.3-9.9c-4.9,0-8.4,4.3-8.4,9.9c0,5.7,3.5,9.9,8.4,9.9
				C487.1,150.3,490.6,146,490.6,140.3z"/>
			<path d="M515.1,153.6h-4.2l-4.2-7c-0.7,0.1-1.3,0.2-2,0.2h-2.2v6.8h-3.7V127h5.9c6.5,0,10.1,3.8,10.1,9.9c0,4.1-1.6,6.9-4.7,8.4
				L515.1,153.6z M504.6,143.2c4.7,0,6.5-2.3,6.5-6.3c0-4-1.9-6.3-6.5-6.3h-2.1v12.6H504.6z"/>
		</g>
		<g>
			<path d="M117.8,82.1c0-5.7,4.2-9.6,9.7-9.6c2.7,0,5,0.8,6.6,2.4l-1.4,1.4c-1.2-1.3-2.9-2-5.2-2c-4.4,0-7.6,3.4-7.6,7.8
				s3.2,7.8,7.8,7.8c2.6,0,4.4-0.8,5.6-1.7v-3.9h-5.6v-1.8h7.5v6.6c-1.4,1.4-3.9,2.6-7.5,2.6C122.1,91.7,117.8,87.7,117.8,82.1z"/>
			<path d="M138.4,82.1c0-5.7,4.3-9.6,9.7-9.6c5.4,0,9.7,4,9.7,9.6s-4.3,9.6-9.7,9.6C142.8,91.7,138.4,87.7,138.4,82.1z M155.8,82.1
				c0-4.5-3.2-7.8-7.6-7.8c-4.4,0-7.6,3.4-7.6,7.8s3.2,7.8,7.6,7.8C152.5,89.9,155.8,86.5,155.8,82.1z"/>
			<path d="M159.1,72.6h2.2l5.2,12.8c0.4,0.9,0.8,2.6,0.8,2.6s0.4-1.6,0.8-2.6l5.2-12.8h2l-7.8,19h-0.3L159.1,72.6z"/>
			<path d="M178.9,72.6h11.5v1.8h-9.5v8.8h8.5V85h-8.5v4.7h9.9v1.8h-11.9V72.6z"/>
			<path d="M207.2,91.5h-2.4l-3.6-5.2c-0.6,0.1-1.3,0.2-2,0.2h-2.2v5h-2V72.6h4.2c5.2,0,7.8,2.9,7.8,7c0,2.8-1.3,5-3.9,6.1
				L207.2,91.5z M199.1,84.7c4.3,0,5.9-2.2,5.9-5.2c0-3-1.6-5.2-5.9-5.2h-2.1v10.3H199.1z"/>
			<path d="M214.5,78.4c-0.5-0.6-1.3-1.7-1.3-1.7s0.2,1.3,0.2,2.1v12.7h-1.9v-19h0.3l11.3,13.3c0.5,0.6,1.3,1.7,1.3,1.7
				s-0.1-1.3-0.1-2.1V72.6h1.9v19h-0.3L214.5,78.4z"/>
			<path d="M231.2,72.4h0.3l8.8,11l8.7-11h0.3v19.1h-1.9V79c0-0.9,0.1-2.2,0.1-2.2s-0.7,1.2-1.3,2l-5.7,7.2h-0.3l-5.6-7.2
				c-0.6-0.7-1.4-2-1.4-2s0.1,1.3,0.1,2.2v12.4h-1.9V72.4z"/>
			<path d="M254.5,72.6h11.5v1.8h-9.5v8.8h8.5V85h-8.5v4.7h9.9v1.8h-11.9V72.6z"/>
			<path d="M273.6,78.4c-0.5-0.6-1.3-1.7-1.3-1.7s0.2,1.3,0.2,2.1v12.7h-1.9v-19h0.3l11.3,13.3c0.5,0.6,1.3,1.7,1.3,1.7
				s-0.1-1.3-0.1-2.1V72.6h1.9v19h-0.3L273.6,78.4z"/>
			<path d="M294.4,74.4h-5.8v-1.8h13.6v1.8h-5.8v17.1h-2V74.4z"/>
			<path d="M311.2,82.1c0-5.7,4.3-9.6,9.7-9.6c5.4,0,9.7,4,9.7,9.6s-4.3,9.6-9.7,9.6C315.5,91.7,311.2,87.7,311.2,82.1z M328.5,82.1
				c0-4.5-3.2-7.8-7.6-7.8c-4.4,0-7.6,3.4-7.6,7.8s3.2,7.8,7.6,7.8C325.3,89.9,328.5,86.5,328.5,82.1z"/>
			<path d="M334.7,72.6H346v1.8h-9.3v8.8h8.5v1.8h-8.5v6.4h-2V72.6z"/>
			<path d="M360.8,74.4H355v-1.8h13.6v1.8h-5.8v17.1h-2V74.4z"/>
			<path d="M372.1,72.6h2v10.6h10.1V72.6h2v18.9h-2v-6.4h-10.1v6.4h-2V72.6z"/>
			<path d="M391.3,72.6h11.5v1.8h-9.5v8.8h8.5V85h-8.5v4.7h9.9v1.8h-11.9V72.6z"/>
		</g>
		<g>
			<rect x="117.8" y="55.7" class="st1" width="112.2" height="9.1"/>
			<rect x="117.8" y="40.5" class="st1" width="112.2" height="9.1"/>
			<polygon class="st1" points="140.5,16.9 142.5,23.1 149,23.1 143.7,26.9 145.8,33.1 140.5,29.2 135.2,33.1 137.3,26.9 132,23.1 
				138.5,23.1 			"/>
			<polygon class="st1" points="175.2,16.9 177.2,23.1 183.8,23.1 178.5,26.9 180.5,33.1 175.2,29.2 170,33.1 172,26.9 166.7,23.1 
				173.2,23.1 			"/>
			<polygon class="st1" points="210,16.9 212,23.1 218.5,23.1 213.2,26.9 215.3,33.1 210,29.2 204.7,33.1 206.7,26.9 201.4,23.1 
				208,23.1 			"/>
		</g>
	</g>
</switch>
</svg>
