<?xml version="1.0" encoding="utf-8"?>
<!-- Generator: Adobe Illustrator 21.0.2, SVG Export Plug-In . SVG Version: 6.00 Build 0)  -->
<svg version="1.1" id="Layer_1" xmlns="http://www.w3.org/2000/svg" xmlns:xlink="http://www.w3.org/1999/xlink" x="0px" y="0px"
	 viewBox="0 0 356 478" style="enable-background:new 0 0 356 478;" xml:space="preserve">
<style type="text/css">
	.st0{fill:#FFFFFF;}
</style>
<g>
	<path class="st0" d="M38.9,9c2.6,7.4,5.1,15,7.4,22.7c7.7,0.4,16.8,0,24.2,0.2c-6.4,4.8-13.1,9.3-19.4,14.2
		c2.3,7.7,4.9,15.1,7.3,22.7c-6.6-4.5-12.8-9.4-19.4-13.9c-6.6,4.3-13.1,9.6-19.4,13.8c2.3-7.6,4.8-15,7.3-22.4
		C21.5,42,15.6,37.6,9.9,33.5c-0.7-0.5-1.8-0.9-2.1-1.8c7.6,0.3,16.2,0.3,23.8,0C34.2,24.3,36.5,16.7,38.9,9z"/>
	<path class="st0" d="M173.9,9c2.6,7.4,5,15.1,7.4,22.7c7.6,0.3,16.2,0.3,23.8,0c0.3,0.6-1.1,1.3-1.8,1.8
		c-5.5,3.9-11.6,8.4-17.1,12.4c2.2,7.7,4.7,15.2,7.3,22.5c-1,0.2-1.6-0.9-2.3-1.4c-5.5-4-11.6-8.2-17.1-12.3
		c-6.7,4.4-12.9,9.4-19.5,13.9c2.4-7.5,4.9-15,7.3-22.5c-4.4-3.8-9.7-7.4-14.5-10.9c-0.8-0.6-1.6-1.2-2.4-1.8
		c-0.7-0.5-1.9-0.9-2.1-1.8c7.6,0.3,16.2,0.3,23.8,0C169.1,24.3,171.5,16.6,173.9,9z"/>
	<path class="st0" d="M313.6,9c2.6,7.5,4.9,15.4,7.6,22.9c7.9-0.1,16.1,0.2,23.8-0.2c-0.4,0.8-1.4,1.3-2.1,1.8
		c-5.5,4-11.6,8.4-17.1,12.6c2.4,7.5,4.8,14.9,7.3,22.4c-0.6,0.2-1.5-0.8-2.3-1.4c-5.4-4-11.5-8.2-16.9-12.3
		c-6.8,4.4-12.9,9.4-19.5,13.9c2.3-7.6,4.8-15,7.3-22.5c-6.1-5.1-12.8-9.6-19.4-14.2c7-0.4,16,0,23.8-0.2c1.5-3.5,2.8-7.2,3.9-11
		c1.2-3.8,2.4-7.6,3.6-11.4C313.4,9.2,313.6,9.2,313.6,9z"/>
	<path class="st0" d="M50.1,77.9c1.2-0.4,1.6,1.4,2.1,2.7c2.9,7.8,5.8,15.9,8.6,23.5c3.4,9.2,7,18.2,9.4,27.4
		c4.8-18,10.5-35.1,15.6-52.8c2.3,0,4.6,0,7,0c-6.7,21.6-13.3,43.4-20.3,65.2c-0.4,1.3-0.9,3.8-1.7,3.9c-1.2,0.1-2.7-5.7-3-6.5
		c-2.5-6.9-4.9-13.8-7.4-20.7c-3.5-9.5-7.1-18-9.7-28C45.1,108.8,39,124.9,33,141.3c-0.5,1.5-1.9,6.5-2.9,6.5
		c-1,0.1-1.5-3.1-1.8-3.9c-6.8-21.6-13.8-43.6-20.4-65.2c2.4,0,4.8,0,7.3,0c5.2,17.6,11,34.6,15.6,52.8
		C36.6,113,43.6,95.7,50.1,77.9z"/>
	<path class="st0" d="M206,77.9c1.2-0.3,1.2,0.5,1.7,1.7c9.2,22.2,18.1,45.5,27.1,67.5c-2.4,0-4.8,0-7.3,0c-1.5-3.8-3-7.6-4.4-11.5
		c-11,0-22.1,0-33.1,0c-1.6,3.7-3,7.6-4.4,11.5c-2.3,0-4.5,0-6.8,0C187.8,123.9,196.8,100.8,206,77.9z M192.4,129.3
		c9.3-0.1,19.1,0.2,28.1-0.2c-4.8-12.6-9.9-25-14.2-38.1C202.4,104.5,196.8,116.3,192.4,129.3z"/>
	<path class="st0" d="M105.4,78.6c13.3,0,26.5,0,39.8,0c0,2.1,0,4.2,0,6.4c-10.9,0-21.9,0-32.8,0c-0.4,10.4-0.1,21.4-0.2,32.1
		c9.5,0.4,19.6,0.1,29.4,0.2c0,2.1,0,4.1,0,6.2c-9.8,0-19.6,0-29.4,0c0,5.7,0,11.4,0,17.1c11.1,0.4,23,0.1,34.4,0.2
		c0,2.1,0,4.2,0,6.4c-13.8,0-27.5,0-41.3,0c0-22.7,0-45.3,0-68C105.2,78.9,105.2,78.7,105.4,78.6z"/>
	<path class="st0" d="M247.3,78.6c15-0.6,27.8-0.2,35.1,7.1c5,5,7.9,13.8,6.4,23.2c-1.3,8.3-6.3,14.1-13.2,16.9
		c4,7,9.8,14.3,13.9,21.2c-2.7-0.6-5.2,0.8-7.7,0c-1-0.3-2.8-3.6-3.5-4.5c-3.2-4.7-6.5-10.1-9.5-14.2c-4.1,1-9.7,0.5-14.7,0.6
		c0,6.1,0,12.1,0,18.2c-2.3,0-4.6,0-7,0c0-22.7,0-45.3,0-68C247.2,78.9,247.1,78.7,247.3,78.6z M254.1,85.4c0,12.4,0,24.7,0,37.1
		c17.1,1.6,27.8-3.7,27.8-18.6c0-14.9-11-20.5-27.7-18.9C254.1,85,254.1,85.2,254.1,85.4z"/>
	<path class="st0" d="M304.8,78.6c13.3,0,26.5,0,39.8,0c0,2.1,0,4.2,0,6.4c-10.9,0-21.9,0-32.8,0c-0.4,10.4,0,21.4-0.2,32.1
		c9.5,0.4,19.6,0.1,29.4,0.2c0,2.1,0,4.1,0,6.2c-9.8,0-19.6,0-29.4,0c0,5.7,0,11.4,0,17.1c11.1,0.4,23,0.1,34.4,0.2
		c0,2.1,0,4.2,0,6.4c-13.8,0-27.5,0-41.3,0c0-22.7,0-45.3,0-68C304.7,78.9,304.6,78.7,304.8,78.6z"/>
	<path class="st0" d="M8.5,156.3c112.3,0,224.6,0,336.9,0c0,7.6,0,15.2,0,22.9c-112.4,0-224.7,0-337,0c0-7.5,0-14.9,0-22.4
		C8.3,156.5,8.3,156.3,8.5,156.3z"/>
	<path class="st0" d="M290.6,185.9c11-0.8,19.1,7.2,19.1,18.2c-0.1,11.2-8.7,18-18.2,17.9c-10.1-0.1-17.7-7.5-17.7-18.2
		c0-5.5,2.3-9.9,4.8-12.6C281.5,188.2,285.1,186.3,290.6,185.9z M285.1,213.3c3.5,2.9,9.7,2.9,13.2,0c3.6-2.9,5.6-10.1,2.6-15.7
		c-1.4-2.7-5.4-5.8-10.6-5.1C281.2,193.6,277.6,207.1,285.1,213.3z"/>
	<path class="st0" d="M41.2,206.7c1.9-7.1,4.6-13.5,6.8-20.4c2.3,0,4.6,0,7,0c-2,5.9-4.3,11.9-6.4,17.9c-2.1,6-3.9,12.1-6.5,17.7
		c-1-0.5-1.1-1.7-1.5-2.6c-2.8-6.2-6.3-12.5-8.5-19.5c-3.2,7.6-6.6,15-10.4,22.1c-1.3-1-1.5-2.8-2-4.2c-3.6-10.1-7.7-20.9-11.2-31.3
		c2.5,0,4.9,0,7.4,0c2.3,6.8,5.1,13.1,6.8,20.4c2.4-7.5,5.8-14.1,9.1-20.7c1.2,0.5,2,3.4,2.7,5C36.9,195.9,39.9,201.1,41.2,206.7z"
		/>
	<path class="st0" d="M88.7,221.3c-2.2,0.4-5,0.1-7.4,0.2c-0.6-1.3-1.1-2.7-1.7-3.9c-4.6,0-9.3,0-13.9,0c-0.7,1.1-1.2,2.5-1.7,3.9
		c-2.3,0-4.6,0-7,0c2.4-5.6,5-11.6,7.6-17.6c2.6-6,4.8-12.2,7.6-17.6c0.1-0.3-0.1-0.5,0.5-0.5C78.3,197.4,83.3,209.7,88.7,221.3z
		 M68,211.5c3,0,6.1,0,9.1,0c-1.6-4-3.2-8.1-4.7-12.3C71.4,203.8,69.5,207.5,68,211.5z"/>
	<path class="st0" d="M113.1,191.5c-1.7,1.4-3.8,2.4-5.4,3.8c-0.6-2.1-5.2-4.8-7.4-2.1c-0.6,0.7-0.8,2.3-0.5,3.3
		c0.6,2.1,4.3,3.2,6.5,4.2c4.7,2.1,9,4.6,8.9,11c-0.1,13.5-21.2,12.5-24.8,2.9c1.7-1.3,3.8-2.2,5.6-3.5c1.1,0.8,1.6,2.3,3.2,3.3
		c2.9,1.8,8.9,1.4,8.9-2.6c0.1-3-3.1-3.8-5.4-4.8c-4.8-2.1-10.2-4.5-10.1-11.7c0.1-5.4,3.6-9,8.8-9.5
		C107,185.3,110.6,187.5,113.1,191.5z"/>
	<path class="st0" d="M193.7,207.3c-0.5-6-0.2-14.1-0.3-21c2.2,0,4.4,0,6.7,0c0,11.9,0,23.7,0,35.6c-1.4-0.1-2.3-1.4-3.2-2.3
		c-6.2-6.2-13.3-12.1-19.1-19.1c0.7,6.4,0.4,14,0.5,21c-2.2,0-4.4,0-6.7,0c0-11.9,0-23.7,0-35.6c0.1,0,0.2,0,0.3,0
		c1.7,0.6,4.2,3.7,5.8,5.1C183.2,196.2,189.4,201.9,193.7,207.3z"/>
	<path class="st0" d="M231.4,195.5c-2-2.4-5.3-3.4-9.1-3c-6.1,0.7-9.6,6.5-8.8,13.3c0.9,8,9.3,12,18.2,8.5c0-1.7,0-3.4,0-5.1
		c-2.5-0.3-5.6-0.1-8.3-0.2c0-2.1,0-4.1,0-6.2c4.9,0,9.9,0,14.8,0c0,5,0,10.1,0,15.1c-8,6.5-23,5-28.8-3c-3.6-5-4.2-13.1-1.7-18.9
		c2.9-6.6,8.8-10.6,18.2-10c2.7,0.2,6.4,1.3,8.5,2.9c0.5,0.3,2,1.7,2,1.8c0,0.4-2,2.1-2.4,2.6C233,194.2,232.4,194.8,231.4,195.5z"
		/>
	<path class="st0" d="M337.8,207.3c-0.5-6-0.2-14.1-0.3-21c2.2,0,4.4,0,6.7,0c0,11.9,0,23.7,0,35.6c-1.4-0.1-2.3-1.4-3.2-2.3
		c-6.2-6.2-13.3-12.1-19.1-19.1c0.7,6.4,0.4,14,0.5,21c-2.2,0-4.4,0-6.7,0c0-11.9,0-23.7,0-35.6c0.1,0,0.2,0,0.3,0
		c1.7,0.6,4.2,3.7,5.8,5.1C327.3,196.2,333.4,201.9,337.8,207.3z"/>
	<path class="st0" d="M120.9,186.2c2.3,0,4.6,0,7,0c0,6,0,12,0,18c4.9,0,9.8,0,14.7,0c0.4-5.7,0.1-12.1,0.2-18c2.4,0,4.7,0,7.1,0
		c0,11.8,0,23.5,0,35.3c-2.4,0-4.7,0-7.1,0c0-3.5,0-7.1,0-10.6c-4.6-0.4-9.9-0.1-14.8-0.2c0,3.6,0,7.2,0,10.7c-2.4,0-4.7,0-7.1,0
		C120.9,209.8,120.6,197.7,120.9,186.2z"/>
	<path class="st0" d="M157.4,186.2c2.3,0,4.6,0,7,0c0,11.8,0,23.5,0,35.3c-2.4,0-4.7,0-7.1,0c0-11.6,0-23.2,0-34.8
		C157.3,186.5,157.2,186.3,157.4,186.2z"/>
	<path class="st0" d="M243.1,186.2c8.9,0,17.8,0,26.6,0c0,2.1,0,4.2,0,6.4c-3.2,0-6.5,0-9.7,0c-0.4,9.3-0.1,19.3-0.2,28.9
		c-2.4,0-4.7,0-7.1,0c0-9.6,0-19.2,0-28.8c-3-0.4-6.6-0.1-9.8-0.2C243,190.5,242.7,188,243.1,186.2z"/>
	<path class="st0" d="M8.5,229.8c112.3,0,224.6,0,336.9,0c0,7.6,0,15.1,0,22.7c-112.4,0-224.7,0-337,0c0-7.4,0-14.8,0-22.2
		C8.3,230.1,8.3,229.8,8.5,229.8z"/>
	<path class="st0" d="M342.1,299.9c-5.1,3.5-10,7.3-15.1,10.7c-14.5-18.7-36.8-33-70.8-31.5c-10.3,0.5-20,2.9-28,6.2
		c-15.6,6.4-28.2,17.5-37.1,31.3c-8.7,13.6-15,32.7-13.9,54.5c1,21,7.8,37.9,17.6,50.8c9.9,13.2,22.9,23,40,28.5
		c8.8,2.8,19.1,4.7,29.7,4.2c10.7-0.5,20.5-2,29.1-5.1c16.9-6.2,29.3-16.1,39.3-29.1c4.9,3.8,10.3,7.1,15.1,10.9
		c-10.4,14-23.7,25.1-41,32.5c-16.6,7.1-40.1,11.2-63.3,7.4c-20.5-3.4-37.3-11.6-50.5-22.9c-13.3-11.4-24-25.6-30.1-43.3
		c-15.1,38.9-47.2,62.6-99.9,63.9c-17.7,0.4-35.9-0.3-54.5,0c0-68.9,0-137.8,0-206.7c18.7,0.6,37.3-0.8,55.1,0
		c52.5,2.3,85,24.8,99.6,65.2c7.3-18.7,18.9-34.4,34.4-45.9c15.6-11.5,34.3-19.2,59.8-20.4c20-0.9,38.3,3.8,51.5,10.4
		C322.8,278.8,333.6,288.4,342.1,299.9z M28.2,280.7c0.1,56.8-0.2,114,0.2,170.6c18-0.1,35.1,0.6,49.8-1.5
		c14.9-2.1,27.3-6.7,37.7-13.8c20.3-13.8,32.8-36.3,32.8-70.1c0-33.8-12.4-56.3-32.7-70.2c-10.4-7.1-22.7-11.7-37.5-13.9
		c-14.8-2.2-31.8-1.3-49.9-1.5C28.3,280.3,28.2,280.4,28.2,280.7z"/>
</g>
</svg>
