<?xml version="1.0" encoding="utf-8"?>
<!-- Generator: Adobe Illustrator 21.0.2, SVG Export Plug-In . SVG Version: 6.00 Build 0)  -->
<svg version="1.1" id="Camada_1" xmlns="http://www.w3.org/2000/svg" xmlns:xlink="http://www.w3.org/1999/xlink" x="0px" y="0px"
	 viewBox="0 0 543 90" style="enable-background:new 0 0 543 90;" xml:space="preserve">
<style type="text/css">
	.st0{fill:#FFFFFF;}
</style>
<path class="st0" d="M18.9,26.2h24.6v2H32.2v31.5h-2V28.1H18.9V26.2z"/>
<path class="st0" d="M47.4,26.2h2v15.7H72V26.2h2v33.4h-2V43.8H49.4v15.8h-2V26.2z"/>
<path class="st0" d="M83.1,26.2h21.6v2H85.1v13.3h17.4v2H85.1v14.2h20.2v2H83.1V26.2z"/>
<path class="st0" d="M136.5,11.6h11.7V62h26.3v10.5h-38V11.6z"/>
<path class="st0" d="M232.8,72.5l-5.4-12.9h-29.8l-5.4,12.9h-12.1l26.7-60.9h12.1l26.4,60.9H232.8z M201.8,49.6h21.4L212.6,24
	L201.8,49.6z"/>
<path class="st0" d="M294.9,15.7c3.7,2.7,5.6,6.4,5.6,11.1c0,3.4-0.9,6.3-2.8,8.7c-1.9,2.4-4.5,4-7.8,4.8c4.1,0.8,7.2,2.5,9.5,5.2
	s3.4,6.1,3.4,10.2c0,5.2-2,9.3-6,12.3s-9.5,4.5-16.5,4.5h-27.9V11.6h27.1C286.1,11.6,291.2,13,294.9,15.7z M286.1,34.5
	c1.7-1.3,2.6-3.2,2.6-5.6c0-2.3-0.9-4.1-2.6-5.4c-1.7-1.3-4.1-1.9-7.1-1.8h-14.8v14.8H279C282,36.5,284.4,35.8,286.1,34.5z
	 M287.7,60.3c2.1-1.4,3.1-3.5,3.1-6.1c0-2.5-1-4.5-3.1-5.9s-5-2.1-8.7-2h-14.8v16.1H279C282.7,62.5,285.6,61.8,287.7,60.3z"/>
<path class="st0" d="M365.8,52.2c0.5,0.6,1.1,0.9,1.9,0.9c0.9,0,1.7-0.4,2.5-1.2c0.7-0.8,1.3-1.9,1.8-3.3c0.4-1.4,0.6-3.1,0.6-4.9
	c0-3.3-0.7-6.3-2.2-8.9s-3.5-4.7-6.2-6.2c-2.6-1.5-5.6-2.3-9-2.3c-3.3,0-6.3,0.8-9.1,2.3c-2.7,1.5-4.9,3.6-6.4,6.2
	c-1.6,2.7-2.3,5.6-2.3,8.9c0,3.2,0.7,6,2.2,8.5s3.6,4.5,6.2,5.9s5.6,2.2,8.8,2.2c1.3,0,2.7-0.2,4.3-0.6c1.5-0.4,2.8-1,3.9-1.7l1.1,2
	c-1.2,0.8-2.7,1.4-4.4,1.8c-1.7,0.5-3.4,0.7-4.9,0.7c-3.7,0-7-0.8-10-2.4s-5.3-3.9-7-6.8s-2.5-6.1-2.5-9.7c0-3.7,0.9-7,2.6-10
	c1.8-3,4.2-5.3,7.2-7c3.1-1.7,6.5-2.5,10.3-2.5c3.7,0,7.1,0.8,10.1,2.5c3,1.7,5.3,4,7,7s2.5,6.3,2.5,10c0,2.3-0.3,4.3-0.9,6.1
	c-0.6,1.7-1.5,3.1-2.6,4c-1.1,1-2.4,1.4-3.9,1.4c-1.3,0-2.3-0.4-3.1-1.1s-1.3-1.8-1.4-3.1v-1.8c-0.9,1.7-2.1,3-3.6,3.9
	c-1.6,0.9-3.3,1.4-5.3,1.4s-3.7-0.5-5.4-1.4c-1.6-0.9-2.9-2.2-3.8-3.9c-1-1.7-1.4-3.5-1.4-5.6c0-2,0.4-3.9,1.3-5.6
	c0.9-1.7,2.1-3,3.7-3.9c1.6-1,3.4-1.4,5.4-1.4s3.8,0.5,5.4,1.5c1.6,1,2.6,2.1,3.2,3.5v-4.7h2.8v17C365,50.9,365.3,51.6,365.8,52.2z
	 M350,36.3c-1.2,0.7-2.1,1.7-2.8,2.9c-0.7,1.2-1,2.6-1,4.2s0.3,3,1,4.2c0.7,1.3,1.6,2.3,2.8,3s2.5,1.1,4.1,1.1s2.9-0.4,4.1-1.1
	c1.2-0.7,2.1-1.7,2.8-3s1-2.7,1-4.3c0-1.6-0.3-2.9-1-4.2c-0.7-1.2-1.6-2.2-2.8-2.9c-1.2-0.7-2.6-1.1-4.2-1.1
	C352.6,35.2,351.2,35.6,350,36.3z"/>
<path class="st0" d="M447.1,15.6c4.8,2.7,8.6,6.4,11.4,11.1c2.8,4.7,4.2,9.8,4.2,15.4c0,5.5-1.4,10.6-4.2,15.3
	c-2.8,4.7-6.6,8.4-11.4,11.1c-4.8,2.7-10.1,4.1-15.8,4.1h-24.2v-61h24.2C437,11.6,442.3,12.9,447.1,15.6z M445.1,65.3
	c4.2-2.4,7.6-5.7,10-9.8c2.5-4.1,3.7-8.6,3.7-13.5s-1.2-9.5-3.7-13.6s-5.8-7.4-10-9.8c-4.2-2.4-8.9-3.6-13.9-3.6h-20.5v53.8h20.6
	C436.3,68.9,440.9,67.7,445.1,65.3z"/>
<path class="st0" d="M513.8,16.6c-3.3-1.3-6.8-2-10.4-2c-5.1,0-9.7,1.2-14,3.7c-4.3,2.4-7.7,5.8-10.2,9.9c-2.5,4.2-3.8,8.8-3.8,13.7
	c0,4.9,1.2,9.5,3.8,13.7c2.5,4.2,5.9,7.5,10.2,10s8.9,3.7,14,3.7c3.6,0,7-0.7,10.3-2s6.2-3.2,8.9-5.5l2.3,2.5
	c-2.8,2.7-6.1,4.8-9.9,6.3c-3.8,1.5-7.6,2.3-11.6,2.3c-5.7,0-11-1.4-15.8-4.1c-4.8-2.8-8.6-6.5-11.5-11.3c-2.8-4.7-4.2-9.9-4.2-15.5
	s1.4-10.7,4.2-15.5c2.8-4.7,6.6-8.5,11.5-11.3c4.8-2.8,10.1-4.1,15.8-4.1c4,0,7.9,0.7,11.6,2.2c3.7,1.5,7,3.5,9.9,6.1l-2.2,2.8
	C520.1,19.8,517.1,18,513.8,16.6z"/>
<path class="st0" d="M18.9,26.2h24.6v2H32.2v31.5h-2V28.1H18.9V26.2z"/>
<path class="st0" d="M47.4,26.2h2v15.7H72V26.2h2v33.4h-2V43.8H49.4v15.8h-2V26.2z"/>
<path class="st0" d="M83.1,26.2h21.6v2H85.1v13.3h17.4v2H85.1v14.2h20.2v2H83.1V26.2z"/>
<path class="st0" d="M136.5,11.6h11.7V62h26.3v10.5h-38V11.6z"/>
<path class="st0" d="M232.8,72.5l-5.4-12.9h-29.8l-5.4,12.9h-12.1l26.7-60.9h12.1l26.4,60.9H232.8z M201.8,49.6h21.4L212.6,24
	L201.8,49.6z"/>
<path class="st0" d="M294.9,15.7c3.7,2.7,5.6,6.4,5.6,11.1c0,3.4-0.9,6.3-2.8,8.7c-1.9,2.4-4.5,4-7.8,4.8c4.1,0.8,7.2,2.5,9.5,5.2
	s3.4,6.1,3.4,10.2c0,5.2-2,9.3-6,12.3s-9.5,4.5-16.5,4.5h-27.9V11.6h27.1C286.1,11.6,291.2,13,294.9,15.7z M286.1,34.5
	c1.7-1.3,2.6-3.2,2.6-5.6c0-2.3-0.9-4.1-2.6-5.4c-1.7-1.3-4.1-1.9-7.1-1.8h-14.8v14.8H279C282,36.5,284.4,35.8,286.1,34.5z
	 M287.7,60.3c2.1-1.4,3.1-3.5,3.1-6.1c0-2.5-1-4.5-3.1-5.9s-5-2.1-8.7-2h-14.8v16.1H279C282.7,62.5,285.6,61.8,287.7,60.3z"/>
<path class="st0" d="M365.8,52.2c0.5,0.6,1.1,0.9,1.9,0.9c0.9,0,1.7-0.4,2.5-1.2c0.7-0.8,1.3-1.9,1.8-3.3c0.4-1.4,0.6-3.1,0.6-4.9
	c0-3.3-0.7-6.3-2.2-8.9s-3.5-4.7-6.2-6.2c-2.6-1.5-5.6-2.3-9-2.3c-3.3,0-6.3,0.8-9.1,2.3c-2.7,1.5-4.9,3.6-6.4,6.2
	c-1.6,2.7-2.3,5.6-2.3,8.9c0,3.2,0.7,6,2.2,8.5s3.6,4.5,6.2,5.9s5.6,2.2,8.8,2.2c1.3,0,2.7-0.2,4.3-0.6c1.5-0.4,2.8-1,3.9-1.7l1.1,2
	c-1.2,0.8-2.7,1.4-4.4,1.8c-1.7,0.5-3.4,0.7-4.9,0.7c-3.7,0-7-0.8-10-2.4s-5.3-3.9-7-6.8s-2.5-6.1-2.5-9.7c0-3.7,0.9-7,2.6-10
	c1.8-3,4.2-5.3,7.2-7c3.1-1.7,6.5-2.5,10.3-2.5c3.7,0,7.1,0.8,10.1,2.5c3,1.7,5.3,4,7,7s2.5,6.3,2.5,10c0,2.3-0.3,4.3-0.9,6.1
	c-0.6,1.7-1.5,3.1-2.6,4c-1.1,1-2.4,1.4-3.9,1.4c-1.3,0-2.3-0.4-3.1-1.1s-1.3-1.8-1.4-3.1v-1.8c-0.9,1.7-2.1,3-3.6,3.9
	c-1.6,0.9-3.3,1.4-5.3,1.4s-3.7-0.5-5.4-1.4c-1.6-0.9-2.9-2.2-3.8-3.9c-1-1.7-1.4-3.5-1.4-5.6c0-2,0.4-3.9,1.3-5.6
	c0.9-1.7,2.1-3,3.7-3.9c1.6-1,3.4-1.4,5.4-1.4s3.8,0.5,5.4,1.5c1.6,1,2.6,2.1,3.2,3.5v-4.7h2.8v17C365,50.9,365.3,51.6,365.8,52.2z
	 M350,36.3c-1.2,0.7-2.1,1.7-2.8,2.9c-0.7,1.2-1,2.6-1,4.2s0.3,3,1,4.2c0.7,1.3,1.6,2.3,2.8,3s2.5,1.1,4.1,1.1s2.9-0.4,4.1-1.1
	c1.2-0.7,2.1-1.7,2.8-3s1-2.7,1-4.3c0-1.6-0.3-2.9-1-4.2c-0.7-1.2-1.6-2.2-2.8-2.9c-1.2-0.7-2.6-1.1-4.2-1.1
	C352.6,35.2,351.2,35.6,350,36.3z"/>
<path class="st0" d="M447.1,15.6c4.8,2.7,8.6,6.4,11.4,11.1c2.8,4.7,4.2,9.8,4.2,15.4c0,5.5-1.4,10.6-4.2,15.3
	c-2.8,4.7-6.6,8.4-11.4,11.1c-4.8,2.7-10.1,4.1-15.8,4.1h-24.2v-61h24.2C437,11.6,442.3,12.9,447.1,15.6z M445.1,65.3
	c4.2-2.4,7.6-5.7,10-9.8c2.5-4.1,3.7-8.6,3.7-13.5s-1.2-9.5-3.7-13.6s-5.8-7.4-10-9.8c-4.2-2.4-8.9-3.6-13.9-3.6h-20.5v53.8h20.6
	C436.3,68.9,440.9,67.7,445.1,65.3z"/>
<path class="st0" d="M513.8,16.6c-3.3-1.3-6.8-2-10.4-2c-5.1,0-9.7,1.2-14,3.7c-4.3,2.4-7.7,5.8-10.2,9.9c-2.5,4.2-3.8,8.8-3.8,13.7
	c0,4.9,1.2,9.5,3.8,13.7c2.5,4.2,5.9,7.5,10.2,10s8.9,3.7,14,3.7c3.6,0,7-0.7,10.3-2s6.2-3.2,8.9-5.5l2.3,2.5
	c-2.8,2.7-6.1,4.8-9.9,6.3c-3.8,1.5-7.6,2.3-11.6,2.3c-5.7,0-11-1.4-15.8-4.1c-4.8-2.8-8.6-6.5-11.5-11.3c-2.8-4.7-4.2-9.9-4.2-15.5
	s1.4-10.7,4.2-15.5c2.8-4.7,6.6-8.5,11.5-11.3c4.8-2.8,10.1-4.1,15.8-4.1c4,0,7.9,0.7,11.6,2.2c3.7,1.5,7,3.5,9.9,6.1l-2.2,2.8
	C520.1,19.8,517.1,18,513.8,16.6z"/>
</svg>
